<svg width="210" height="155" viewBox="0 0 210 155" fill="none" xmlns="http://www.w3.org/2000/svg">
<g clip-path="url(#clip0_63_2)">
<path d="M61.8304 28.4395C61.8174 30.7033 58.8483 33.9521 58.0921 36.493C57.0787 39.8998 57.0677 43.0466 58.8733 46.1584L59.1744 46.6543C58.137 48.4072 55.8443 49.8191 54.5568 51.693L54.2257 52.187L54.2226 52.668L53.6144 52.535L53.5534 51.0321C53.2653 42.2416 55.7782 34.8981 61.8304 28.4395Z" fill="black"/>
<path d="M146.996 28.8086C147.689 28.9966 148.077 29.2116 148.573 29.7415C154.527 36.1191 155.809 44.2347 155.499 52.5611L154.934 52.6771C153.69 50.1223 152.018 48.5624 149.932 46.6765C150.494 45.7886 150.98 44.9566 151.261 43.9347C152.825 38.23 149.815 33.4673 146.996 28.8086Z" fill="black"/>
<path d="M167.168 44.918L168.035 45.3609C176.475 50.4076 183.861 57.2762 186.292 66.9766C189.585 68.9175 192.703 70.8324 195.453 73.5132C198.274 76.2641 203.743 83.0777 203.791 87.1174C198.901 82.1577 192.194 78.2959 185.231 77.199C182.306 76.738 177.704 76.866 175.24 75.2021C174.776 73.1992 175.311 71.5563 175.601 69.5895C176.93 60.556 172.409 51.9325 167.168 44.918Z" fill="black"/>
<path d="M41.4699 45.0645C41.4299 46.5424 38.2888 49.9801 37.5065 51.5591C35.7309 55.1458 34.3103 58.7626 33.6561 62.7194C33.0129 66.6141 34.0552 69.399 34.1093 73.1227C34.1253 74.2327 33.9602 75.2226 32.8878 75.7946C31.6904 76.4325 28.6373 76.5325 27.2568 76.7225C18.7687 77.8905 12.0253 80.8333 5.72604 86.6859L5.59199 86.7549L5.13281 86.5919C9.45537 77.6895 13.7089 72.1418 22.4731 67.1911C23.4364 64.6273 24.3117 61.7704 25.7163 59.4186C29.2835 53.4439 35.8799 49.0112 41.4699 45.0645Z" fill="black"/>
<path d="M207.452 104.836L208.132 107.436C207.288 111.205 206.491 114.737 206.648 118.62C206.96 126.324 211.512 135.88 205.207 142.224C204.38 142.176 203.886 142.069 203.144 141.7L202.742 142.157C201.404 143.654 201.001 144.094 198.887 144.208C194.826 144.426 188.487 145.059 185.172 142.499C184.472 142.817 183.42 143.527 182.683 143.389C181.419 143.153 180.694 143.266 179.466 143.633C177.683 144.166 176.945 143.667 175.241 143.668C173.356 143.67 171.422 144.142 169.477 144.159C155.783 144.276 142.079 144.164 128.384 144.163C90.5021 144.161 52.4534 144.904 14.5938 144.102C15.4241 146.581 16.5595 148.868 15.4251 151.412C14.8159 152.776 13.5404 153.81 12.1529 154.333C9.80806 155.218 7.4232 154.704 5.26242 153.626C3.33773 152.665 1.66913 150.985 1.07992 148.867C0.651761 147.327 0.796815 145.315 0.812821 143.726C0.86584 138.432 1.87319 133.161 1.88019 127.872C1.88419 124.99 1.14694 122.029 0.7608 119.172C0.378662 116.353 -0.748737 111.784 0.774813 109.245C1.11894 108.671 1.51608 108.187 1.99025 107.718L3.87591 108.267C2.63146 109.244 1.6461 109.695 1.46103 111.404C0.882826 116.743 3.0326 122.05 3.3147 127.342C3.57579 132.235 2.58346 137.747 2.16731 142.655L2.87555 142.232C4.63518 141.172 6.03169 140.341 7.11108 138.519C8.93674 138.517 8.92773 139.386 10.4213 139.985C11.1375 140.272 12.6761 140.182 13.4954 140.188C40.287 140.366 67.1227 140.028 93.9214 140.038C113.511 140.046 133.103 140.061 152.694 140.058C160.751 140.057 169.224 139.438 177.221 139.867C179.149 139.97 180.946 139.012 182.98 138.99C183.782 138.981 184.416 138.77 185.172 138.528C186.345 138.938 187.777 139.806 188.956 139.991C191.406 140.376 194.382 140.108 196.876 140.089C198.067 140.08 199.738 140.295 200.823 139.751L202.435 138.607L204.29 138.816C205.477 137.747 205.879 137.01 206.392 135.507C206.184 134.329 206.012 133.452 205.361 132.414L205.739 130.547L206.538 129.937C206.946 126.324 205.513 121.956 205.251 118.256C204.928 113.714 206.365 109.21 207.452 104.836ZM5.02833 143.008C3.13465 144.388 3.02861 144.343 2.55344 146.614C3.15766 148.599 3.80489 149.789 5.70558 150.768C7.62327 151.756 9.73502 152.064 11.8398 151.696C12.8081 151.025 13.2393 150.646 13.8205 149.578C13.0192 148.326 12.32 146.86 10.8945 146.265C9.93711 148.141 11.8448 149.187 9.71202 150.239C8.13646 150.032 7.59127 150.155 6.40184 149.05C5.91967 147.138 6.09271 145.477 6.25176 143.542L5.02833 143.008Z" fill="black"/>
<path d="M103.789 0.00580635C104.592 -0.0321913 105.232 0.115799 105.953 0.464778C110.178 2.51265 117.091 7.67335 118.644 12.2851C119.561 15.0089 119.278 17.7847 117.934 20.2766L117.775 21.2105C119.564 20.8695 121.392 20.5916 123.213 20.8685C125.95 21.2855 128.43 22.9864 129.914 25.2943C131.302 27.4511 131.857 30.169 131.222 32.6658L131.081 33.1838C130.451 35.6106 129.229 37.4885 127.143 38.9474C124.902 40.5143 122.337 41.0663 119.676 40.5253C118.843 40.3564 118.423 40.1804 117.601 40.5094C122.484 49.2058 110.191 55.7634 106.629 62.693C105.726 64.4469 105.362 66.5997 104.95 68.5206L104.296 69.0046C102.935 61.893 99.6002 58.4123 94.8775 53.1846C93.568 51.7357 91.8974 50.1708 91.0101 48.4179C90.0628 46.544 90.2298 44.0421 90.9331 42.1272C91.2152 41.3563 91.3932 41.2093 91.2772 40.3803C89.2885 40.6623 87.1167 41.0323 85.169 40.4193L84.6688 40.2494C83.0803 39.7294 81.9578 39.0644 80.7294 37.9055C78.7196 36.0076 77.6643 33.6078 77.6563 30.8309C77.6483 27.7861 78.7847 25.2663 80.9755 23.1994C84.2937 20.0686 87.4588 20.9645 91.5263 21.1425L91.2272 20.4226C90.2748 18.2087 89.6046 16.3898 90.1658 13.952C91.7114 7.23437 98.3137 3.3456 103.789 0.00580635Z" fill="black"/>
<path d="M155.492 116.647C157.755 115.875 159.558 115.218 162.001 115.511C163.446 116.349 163.663 116.563 164.474 118.022C164.797 123.015 162.779 126.695 159.973 130.656L159.484 130.413C160.317 128.587 161.422 126.844 161.83 124.856C162.327 122.441 162.064 120.573 160.755 118.495C159.177 117.146 157.751 117.203 155.776 117.07L155.492 116.647Z" fill="black"/>
<path d="M47.6328 115.863C48.5602 116.232 49.0643 116.621 49.7806 117.313C48.4461 120.675 49.2214 127.256 49.2284 131.016C50.1087 131.47 50.814 132.05 51.5752 132.673L48.7863 134.014L45.285 132.673L46.2914 131.728C46.3424 127.487 46.7205 122.98 46.2813 118.77C45.5791 118.41 45.0629 118.118 44.5117 117.549L47.6328 115.863Z" fill="black"/>
<path d="M100.755 115.855L100.858 115.892C102.469 116.843 102.511 117.328 103.234 118.966C102.355 121.626 102.843 124.867 102.71 127.662C102.682 128.258 102.365 130.323 102.535 130.783C102.715 131.271 104.418 131.78 104.89 132.804L102.452 133.996L98.9923 132.787L99.8206 131.728C99.8556 127.757 100.558 122.275 99.6116 118.494C98.7462 118.289 98.288 118.161 97.6328 117.548L100.755 115.855Z" fill="black"/>
<path d="M55.226 115.922C56.9656 116.661 56.9065 116.763 57.7128 118.495C57.4487 121.476 57.6268 124.457 57.4568 127.441C57.4247 128.016 57.0166 130.365 57.1796 130.783C57.3767 131.287 59.0293 131.764 59.5205 132.815L57.0166 133.976L53.6934 132.801L54.4297 131.728C54.4547 127.872 55.1919 122.174 54.1666 118.55C53.3683 118.29 52.8071 118.053 52.1328 117.549L55.226 115.922Z" fill="black"/>
<path d="M61.6433 115.246C62.9377 115.461 64.2652 115.942 65.2806 116.808C67.4584 118.665 65.4326 126.681 66.1609 129.601C66.5911 131.322 67.6515 130.708 68.8689 131.492L66.0238 133.985L65.0445 133.447C61.7063 130.838 63.793 123.947 63.1158 120.112C62.8727 118.732 61.8704 118.396 60.788 117.769L59.3694 118.27L59.0273 117.786L61.6433 115.246Z" fill="black"/>
<path d="M107.039 115.273C108.251 115.429 109.74 116.015 110.709 116.782C112.304 118.042 111.514 126.883 111.603 129.305C111.689 131.641 112.99 130.452 114.185 131.528C113.154 132.504 112.248 133.335 110.993 134.01C110.268 133.376 109.064 132.487 108.728 131.567C107.468 128.121 109.63 122.745 108.245 119.367C107.835 118.371 107.086 118.208 106.191 117.768L104.062 118.602L104 118.23L107.039 115.273Z" fill="black"/>
<path d="M118.961 111.994C119.987 112.887 119.511 114.758 119.906 116.127C121.373 116.311 122.24 115.067 123.689 115.449L123.987 116.604L123.216 117.378L120.379 116.964L119.657 117.549C119.637 120.855 118.841 126.551 119.858 129.567C120.58 131.703 121.871 130.424 123.059 131.019L122.281 131.758C121.268 132.811 120.897 133.545 119.433 133.808L116.749 131.386L116.707 117.313C115.636 116.366 115.108 117.459 113.758 117.126C114.443 115.446 117.525 113.27 118.961 111.994Z" fill="black"/>
<path d="M159.968 130.654C158.675 132.056 157.545 133.299 156.694 135.035C157.943 136.646 158.764 135.556 160.219 136.565L156.085 138.581L153.615 137.247C153.234 135.572 155.33 135.489 155.427 133.554L153.484 132.677C153.245 132.533 152.51 131.95 152.401 131.727C152.186 131.289 152.415 129.062 152.418 128.486C152.433 125.243 152.754 121.691 152.227 118.494L151.119 118.079L150.922 117.392L153.72 116.014L155.487 116.646L155.772 117.069C155.25 121.247 155.534 125.627 155.569 129.836C156.473 130.673 157.052 130.802 158.212 131.075L159.479 130.411L159.968 130.654Z" fill="black"/>
<path d="M145.468 115.703L145.852 115.604L146.553 116.604C147.511 118.136 148.662 118.745 150.172 119.657L150.345 120.385C148.779 121.259 147.903 122.19 146.819 123.607L148.88 126.057C148.781 127.492 148.841 127.771 147.943 128.961L147.097 128.657C146.893 127.58 146.967 126.661 147.067 125.584L145.084 123.694C146.002 123.144 146.423 122.683 147.026 121.803C146.007 120.16 144.295 118.746 142.928 117.375L143 122.394C142.987 124.935 142.354 128.983 143.788 130.997C144.686 131.3 145.564 131.617 146.516 131.691L147.116 131.729L144.588 133.123C142.609 134.138 142.032 133.474 140.02 132.82C140.027 131.204 140.266 118.926 139.768 118.508C139.121 117.964 138.625 118.438 137.797 117.549L140.714 116.009C141.407 116.16 142.013 116.332 142.68 116.59L143.315 116.848L145.468 115.703Z" fill="black"/>
<path d="M89.9956 115.809L96.4269 117.379C95.8297 120.332 95.1195 122.091 93.2488 124.464C91.7983 125.044 90.2277 125.733 88.6451 125.693L91.136 124.22C92.2694 123.333 92.3084 121.714 92.5015 120.384C91.5142 118.829 89.3274 118.793 87.5638 118.351C87.5397 120.333 87.1916 123.225 87.7288 125.087C88.1209 126.446 87.5387 128.323 87.3057 129.74C89.4814 130.176 91.6753 130.817 93.8961 130.91L96.2609 128.234L96.571 128.892C95.0984 130.95 93.0147 132.547 91.115 134.197L84.5977 131.74L84.6477 119.513L89.9956 115.809Z" fill="black"/>
<path d="M193.586 119.883L194.163 120.148L194.431 123.084L194.159 127.657C195.165 128.12 196.398 127.652 197.467 127.51C200.781 127.07 203.554 128.002 205.739 130.548L205.361 132.415L203.381 131.096L202.91 131.491L203.046 134.563C202.855 136.451 201.673 137.014 200.307 138.056C199.038 138.262 198.159 138.397 196.969 137.849C195.387 137.122 194.1 136.675 192.765 135.508C191.126 131.824 193.05 124.048 193.586 119.883ZM197.15 129.946C195.549 131.124 194.78 131.443 194.124 133.381L194.661 134.563L198.998 136.298L200.689 135.89L200.872 135.284C199.758 134.59 197.984 134.322 197.784 132.909L197.903 130.782L197.15 129.946Z" fill="url(#paint0_linear_63_2)"/>
<path d="M129.119 115.799L136.235 118.128L136.183 129.971L131.697 133.876C129.393 133.746 127.034 132.587 124.878 131.793L124.844 119.706C126.543 118.588 127.771 117.291 129.119 115.799ZM128.027 118.723C127.48 122.345 127.687 126.136 127.693 129.794L133.006 131.076L133.171 120.004L128.027 118.723Z" fill="black"/>
<path d="M77.1606 115.485C78.5921 115.373 80.0326 115.133 81.2701 116.022C82.8246 117.141 82.7676 118.464 82.7736 120.202C82.7936 125.298 78.47 130.727 75.0868 134.182L70.7293 132.165C70.5192 127.692 71.2364 122.882 70.5432 118.495C69.7669 118.228 69.5668 118.131 68.9336 117.549C69.6789 117.163 71.1344 116.166 71.9047 116.011C72.3469 115.922 73.3152 116.617 73.7964 116.569C74.7537 116.473 76.2122 115.791 77.1606 115.485ZM73.7904 117.165L73.7423 129.837C74.8017 130.634 75.3219 130.855 76.6344 131.043L78.1029 129.747C79.3804 127.135 81.1931 123.729 80.1807 120.754C79.6605 119.223 79.0463 118.429 77.7108 117.549C76.3813 117.319 75.1399 117.194 73.7904 117.165Z" fill="black"/>
<path d="M129.031 16.5156C133.921 19.8064 138.809 23.4772 142.622 28.0059C145.934 31.9387 149.198 37.0524 148.598 42.4C148.262 45.3999 146.141 47.1618 143.965 48.9647C145.775 49.4106 147.938 49.6916 149.547 50.6275C151.619 51.8315 152.881 53.8694 153.367 56.1712C155.414 65.8756 142.627 74.2561 138.412 81.7107C135.471 86.9113 136.105 92.484 140.038 96.8947C141.024 98.0007 142.62 98.8796 143.018 100.344L140.715 103.135L141.188 103.78C141.926 103.74 143.382 103.863 144.025 103.626C145.246 103.176 147.401 100.757 148.458 99.8385C145.21 97.8957 142.03 95.7988 140.387 92.233C139.372 90.0292 139.218 87.2073 140.09 84.9365C141.172 82.1206 143.154 79.9268 146.154 79.1708C147.484 78.8368 148.887 78.9288 150.131 78.3199C148.166 71.6563 153.16 67.7535 155.702 62.2788C160.108 52.7874 158.657 43.92 155.143 34.5205C163.002 42.5161 172.136 54.1023 172.753 65.7946C173.016 70.7813 171.503 73.8321 168.32 77.4409C170.106 78.1969 172.095 78.9478 173.695 80.0537C176.161 81.7586 178.056 84.5875 178.601 87.5443C179.739 93.7169 176.508 98.8856 173.275 103.785L179.023 103.66C179.267 102.824 179.268 103.109 179.233 102.407C179.159 100.936 179.239 99.7225 179.682 98.2986C180.311 96.2788 181.306 95.4978 183.177 94.6059L183.654 94.3889L182.991 92.971C180.296 88.1282 181.305 83.5255 177.11 79.2058L186.497 80.5837C190.858 81.4227 194.184 83.5785 196.661 87.2443L201.787 88.6432C204.202 89.5312 205.888 91.4471 206.962 93.7449C207.746 95.4218 208.79 96.8267 209.875 98.3166L208.131 107.436L207.451 104.836C206.364 109.21 204.927 113.715 205.249 118.256C205.512 121.956 206.945 126.324 206.537 129.938L205.738 130.548C203.553 128.002 200.78 127.07 197.466 127.51C196.396 127.652 195.164 128.12 194.157 127.657L194.43 123.083L194.161 120.147L193.584 119.882L193.839 107.777C178.332 108.387 162.627 107.873 147.1 107.859C120.037 107.836 92.974 107.916 65.9112 107.84C54.9813 107.81 44.0514 107.834 33.1214 107.87C27.0933 107.89 20.3808 107.497 14.4527 108.411C13.2673 108.594 12.469 108.701 11.2776 108.455C8.64962 107.911 6.54284 107.701 3.87488 108.267L1.98922 107.718C3.17965 107.373 4.28303 107.192 5.11733 106.204C3.55677 104.702 1.42301 103.004 1.05788 100.769C0.515688 97.4527 1.26696 94.4849 3.23567 91.7851C5.50049 88.6792 8.40153 88.1623 11.9458 87.5803C13.4914 85.7404 15.0249 83.8585 17.0897 82.5736C21.1451 80.0498 27.2143 79.9018 31.864 79.2898C31.0147 80.2128 29.9293 81.2847 29.3871 82.4266C27.8846 85.5894 28.1446 89.4102 26.346 92.53L25.8498 93.4239L25.6497 93.8279L25.3606 94.3889L26.2369 94.8619C26.9802 95.2388 27.7145 95.5178 28.2967 96.1478C29.5912 97.5467 30.1434 100.008 29.9323 101.85C29.8452 102.616 29.7242 102.978 30.0473 103.715L35.8944 103.714C34.0298 101.295 32.0571 98.4196 31.2458 95.4498C30.2334 91.75 29.8743 87.2403 31.967 83.8405C34.1928 80.2238 37.0218 78.7178 40.9652 77.7209C37.6781 73.9901 36.2746 71.2603 36.4286 66.2856C36.7878 54.7383 45.6139 42.692 53.6878 35.0165L51.263 43.173C49.3083 53.1274 51.8712 60.341 57.2662 68.5265C59.4149 71.7873 59.8101 74.2781 59.0248 78.0719C62.6061 79.0418 66.0413 79.6508 68.1321 83.0456C69.6186 85.4594 70.1198 87.9393 69.3005 90.7321C68.014 95.1138 64.3647 97.6277 60.6623 99.8245L64.8929 103.462C66.0923 103.613 67.2637 103.872 68.4471 103.53C68.063 102.147 66.9316 101.33 65.9192 100.383C67.7579 98.4846 69.7326 96.4267 71.0571 94.1269C72.5596 91.518 72.9188 88.3972 72.1525 85.4884L71.9974 84.9365C70.759 80.3018 67.2517 77.5449 64.2437 74.0661C62.2229 71.7283 60.4753 69.1134 58.7967 66.5206C57.3482 64.2837 55.8846 61.9079 55.6786 59.178C55.4815 56.5772 56.2868 53.4944 58.1815 51.6165C59.8951 49.9166 62.488 49.4236 64.8018 49.5026L65.281 49.5256L65.4761 49.2036C63.8995 48.0337 62.2109 46.6968 61.2526 44.9439C60.0752 42.79 60.3953 39.3752 61.1696 37.1454L61.4106 36.4924C64.5047 27.7949 72.4416 21.8043 79.7743 16.8056C75.6568 22.2613 70.4559 30.7378 75.0925 37.4883C76.7191 39.8572 79.119 42.2161 79.4912 45.2089C79.6652 46.6008 79.2231 48.2237 79.105 49.6396C82.5263 50.0036 85.6524 50.1366 88.7365 51.8905C93.1691 54.4113 95.846 59.59 97.2015 64.3467C102.336 82.3496 79.4231 90.3401 72.3436 103.132L72.6117 103.77L74.5033 103.715C75.8768 103.453 76.5391 101.726 77.3354 100.686C80.1304 97.0287 83.9898 97.8797 87.8642 97.3957C87.9422 86.2114 99.5194 82.4526 104.52 73.8881C108.986 81.0687 120.433 86.3274 121.168 95.1978L121.289 96.7517L121.324 97.3587C123.084 97.3687 124.834 97.3927 126.564 97.7577C129.753 98.4306 131.587 100.143 133.338 102.752L133.702 103.3C134.854 103.685 135.419 103.677 136.582 103.505C136.551 96.2428 113.218 85.6294 111.573 71.7103C110.906 66.0826 112.685 60.215 116.124 55.7202C119.884 50.8075 124.162 50.3036 130.004 49.5146C128.122 41.8321 134.613 39.6892 135.633 32.9596C136.587 26.669 132.607 21.2033 129.031 16.5156ZM194.43 123.083L194.157 127.657C195.164 128.12 196.396 127.652 197.466 127.51C200.78 127.07 203.553 128.002 205.738 130.548L206.537 129.938C206.945 126.324 205.512 121.956 205.249 118.256C204.927 113.715 206.364 109.21 207.451 104.836C207.917 102.781 208.856 100.007 207.634 98.0767L206.926 97.2147L206.102 97.2247L205.165 99.2576L204.325 99.4086C203.133 97.7767 203.283 95.8628 201.724 94.5799C200.346 94.9308 200.568 95.5518 199.595 96.0598C199.194 96.2698 197.506 95.9628 196.995 95.8838C194.344 98.6666 194.852 100.777 194.939 104.379C195.085 110.402 195.633 117.157 194.43 123.083Z" fill="black"/>
</g>
<defs>
<linearGradient id="paint0_linear_63_2" x1="198.319" y1="132.816" x2="197.811" y2="128.021" gradientUnits="userSpaceOnUse">
<stop stop-opacity="0.960784"/>
<stop offset="1"/>
</linearGradient>
<clipPath id="clip0_63_2">
<rect width="210" height="155" fill="white"/>
</clipPath>
</defs>
</svg>
