<svg width="200" height="200" viewBox="0 0 200 200" fill="none" xmlns="http://www.w3.org/2000/svg">
<path d="M80.7952 51.7441H87.424H111.818H118.712L122.159 54.1305L122.689 58.1078L120.568 60.7593L118.182 61.8199V70.0396V74.5472L119.242 79.3199L123.75 82.5017L132.5 85.6835L137.538 90.1911L140.985 97.8805V122.54L138.333 144.547L134.621 156.479L129.053 164.699L118.712 167.35L106.78 168.146L94.3179 168.941L84.7725 168.146L74.6967 166.024L67.0073 160.721L61.9695 152.502L59.3179 137.653L57.9922 126.782V100.797V95.7593L61.174 90.9866L65.9467 86.2138L76.0225 82.7669L80.2649 78.2593V61.8199L77.6134 59.9638L76.8179 57.5775V54.1305L80.7952 51.7441Z" fill="#F2E3E3"/>
<path d="M85.0372 104.506L80.7948 103.711L71.2493 106.628L65.416 113.787V118.294L67.0069 138.181L70.1887 150.908L74.4312 157.802L80.7948 161.249L94.0524 162.575L116.59 161.249L125.075 157.802L130.113 148.787L132.499 137.12L133.295 125.188L130.908 129.165L127.461 130.756H120.037L110.492 124.393L101.742 115.378L91.666 106.628L85.0372 104.506Z" fill="#6CB4E6"/>
<path d="M117.916 117.234L107.31 118.03L105.719 118.825L110.226 123.863L119.507 130.492H124.014H128.787L131.704 127.575L132.764 123.863L130.643 120.681L125.87 118.03L117.916 117.234Z" fill="#02426E"/>
<path d="M87.4241 78.2573L87.9544 62.3482V61.5527H111.553V81.7042L117.651 88.333L125.871 90.4542L131.704 95.227L133.03 100.265L134.356 112.727L133.03 125.189L129.583 119.621L120.303 116.704L106.78 118.03V120.416L96.7044 110.871L89.2802 105.038L81.3256 103.447L73.6362 105.833L67.5377 111.401L65.1514 113.522L66.212 99.9997L68.5983 94.1664L73.6362 90.9845L81.3256 88.333L86.6286 83.8255L87.4241 78.2573Z" fill="#D8CECE"/>
<path d="M118.447 95.2251L115.53 94.4297L113.939 95.2251L113.144 98.1418L115 101.589L119.772 106.362L122.689 109.278L122.159 101.589L120.303 97.6115L118.447 95.2251Z" fill="#F2E3E3"/>
<path d="M85.0371 35.5696L85.8326 33.7135L90.8704 31.5923L100.151 30.7969L111.817 32.3878L114.204 34.7741L111.817 48.8272V51.7438H88.2189L85.0371 35.5696Z" fill="#D5AE3B"/>
<path d="M96.7702 30.1082L99.362 30.0015C101.523 29.976 103.544 30.2828 105.671 30.5967C108.659 31.0377 112.199 31.3544 114.462 33.5648C114.662 34.2126 114.937 34.9505 114.916 35.6343C114.861 37.4334 114.29 39.4366 113.97 41.2153C113.402 44.3682 112.893 47.5215 112.344 50.6763C113.849 50.5297 115.811 50.5353 117.298 50.8075C119.208 51.1569 121.471 51.6413 122.599 53.3665C123.462 54.6859 123.618 56.6669 123.241 58.1784C122.704 60.3281 121.259 61.544 119.454 62.645C119.42 65.3963 119.444 68.1498 119.451 70.9011C119.456 72.9232 119.111 75.9952 119.923 77.8737C121.395 81.2773 124.894 81.6941 128.002 82.7912C130.767 83.7674 134.54 85.2753 136.646 87.3821C139.177 89.914 141.609 93.5666 142.037 97.1934C142.2 98.5776 142.088 100.066 142.123 101.467C142.181 103.861 142.277 106.249 142.299 108.644C142.318 110.829 142.199 112.972 142.148 115.148C142.104 117.049 142.131 118.98 142.001 120.876C141.919 122.081 141.719 123.279 141.635 124.485C141.492 126.515 141.607 128.564 141.442 130.591C141.151 134.151 140.548 137.726 140.052 141.263C139.638 144.213 139.487 147.119 138.704 150.017C137.431 154.735 135.639 159.414 132.154 162.949C130.865 164.256 129.322 165.606 127.651 166.388C126.033 167.144 123.713 167.839 121.952 168.069C120.933 168.202 119.911 168.176 118.886 168.334C117.532 168.543 116.204 168.903 114.853 169.108C110.822 169.719 106.92 169.917 102.848 169.952C98.7285 169.952 94.5001 170.132 90.3965 169.794C87.214 169.532 84.169 168.902 81.0278 168.417C79.6277 168.201 78.1643 168.259 76.7884 167.936C75.0655 167.53 73.0686 167.033 71.4804 166.251C68.4542 164.76 65.765 161.771 64.0398 158.923C63.5114 158.051 63.1319 157.055 62.7283 156.121C61.641 153.605 60.7534 150.888 60.203 148.201C59.7641 146.063 59.6475 143.879 59.339 141.727C58.9392 138.936 58.5829 136.155 58.2716 133.354C58.1726 132.462 57.9851 131.579 57.9169 130.684C57.7756 128.841 57.8751 126.979 57.7525 125.133C57.6606 123.755 57.4434 122.387 57.3626 121.008C57.268 119.394 57.3004 117.772 57.2482 116.156C57.2069 114.878 57.0464 113.603 57.0194 112.327C56.9507 109.128 57.0788 105.919 57.1811 102.723C57.2559 100.386 57.0711 97.993 57.6474 95.7169C58.281 93.2147 59.6294 90.9682 61.2445 88.9873C61.8407 88.2559 62.4395 87.4866 63.1737 86.8877C65.3949 85.0751 68.513 83.7239 71.2077 82.7984C72.8883 82.221 75.0435 81.8509 76.5426 80.9176C77.0821 80.5816 77.6182 80.2274 78.0741 79.782C78.6466 79.2233 79.323 78.3472 79.5386 77.5636C80.094 75.5442 79.89 73.1691 79.8906 71.0848C79.8911 68.267 79.8823 65.4502 79.9318 62.6329C78.987 62.1303 78.1632 61.615 77.4296 60.8187C76.0867 59.3603 75.8887 57.5741 75.9794 55.6822C76.0399 54.4303 76.641 53.2211 77.5797 52.3903C78.2694 51.7806 78.9474 51.5893 79.802 51.3305C82.1381 50.6226 84.5974 50.5094 87.0276 50.6787C86.6063 49.128 86.5134 47.4641 86.2241 45.8791C85.8381 43.7599 85.4449 41.6378 85.0341 39.5236C84.7872 38.2548 84.3962 36.8495 84.3775 35.5625C84.367 34.8205 84.7212 34.0403 84.9829 33.3608C88.04 30.7799 92.968 30.7047 96.7702 30.1082ZM81.4458 52.6477C80.1331 53.0322 78.7539 53.3059 78.0846 54.6529C77.5643 55.7005 77.5539 57.0703 77.9707 58.1439C78.5311 59.5881 79.4759 60.3622 80.8617 60.9617C81.2824 61.1437 81.5041 61.1635 81.6927 61.6282C82.0595 62.5317 81.8978 64.1469 81.9061 65.1406C81.9292 67.8672 81.9237 70.5937 81.944 73.3203C81.9512 74.2766 82.1266 75.4667 82.0155 76.395C81.9165 77.2193 81.6416 78.2191 81.2857 78.9786C80.2926 81.0974 78.4965 82.1583 76.5272 83.207C75.997 83.4896 75.5422 83.8416 74.9692 84.0451C72.1184 85.0548 68.9128 85.4546 66.3474 87.1764C65.1001 88.0134 64.0536 89.1798 63.061 90.2967C62.2933 91.1607 61.1983 92.2611 60.7117 93.3153L60.6077 93.5804L60.5406 93.753C60.0402 95.0657 59.8202 96.6699 59.6195 98.0623C59.4468 99.2595 59.1801 100.476 59.1042 101.683C58.9645 103.891 59.0795 106.168 59.0784 108.383C59.0778 110.284 58.9854 112.21 59.0751 114.108C59.1377 115.433 59.4446 116.734 59.5084 118.057C59.6112 120.172 59.4545 122.344 59.6492 124.445C59.8015 126.094 60.0149 127.82 60.2382 129.463C60.3377 130.2 60.5346 130.921 60.6022 131.663C60.7249 132.999 60.6671 134.35 60.7584 135.688C60.82 136.595 61.0202 137.496 61.1439 138.397C61.2346 139.059 61.2269 139.733 61.3281 140.393C61.5624 141.917 61.9512 143.454 62.2476 144.97C62.8998 148.31 63.6346 151.6 65.0644 154.724L66.7048 158.124C67.1217 158.961 67.8663 159.768 68.5191 160.435C70.4141 162.37 72.4544 163.761 75.0396 164.595C76.5668 165.089 77.8905 165.796 79.4715 166.124C83.7038 167.001 87.9795 167.031 92.2723 167.231C96.2467 167.415 100.147 167.542 104.134 167.44C105.277 167.411 106.405 167.239 107.541 167.196C110.798 167.071 113.999 167.007 117.226 166.488L121.16 165.848C121.788 165.711 122.222 165.206 122.808 164.983C123.778 164.614 124.819 164.463 125.789 164.041C128.335 162.93 131.211 160.518 132.623 158.136C134.329 155.257 135.694 151.48 136.494 148.23C136.821 146.899 136.995 145.535 137.247 144.189C137.792 141.291 138.301 138.412 138.579 135.472C138.706 134.125 138.642 132.763 138.778 131.416C139.036 128.861 139.497 126.323 139.716 123.758C139.878 121.865 139.741 119.95 139.848 118.052C139.931 116.573 140.184 115.105 140.269 113.626C140.393 111.497 140.309 109.328 140.283 107.195C140.262 105.461 140.364 103.686 140.259 101.959C140.11 99.5334 139.64 96.8239 139.017 94.4685C138.563 92.7544 137.34 91.5038 136.184 90.2098C135.125 89.0242 134.011 87.7582 132.625 86.9509C130.093 85.476 127.329 85.0718 124.631 84.1243C123.844 83.8488 123.113 83.3786 122.389 82.97C120.065 81.6556 118.32 80.4029 117.575 77.7011C117.197 76.3312 117.257 62.2441 117.703 61.4725L117.764 61.378L117.814 61.2883C118.052 60.9111 119.002 60.7763 119.417 60.5272C120.958 59.6055 121.956 57.4808 121.609 55.7003C121.423 54.7468 120.94 53.9485 120.106 53.4359C119.406 53.0064 118.174 52.6615 117.356 52.615C115.194 52.492 112.934 52.6571 110.759 52.6748C106.495 52.7096 102.229 52.7042 97.9636 52.7039C94.3263 52.7035 90.6874 52.7113 87.0501 52.6846C85.2084 52.671 83.2727 52.497 81.4458 52.6477ZM95.1985 31.8869C92.7221 32.2767 89.9197 32.4248 87.6325 33.5022C87.1029 33.7516 86.5217 33.991 86.1191 34.4234C85.8507 34.9532 85.9041 35.7159 85.9882 36.2928C86.1109 37.1361 86.459 38.0073 86.6542 38.8473C87.2993 41.6213 87.8706 44.4417 88.2891 47.2569C88.4651 48.4422 88.7269 49.4395 88.6625 50.6583C90.6253 50.4099 92.6859 50.5433 94.6651 50.5471C97.9201 50.5534 101.175 50.5503 104.431 50.5519C106.421 50.5581 108.703 50.3433 110.653 50.6707C110.628 49.2643 110.907 47.9367 111.141 46.5573C111.538 44.2179 111.976 41.8687 112.51 39.5561C112.904 37.8504 113.476 36.1872 113.416 34.4183C112.467 33.8855 111.523 33.3526 110.483 33.018C106.879 31.8582 102.871 31.7896 99.1283 31.7981C97.8343 31.801 96.4826 31.7257 95.1985 31.8869Z" fill="#D5AE3B"/>
<path d="M88.2568 60.3464C90.9746 60.1912 110.455 59.9751 111.604 60.5768C111.889 60.7264 112.188 60.9722 112.292 61.2813C112.697 62.4851 112.6 64.2768 112.613 65.5609C112.642 68.3815 112.651 71.2021 112.648 74.0232C112.646 76.3599 112.329 79.2003 113.043 81.4347C113.557 83.0427 114.517 84.3097 115.761 85.4332C116.627 86.2163 117.78 87.2211 118.84 87.7166C121.319 88.8747 124.14 88.8423 126.645 90.1242C129.299 91.4825 132.299 93.9627 133.195 96.9004C133.41 97.6054 133.672 98.338 133.776 99.0688C133.87 99.7337 133.848 100.416 133.966 101.076C134.574 104.486 135.078 107.923 135.373 111.377C135.655 114.673 135.267 117.976 135.043 121.256C134.526 128.857 133.763 136.473 132.136 143.931C131.451 147.075 130.677 150.298 129.406 153.269C128.76 154.778 127.689 156.262 126.62 157.502C122.741 162 115.708 162.457 110.213 162.904C107.738 163.108 105.243 163.441 102.763 163.522C98.0758 163.674 93.5235 163.27 88.8683 162.868C86.1109 162.63 83.3211 162.424 80.6193 161.78C78.193 161.202 75.4818 160.123 73.606 158.448C72.4622 157.426 71.386 155.892 70.5858 154.597C69.7631 153.267 69.3309 151.736 68.8552 150.257C65.9554 141.244 65.0139 131.376 64.3826 121.972C64.3067 120.843 64.1202 119.717 64.0399 118.583C63.8931 116.503 63.8827 114.372 63.925 112.288C63.9503 111.061 64.1538 109.868 64.305 108.654C64.5794 106.451 64.8456 104.29 65.1723 102.09C65.3543 100.862 65.4076 99.5819 65.7013 98.3748C65.9444 97.3761 66.2787 96.2636 66.7836 95.3689C68.4653 92.3882 72.1405 89.9031 75.4076 89.0435C77.119 88.5937 79.3154 88.4782 80.8343 87.5164C82.714 86.3252 84.8665 84.5715 85.8343 82.5411C86.954 80.1929 86.6746 77.4647 86.6675 74.9372C86.6598 72.2788 86.6559 69.6194 86.6856 66.961C86.7076 65.0137 86.6532 63.0411 87.081 61.1311C87.4418 60.7115 87.7613 60.5515 88.2568 60.3464ZM79.3424 104.911C74.8533 105.405 71.5603 107.889 68.8084 111.33C67.9318 112.426 67.1234 113.704 66.8072 115.086C66.4267 116.747 66.6791 118.912 66.6956 120.627C66.717 122.867 66.5916 125.248 66.8347 127.471C66.9304 128.344 67.113 129.209 67.1938 130.083C67.2868 131.088 67.256 132.106 67.3698 133.108C67.4457 133.783 67.6662 134.431 67.7608 135.102C67.8625 135.829 67.8416 136.573 67.9406 137.301C68.1633 138.948 68.5483 140.62 68.8722 142.251C69.5926 145.879 70.3576 149.829 72.069 153.159C72.8521 154.683 74.4232 156.6 75.7722 157.665C77.3681 158.925 79.5409 159.617 81.5014 160.049C85.9069 161.022 90.1744 160.945 94.6426 160.979C97.9389 161.004 101.188 161.029 104.486 160.979C107.348 160.935 110.302 161.147 113.154 160.79C115.625 160.48 118.103 160.084 120.462 159.266C121.367 158.851 122.388 158.465 123.211 157.907C125.244 156.531 127.035 153.902 127.881 151.635C130.546 144.489 131.654 136.681 132.295 129.108C130.999 130.765 129.179 132.116 127.036 132.378C120.751 133.146 114.617 129.002 109.875 125.297C107.053 123.092 104.608 120.088 102.157 117.481C100.376 115.584 98.3173 113.849 96.3633 112.132C94.7834 110.744 93.2788 109.224 91.5344 108.035C90.7502 107.501 89.7988 107.193 88.931 106.815C87.736 106.295 86.5982 105.708 85.3306 105.363C83.4454 104.849 81.2842 104.838 79.3424 104.911ZM88.6791 62.0919C88.7028 66.5606 88.6835 71.0294 88.6813 75.4976C88.6802 76.8609 88.6802 78.2247 88.6698 79.588C88.6648 80.3051 88.7154 81.0866 88.5823 81.7932C88.2568 83.5255 87.4286 85.2771 86.1918 86.5331C84.5018 88.2505 82.4313 89.043 80.2058 89.8052C78.4119 90.4189 76.5234 90.778 74.7763 91.5171C73.4267 92.0885 72.0382 93.0355 70.8987 93.9533C70.0403 94.6452 69.1758 95.447 68.6891 96.4566C68.1237 97.6307 67.9874 99.1662 67.736 100.434C67.4809 101.72 66.9788 103.038 66.7841 104.311C66.4432 106.54 66.458 108.897 66.232 111.152C68.6808 107.096 72.6552 103.995 77.2548 102.856C80.7458 101.991 83.7182 101.921 87.0667 103.375C88.0731 103.811 89.0162 104.419 89.9874 104.929C90.8981 105.408 91.8852 105.736 92.7701 106.265C95.3432 107.805 97.8586 110.182 99.9594 112.311C101.148 113.516 102.449 115.253 103.931 116.073C104.825 116.567 106.268 116.724 107.27 116.919C109.055 116.974 110.69 116.633 112.447 116.407C117.266 115.788 121.776 115.388 126.489 116.803C128.273 117.339 129.972 118.082 131.262 119.461C131.786 120.023 132.214 120.681 132.644 121.316C132.711 115.765 133.305 110.072 132.596 104.546C132.438 103.313 131.923 102.063 131.677 100.829C131.219 98.5288 131.128 96.5534 129.404 94.7777C127.947 93.2758 125.631 91.9004 123.687 91.1789C122.583 90.7687 121.409 90.5229 120.283 90.177C115.98 88.856 112.057 87.1688 110.871 82.3822C110.614 81.3472 110.68 80.2441 110.676 79.1849C110.669 77.4917 110.675 75.799 110.674 74.1057C110.673 70.1259 110.538 66.1003 110.718 62.1254C109.114 62.2613 107.469 62.198 105.858 62.2002C103.151 62.2041 100.444 62.2052 97.7365 62.2079C95.7925 62.2096 93.848 62.2112 91.9034 62.2107C90.8684 62.2107 89.6872 62.3223 88.6791 62.0919ZM116.346 118.246C113.872 118.47 111.596 118.682 109.194 119.378C108.701 119.521 108.345 119.565 107.841 119.463L107.81 119.674C109.201 120.948 110.656 122.141 112.058 123.398C114.806 125.863 117.363 128.307 121.017 129.384C121.714 129.59 122.469 129.651 123.189 129.749C124.952 129.939 128.153 130.2 129.603 129.045C130.683 128.184 131.49 126.833 131.615 125.447C131.725 124.234 130.936 122.745 130.152 121.834C127.896 119.216 123.837 118.399 120.538 118.195L116.346 118.246Z" fill="#D5AE3B"/>
<path d="M115.009 93.7606C115.438 93.6941 115.879 93.6853 116.31 93.7342C118.065 93.9344 119.721 95.1976 120.766 96.5587C123.222 99.7571 123.839 103.561 123.868 107.497C123.874 108.288 123.961 109.221 123.823 109.988C123.717 110.577 123.52 110.994 123.034 111.327C122.545 111.415 122.263 111.214 121.86 110.98C121.06 109.878 120.498 108.615 119.606 107.571C119.126 107.009 118.484 106.599 117.967 106.074C117.512 105.613 117.195 105.035 116.763 104.556C115.379 103.027 113.671 102.01 112.932 99.9798C112.451 98.6589 112.362 96.6467 113.029 95.3648C113.477 94.5019 114.103 94.0565 115.009 93.7606ZM115.08 95.5303C114.577 96.1099 114.318 97.107 114.359 97.8796C114.505 100.649 116.706 101.828 118.447 103.626C119.142 104.344 119.704 105.183 120.353 105.941C120.819 106.487 121.352 106.95 121.782 107.53L121.934 107.761C122.149 107.523 122.091 107.263 122.078 106.952C121.931 103.349 121.333 99.1802 118.46 96.6461C117.524 95.8207 116.551 95.4016 115.302 95.5078L115.08 95.5303Z" fill="#D5AE3B"/>
</svg>
