<svg width="200" height="200" viewBox="0 0 200 200" fill="none" xmlns="http://www.w3.org/2000/svg">
<g clip-path="url(#clip0_202_53)">
<path d="M123.91 47.2549L134.164 48.9902L150.728 66.1854L154.041 86.8513L155.303 101.049L154.672 113.985L152.937 129.603L148.835 140.33L145.207 148.06L142.052 153.739L138.108 158.945L131.64 165.413L122.805 171.723L111.132 175.825L96.9337 177.718L83.9979 176.456L73.1128 173.143L60.177 168.095L54.34 163.52L33.6742 142.854L26.102 126.132L24.0512 118.087L22.0004 107.202L22.7891 92.8459L26.8908 79.2791L32.0967 70.6026L41.2464 61.4528L47.0833 56.8779L59.8614 50.41L71.3775 47.4126L86.522 44.8886L98.8268 44.5731L110.343 45.3618L123.91 47.2549Z" fill="#F2E3E3"/>
<path d="M211.464 -47.5555L216.354 -47.7133L223.137 -45.6625L232.918 -39.6678L240.333 -31.6223L245.223 -23.5769L248.063 -16.0047L247.589 -12.3763L244.907 -9.69447L233.707 -8.9057L233.076 -14.9004L229.921 -21.2105L227.397 -25.6277L222.506 -29.256L218.878 -31.3068L212.252 -33.8309L208.466 -34.1464L208.782 -37.3015L209.413 -45.5047L211.464 -47.5555Z" fill="#F2E3E3"/>
<path d="M106.557 71.8657L111.763 71.7079L203.418 -16.4768L209.255 -15.057L216.196 -8.11582L216.196 -3.6987L130.851 84.8016L128.169 86.5369L128.011 90.7962L125.645 97.5797L120.912 102.943L114.287 105.783L108.608 106.098L101.824 103.732L96.776 99.315L94.4097 93.4781L94.0942 85.5903L96.145 79.4379L101.193 74.3898L106.557 71.8657Z" fill="#030115"/>
<path d="M238.282 -9.06235L234.022 -8.9046L233.076 -14.2682L230.079 -20.7362L226.292 -25.7843L222.349 -29.0972L215.881 -33.041L208.782 -34.1453L208.466 -35.7229L208.782 -42.6641L211.148 -46.9234L213.83 -43.2951L214.934 -38.0892L215.25 -33.9876L216.038 -33.5143L220.456 -41.0865L222.664 -43.2951L224.399 -43.7683L225.346 -39.6667L222.664 -30.0437L223.611 -29.4127L232.287 -35.2496L235.442 -36.1961L234.653 -31.3057L229.132 -23.8913L229.605 -23.1025L238.913 -25.4688L242.383 -25.4688L243.645 -23.8913L239.702 -19.9474L233.549 -16.6346L234.496 -15.688L236.547 -15.5303L241.595 -14.5838L245.696 -13.0062L246.327 -10.7976L242.857 -8.90459L238.282 -9.06235Z" fill="#030115"/>
<path d="M246.643 -37.3004L238.282 -34.6186L234.18 -38.7202L235.284 -43.2951L237.809 -47.7122L241.279 -51.1828L244.907 -50.7095L249.956 -46.2924L250.587 -41.8753L246.643 -37.3004Z" fill="#030115"/>
<path d="M207.992 -27.6785L208.781 -34.1464L215.407 -33.1999L219.666 -30.8336L224.083 -28.3095L226.134 -26.2587L230.866 -19.633L233.864 -11.9031L234.337 -8.59022L228.185 -8.43247L221.086 -6.06615L216.826 -4.33085L215.091 -8.59022L211.463 -13.1651L204.679 -17.74L207.992 -27.6785Z" fill="#6E1702"/>
<path d="M113.497 71.2335L129.746 54.9848L126.275 54.6693L121.069 53.2495L116.179 51.8297L108.134 51.041L101.35 50.2522L95.0399 49.9367L85.1014 50.4099L78.7912 51.041L75.9516 51.672L70.9035 52.934L64.9088 54.8271L59.7029 56.8779L53.5505 59.2442L48.0291 62.8726L43.9274 66.0276L41.5611 68.7095L39.8258 70.4448L36.9862 74.5464L33.0424 79.7523L30.9916 85.2737L28.6253 92.6881L28.152 99.7871L28.6253 107.202L29.0985 113.669L31.9381 123.45L35.0932 130.707L40.1413 139.541L48.1868 150.742L56.2323 156.894L64.5933 162.1L73.5853 166.359L79.7377 169.041L90.465 170.934L99.457 171.723L107.029 171.092L118.072 167.622L123.12 164.782L127.064 161.785L133.059 156.421L137.318 150.584L141.735 143.327L145.679 133.389L148.676 120.926L148.834 117.298L149.781 110.988L149.465 104.993L149.465 99.6294L148.676 89.3753L147.414 82.1186L145.679 74.0731L144.89 70.1293L128.168 86.8512L126.275 96.632L122.331 101.207L117.757 104.204L113.655 106.097L106.556 105.624L100.088 102.627L95.6709 96.3165L93.6201 89.2176L95.1976 83.5384L99.457 76.1239L106.556 72.1801L113.497 71.2335Z" fill="#6E1702"/>
<path d="M248.632 -50.0906C250.011 -48.8937 251.061 -47.1717 251.516 -45.4047C251.961 -43.6738 251.813 -41.8339 250.895 -40.2817C248.594 -36.3933 243.524 -35.0592 239.461 -33.9797C243.131 -29.8163 247.878 -21.2577 248.501 -15.7418C248.755 -13.4883 248.278 -11.6993 246.851 -9.94769C246.305 -9.27946 245.675 -8.82021 244.843 -8.57897C242.517 -7.90427 234.917 -8.21632 231.767 -7.91965C226.604 -7.43301 221.501 -5.98942 217.226 -2.99076C213.788 -0.579339 210.982 2.5952 208.086 5.60507L199.84 14.1996L181.447 33.3494L163.708 51.7758C160.512 55.0573 156.399 58.864 153.57 62.3307C152.467 63.683 151.819 66.0697 151.788 67.8045C151.74 70.4405 153.174 75.3044 153.716 78.106C154.632 82.8388 155.328 87.5896 155.809 92.3865C158.085 115.112 154.721 140.312 139.832 158.494C130.368 170.053 117.624 176.947 102.733 178.412C89.1245 179.751 75.8276 176.279 63.5097 170.709C61.5516 169.823 58.0794 168.479 56.4795 167.166C55.799 167.517 54.9904 167.836 54.2491 168.021C53.4273 168.225 52.5133 168.276 51.7681 167.815C50.3165 166.916 42.711 159.778 42.4668 158.673C42.2897 158.636 42.1366 158.581 41.9805 158.486C40.5148 157.589 31.9895 148.582 31.7005 147.391C31.3279 145.853 31.9712 144.614 32.8023 143.366C32.7811 143.352 32.7593 143.339 32.7385 143.324C31.8927 142.707 31.0979 140.525 30.626 139.554C26.5394 131.15 23.2935 122.344 21.8708 113.079C19.5805 98.1621 22.2687 82.6692 31.3172 70.3664C49.4186 45.7548 82.9801 40.8213 111.341 44.3871C115.452 44.9042 119.575 45.5645 123.634 46.3946C125.913 46.8607 128.229 47.5828 130.529 47.8654C131.482 47.9829 132.429 47.9631 133.376 47.8122C134.939 47.5623 136.325 47.0286 137.573 46.0534C140.882 43.4702 144.602 39.3685 147.697 36.3663L165.668 19.0769L186.258 -0.682183C190.768 -4.96424 195.462 -9.18448 199.718 -13.7151C201.457 -15.5669 203.024 -17.5641 204.25 -19.7954C206.151 -23.2538 207.134 -27.2684 207.605 -31.1647C207.964 -34.1368 207.964 -37.1851 208.02 -40.1754C208.045 -41.5226 207.972 -42.9562 208.179 -44.2855C208.292 -45.013 208.508 -45.6691 208.949 -46.2656C209.925 -47.5842 211.697 -48.4873 213.299 -48.7165C219.488 -49.6023 229.016 -43.3693 233.761 -39.7731C234.491 -42.4993 235.234 -45.2507 236.749 -47.6648C237.953 -49.5841 239.709 -51.354 241.994 -51.8467C244.453 -52.3775 246.605 -51.3704 248.632 -50.0906ZM143.56 72.6578L134.667 82.0254C133.006 83.7711 131.304 85.7888 129.401 87.267C129.394 87.3022 129.387 87.3375 129.38 87.3734C129.107 88.8615 129.25 90.4646 129.029 91.988C128.321 96.8781 125.446 101.137 121.432 103.954C117.463 106.739 112.545 107.8 107.777 106.951C103.163 106.128 98.7731 103.425 96.0929 99.5721C93.2013 95.4156 91.8919 90.5008 92.7995 85.4732C93.6668 80.6687 96.5879 76.3379 100.601 73.5827C103.413 71.6525 106.306 70.8096 109.68 70.5495C110.543 70.4831 111.786 70.5847 112.585 70.3005C114.157 68.3392 116.192 66.6051 118.014 64.8757L127.121 56.2664C123.834 54.482 120.381 53.6612 116.737 52.9468C113.963 52.4028 111.152 51.9379 108.349 51.5746C106.724 51.3641 100.957 51.2036 100.087 50.6276L100.138 50.7609C100.495 51.6682 101.307 52.1285 101.067 53.1742C100.77 53.4859 100.528 53.5683 100.115 53.6705C97.5932 53.2706 97.4628 50.947 92.6023 50.7472C90.0296 50.6414 87.388 50.8549 84.8234 51.0909C83.0487 51.2539 78.0264 52.2334 76.8067 51.9543C76.8164 51.9825 76.8246 52.0113 76.8356 52.039C77.2254 53.0252 78.467 53.1302 78.3857 54.3586C78.0544 54.6718 77.9502 54.7823 77.4667 54.762C75.2443 54.6682 73.2908 53.4221 70.76 53.5855C69.1939 53.6866 67.4077 54.3756 65.9296 54.8691C58.0581 57.4974 50.6636 61.3927 44.3468 66.8098C43.136 67.848 41.1304 69.4485 40.462 70.892C41.4678 70.4593 42.2873 69.6763 43.2993 69.2203C48.6124 66.8266 54.999 65.6404 60.5635 67.866C61.7016 68.321 62.7976 68.8833 63.8209 69.5587C65.0296 70.3567 67.0684 72.3346 68.3642 72.6552C68.3924 72.6622 68.4206 72.6699 68.4486 72.6774C68.5915 73.0388 68.7395 73.2874 68.9993 73.5767L68.9831 73.736L68.4285 73.589L68.2398 73.7072L68.2583 74.0845C68.6355 74.4265 68.8766 74.574 69.3628 74.7251C69.5716 75.2819 69.7611 75.9807 70.3076 76.3023C69.7686 76.2657 69.4499 76.2616 69.0808 75.8181C68.8805 75.5781 68.7006 75.3169 68.5212 75.0611C68.4389 75.0372 68.4372 75.0387 68.3468 75.0015C67.8545 74.7988 67.3703 74.0647 66.9858 73.6654C66.1165 72.7641 65.2069 71.9198 64.2141 71.1552C63.643 70.7155 62.8916 70.2953 62.3895 69.7958C62.1423 69.5498 62.0047 69.2104 61.8705 68.8936C61.9563 70.3634 63.0089 71.4589 63.1385 72.936C63.2587 74.305 62.6574 75.6451 61.7663 76.6577C60.8773 77.6678 59.6082 78.4402 58.238 78.4963C57.3577 78.5322 56.4946 78.2489 55.8459 77.6438C55.2767 77.1124 54.6659 76.0781 54.6803 75.2819C54.6921 74.6222 55.3111 73.7118 55.8055 73.2944C56.0781 73.0641 56.1018 73.039 56.4551 73.0598C57.0835 73.6889 56.9982 74.7754 57.5229 75.4975C57.693 75.7317 57.9625 75.9224 58.252 75.9556C58.916 76.0307 59.603 75.4997 60.0942 75.1067C60.7424 74.5881 61.37 73.8996 61.4283 73.0308C61.4848 72.1909 60.9381 71.3956 60.3839 70.8158C58.6609 69.0133 56.0074 68.4229 53.6007 68.3588C48.0447 68.2113 42.8836 70.1868 38.8513 74.0387C37.5336 75.2975 36.1343 76.6597 35.0805 78.151C30.7597 84.2659 28.9076 93.2833 28.7626 100.645C28.4733 115.342 34.0786 129.868 42.5604 141.696C44.2007 143.982 45.8384 146.269 47.7988 148.297C49.4355 149.991 51.113 151.746 52.901 153.278C64.951 163.6 81.3453 170.75 97.3055 171.001C106.16 171.141 117.565 168.916 124.131 162.529C128.461 158.317 131.356 153.371 131.423 147.182C131.449 144.733 131.159 141.591 129.342 139.786C128.766 139.214 127.888 138.831 127.394 138.288C127.361 138.252 127.33 138.214 127.298 138.177C126.763 138.375 126.159 138.553 125.67 138.846C124.903 139.304 124.086 139.967 123.9 140.889C123.747 141.642 124.075 142.137 124.471 142.731C124.758 142.86 125.61 142.643 125.978 142.62C126.356 142.803 126.422 142.827 126.637 143.183C126.642 143.616 126.505 143.913 126.197 144.221C125.683 144.738 124.97 145.045 124.239 145.034C123.537 145.023 122.909 144.681 122.432 144.178C121.831 143.543 121.096 142.178 121.167 141.292C121.272 139.978 122.325 138.691 123.267 137.851C124.934 136.364 126.888 136.341 128.861 137.27C129.465 137.555 130.017 137.958 130.704 137.983C130.741 137.984 130.779 137.982 130.816 137.982C130.714 137.932 130.615 137.881 130.518 137.823C129.639 137.298 128.131 135.167 127.876 134.171C127.245 132.718 125.352 132.138 124.631 130.739C124.533 130.548 124.651 130.37 124.714 130.171C124.948 130.539 125.231 130.779 125.614 130.978C125.435 130.591 125.269 130.233 125.189 129.81C125.183 129.781 125.179 129.751 125.173 129.721C125.044 129.34 124.874 128.996 124.991 128.593L125.361 128.567C125.59 128.942 125.755 129.421 126.207 129.543C126.302 129.569 126.337 129.567 126.427 129.573C126.218 131.36 129.519 134.78 130.486 136.419C131.372 137.919 132.098 139.569 132.538 141.256C133.807 146.116 132.645 152.287 130.453 156.728C130.043 157.558 129.471 158.35 128.999 159.154L129.029 159.054L129.239 159.217C135.457 153.888 139.941 146.082 143.119 138.642C143.964 136.666 144.378 134.341 145.423 132.481L145.488 132.366C146.036 131.921 146.349 130.755 146.459 130.052L146.742 129.98C146.726 130.802 145.434 133.142 146.065 133.676C146.098 133.703 146.138 133.718 146.174 133.738C147.262 130.095 148.005 126.497 148.834 122.796L148.423 122.622L148.239 121.531L147.953 121.655C147.644 120.851 148.252 118.574 148.368 117.64C148.766 114.457 149.108 111.097 149.082 107.889C149.07 106.383 148.839 104.812 148.239 103.426C147.775 102.35 145.948 100.62 146.133 99.5064C146.381 99.0614 146.595 98.8673 147.011 98.595C147.463 98.5588 147.69 98.7519 148.029 99.0358C148.407 99.3523 148.636 99.5958 149.151 99.6749C148.991 99.4757 148.892 99.2914 148.854 99.0384C148.531 96.8733 148.544 94.6051 148.332 92.4201C148.036 89.3776 147.451 86.2623 146.871 83.2605C146.148 79.5208 145.246 76.0903 143.56 72.6578ZM149.352 66.8662C147.794 68.6699 146.857 69.9501 146.764 72.4563C146.66 75.2237 147.553 77.9837 148.031 80.6889C148.602 83.9243 149.043 87.1866 149.414 90.4502C150.352 98.6859 150.523 106.845 149.8 115.107C149.575 117.685 149.069 120.225 148.834 122.796C148.005 126.497 147.262 130.095 146.174 133.738C142.293 146.425 134.438 158.847 122.834 165.746C110.909 172.836 96.8583 173.959 83.5674 170.581C71.0035 167.388 63.0971 162.433 52.4275 155.481C51.4494 154.844 48.0349 152.987 47.578 152.22C47.4409 152.145 47.3355 152.094 47.2343 151.972C46.5528 151.148 46.0393 149.965 45.4639 149.047C44.5438 147.582 43.5375 146.16 42.5876 144.712C40.5059 141.54 38.4097 138.379 36.589 135.047C30.4219 123.759 26.405 110.457 27.4755 97.5141C28.4898 85.2528 34.0874 73.7376 43.5294 65.7585C60.7766 51.1834 85.0308 47.8602 106.864 50.0605C110.837 50.461 114.831 50.9518 118.765 51.6445C121.092 52.0542 123.451 52.7859 125.806 52.9599C128.889 53.1883 130.595 52.4386 132.883 50.4495C113.161 45.4901 92.2952 43.7418 72.2963 48.1916C56.0804 51.7996 40.289 60.0494 31.1865 74.4255C23.0926 87.2088 21.7457 102.885 25.0057 117.427C26.5281 124.219 28.8662 130.757 31.9584 136.99C32.7702 138.627 33.5804 140.358 34.753 141.771C36.2286 143.548 38.3924 145.031 40.0923 146.634C43.4007 149.754 46.5807 153.036 49.7863 156.262C51.1264 157.61 52.4778 158.951 53.7621 160.352C55.2653 161.992 56.8745 164.426 58.7448 165.599C61.5263 167.343 64.6371 168.773 67.6601 170.051C80.7401 175.582 95.76 178.258 109.769 175.05C123.427 171.922 134.69 163.286 142.069 151.492C153.621 133.028 155.704 109.101 153.247 87.9266C152.416 80.7641 150.972 73.8781 149.352 66.8662ZM121.05 76.3116C121.022 76.3052 120.995 76.2998 120.968 76.2927C119.71 75.9676 118.317 74.7716 117.081 74.2004C112.685 72.1696 107.24 72.6796 103.082 75.0369C99.3309 77.1625 96.6846 80.431 95.539 84.6015C94.4177 88.6818 94.8829 93.256 97.0092 96.9418C97.7627 98.2483 99.5138 100.583 100.917 101.114C101.16 101.885 102.37 102.511 103.044 102.865C106.944 104.913 111.514 105.392 115.728 104.069C119.804 102.789 123.064 99.9248 125.018 96.1396C127.053 92.1997 127.307 87.7492 125.94 83.5491C125.224 81.351 123.912 79.5781 122.386 77.8795C121.949 77.3929 121.321 76.904 121.05 76.3116ZM224.106 -27.2367C220.038 -30.3971 214.647 -33.5134 209.321 -33.3884C209.264 -28.2827 207.939 -22.9213 205.679 -18.3576C209.277 -18.1212 212.667 -16.2701 215.025 -13.5543C215.231 -13.3172 215.423 -13.0715 215.607 -12.8178C216.889 -10.6002 218.045 -8.54822 218.151 -5.92054C222.933 -8.15769 227.936 -9.27802 233.2 -9.62466C232.89 -16.0394 229.317 -22.5381 224.601 -26.809C224.439 -26.9551 224.274 -27.0973 224.106 -27.2367ZM245.303 -49.422C243.898 -49.8811 242.51 -49.9469 241.161 -49.2677C238.716 -48.0368 237.259 -44.9292 236.456 -42.4228C236.022 -41.069 235.804 -39.6039 235.29 -38.2877C236.21 -37.3791 237.143 -36.4805 238.01 -35.5213L239.288 -35.9062C242.654 -36.6001 246.953 -38.074 248.903 -41.1053C249.51 -42.0496 249.809 -43.1124 249.548 -44.2242C249.433 -44.7145 249.171 -45.3944 248.744 -45.6788C248.5 -45.8417 248.116 -45.9134 247.833 -45.9999C246.062 -46.5401 245.889 -47.2742 245.47 -48.9503C245.427 -49.1221 245.387 -49.2642 245.303 -49.422ZM195.52 -7.1591C193.565 -5.26059 191.616 -3.36144 189.575 -1.55359L201.319 10.2399C203.075 8.20328 204.942 6.09235 206.94 4.29476L195.52 -7.1591ZM189.032 -0.951938C187.197 0.856229 185.387 2.71502 183.439 4.40208L195.371 16.3432C197.101 14.4438 198.893 12.6055 200.721 10.8008C198.773 8.70817 196.713 6.77442 194.689 4.75897C192.789 2.86591 190.967 0.910692 189.032 -0.951938ZM202.032 -13.4182C200.163 -11.578 198.282 -9.42443 196.19 -7.85622L207.546 3.50441C209.549 1.7475 211.26 -0.364697 213.229 -2.17094C209.498 -5.91382 205.677 -9.59327 202.032 -13.4182ZM177.19 10.4141C175.581 11.9561 173.987 13.5198 172.333 15.0134C175.124 17.9076 178.01 20.7099 180.846 23.5602C182.126 24.8471 183.546 26.12 184.703 27.5107C186.232 25.8524 187.771 24.2141 189.37 22.6231C185.327 18.5422 181.168 14.5556 177.19 10.4141ZM185.845 8.24588C184.782 7.28446 183.702 6.33583 182.685 5.32571C181.033 6.74527 179.54 8.34295 177.853 9.71894L187.071 18.9738L190.015 21.9148C191.456 20.2879 193.089 18.7985 194.481 17.1419C192.502 14.9836 190.44 12.995 188.386 10.9197C187.522 10.0467 186.759 9.06571 185.845 8.24588ZM171.704 15.7118C170.179 17.1996 168.67 18.7217 167.062 20.1194C171.22 24.2551 175.521 28.3174 179.509 32.6158C180.252 32.3986 183.225 28.9722 184.088 28.1495L171.704 15.7118ZM148.794 37.7763C147.738 38.1575 145.819 40.5629 144.774 41.3628C149.234 45.8659 153.644 50.412 158.229 54.7895L158.469 54.8046C159.707 53.6131 160.802 52.2637 162.063 51.1005C159.201 48.1284 156.301 45.1983 153.371 42.2935C151.86 40.7958 150.214 39.3503 148.794 37.7763ZM144.081 42.0468C142.901 43.3844 141.521 44.6319 140.188 45.8182C143.686 49.1366 147.005 52.6552 150.435 56.0476C151.605 57.2051 152.738 58.4818 153.984 59.5547C155.185 58.2498 156.37 56.9325 157.697 55.7516C155.491 53.9684 153.613 51.6195 151.602 49.603C149.937 47.9339 145.13 43.7364 144.081 42.0468ZM135.141 50.8022C133.916 51.9706 132.711 53.2521 131.364 54.2782C134.524 57.3509 137.629 60.4802 140.745 63.5971C142.278 65.1307 144.138 66.6932 145.422 68.427C146.568 67.1487 147.753 65.9163 148.951 64.6883C146.35 62.1558 143.815 59.563 141.228 57.0183C139.181 55.0038 136.982 53.0038 135.141 50.8022ZM155.954 35.9931C155.031 35.138 154.094 34.3185 153.114 33.5282C151.932 34.6732 150.771 35.8736 149.507 36.9273C151.488 39.2782 153.823 41.3138 156.017 43.4587C157.398 44.8094 158.667 46.2715 160.047 47.6235C160.958 48.5228 161.864 49.4281 162.799 50.3021C163.931 49.0831 165.056 47.8638 166.257 46.7123C163.241 42.824 159.39 39.5149 155.954 35.9931ZM166.625 20.6125C165.306 21.861 163.983 23.1014 162.627 24.3089C164.378 26.6752 166.731 28.7438 168.806 30.8326C170.846 32.8852 172.897 35.2338 175.202 36.976L175.483 37.0205C176.77 35.8419 177.881 34.4781 179.128 33.2575C176.615 31.0629 174.298 28.6063 171.936 26.2497C170.172 24.4899 168.003 22.6869 166.625 20.6125ZM126.345 59.1254C125.193 60.239 124.054 61.3686 122.887 62.4669C123.03 62.7078 137.046 76.7547 137.325 76.9053C138.406 75.7734 139.477 74.6278 140.605 73.5417C138.467 72.159 135.445 68.5382 133.507 66.6057C131.425 64.5284 129.147 62.5386 127.188 60.3572C126.839 59.9693 126.555 59.6076 126.345 59.1254ZM157.564 29.1872C156.379 30.3408 155.218 31.5819 153.948 32.6388L162.983 41.6387C164.338 43.0073 165.813 44.3483 167.076 45.7958C168.282 44.6505 169.405 43.4215 170.604 42.2698C166.272 37.9124 161.76 33.6675 157.564 29.1872ZM139.448 46.7396C138.136 47.6408 137.144 48.9979 135.886 49.9875C138.705 52.3457 141.287 55.2143 143.878 57.8279C145.734 59.7005 147.808 61.5154 149.493 63.5395L149.758 63.7182C150.957 62.9705 152.107 61.474 153.11 60.4514L143.17 50.5167C141.948 49.2705 140.572 48.0714 139.448 46.7396ZM162.798 26.0786C162.491 25.7724 162.192 25.452 161.857 25.1768C160.636 26.2276 159.46 27.3316 158.277 28.4256C162.302 32.5975 166.485 36.5957 170.542 40.7285L171.042 41.2513C171.658 41.2247 172.117 40.748 172.525 40.3037C173.234 39.5326 173.883 38.7441 174.644 38.0188C170.858 33.927 166.862 29.8968 162.798 26.0786ZM130.388 55.2342C129.317 56.3411 128.194 57.3685 127.033 58.3805C131.904 63.0768 136.736 67.7914 141.362 72.7315C142.395 71.6096 143.409 70.4575 144.526 69.4195L134.956 59.7991C133.464 58.3113 131.728 56.8521 130.388 55.2342ZM122.014 63.387C121.041 64.3602 120.066 65.3284 119.072 66.2812C119.316 67.1875 120.99 68.4174 121.701 69.0927C124.027 71.3046 126.313 73.5549 128.55 75.857C129.602 76.9386 131.986 79.8174 133.147 80.5216C133.191 80.5485 133.237 80.5722 133.283 80.5959L133.565 80.6155L136.533 77.72C136.184 77.6383 135.967 77.5092 135.704 77.2718C133.206 75.0135 130.908 72.4425 128.514 70.0635C127.209 68.766 122.947 64.8949 122.171 63.6644C122.114 63.5731 122.063 63.4821 122.014 63.387ZM236.376 -34.924C236.109 -30.6702 232.148 -27.3111 229.993 -23.8786C231.884 -24.4888 233.801 -24.9506 235.732 -25.4155C238.115 -25.9608 240.52 -26.6286 242.901 -25.7117C241.384 -28.959 238.926 -32.3914 236.376 -34.924ZM233.324 -37.8802C230.946 -39.8423 228.23 -41.8251 225.434 -43.1342C226.501 -40.2077 225.518 -37.7305 224.939 -34.841C224.555 -33.277 224.184 -31.7087 223.725 -30.1648C226.849 -32.6207 230.566 -36.0629 234.623 -36.6708C234.196 -37.0714 233.776 -37.5109 233.324 -37.8802ZM210.483 -12.4747C208.686 -13.8247 205.746 -14.8611 203.449 -14.5513C203.174 -14.5138 203.011 -14.461 202.795 -14.2896L202.773 -14.0608C204.807 -11.7619 207.124 -9.69482 209.278 -7.50638C210.556 -6.19446 212.314 -3.94995 213.822 -3.03978C213.942 -3.06029 214.05 -3.03946 214.12 -3.14551C214.708 -4.03261 214.244 -5.8491 214.018 -6.83232C213.482 -9.16717 212.344 -10.9808 210.483 -12.4747ZM117.897 67.5508L114.716 70.6286C115.335 71.2094 117.799 71.8011 118.745 72.2365C120.372 72.9852 121.987 74.0101 123.318 75.2125C124.857 76.6025 126.096 78.3479 127.068 80.1705C127.403 80.7994 127.982 82.5553 128.49 82.9202C128.537 83.6228 128.653 84.5426 129.168 85.0564C130.236 83.973 131.296 82.8802 132.398 81.831C132.079 81.7608 131.87 81.6535 131.627 81.4385C128.563 78.7199 125.738 75.577 122.831 72.6761C121.689 71.5365 118.853 69.0633 118.063 67.8388C118.002 67.7456 117.947 67.6498 117.897 67.5508ZM242.184 -24.4949C238.881 -25.3039 233.466 -23.347 230.205 -22.2652C230.62 -21.5024 231.051 -20.7441 231.439 -19.9678L232.668 -17.1982C234.732 -18.2086 241.839 -21.3476 242.459 -23.5981C242.501 -23.7504 242.505 -23.9096 242.501 -24.0663L242.184 -24.4949ZM222.964 -44.5087C219.509 -46.0002 216.238 -47.4089 212.384 -47.0681C214.256 -45.6182 214.866 -43.5549 215.411 -41.344C215.842 -39.2491 215.879 -37.0928 215.987 -34.9617C217.412 -37.4395 218.774 -40.1548 220.629 -42.3459C221.307 -43.146 222.354 -43.7159 222.964 -44.5087ZM224.023 -42.8437C222.236 -42.3889 221.081 -40.6412 220.185 -39.1334C219.008 -37.1517 218.016 -35.0319 217.011 -32.9588L220.201 -31.4633L222.012 -30.4628C223.033 -33.2333 225.36 -39.9496 224.069 -42.747C224.054 -42.7795 224.038 -42.8113 224.023 -42.8437ZM244.205 -23.2408C242.333 -19.9771 237.755 -17.9319 234.591 -16.1314C236.932 -16.0981 239.227 -16.0895 241.525 -15.5814C243.562 -14.9586 245.451 -14.4446 246.815 -12.6933C247.144 -16.4391 245.873 -19.9341 244.205 -23.2408ZM234.842 -35.2013C231.094 -34.491 227.199 -31.3972 224.451 -28.8606C225.379 -28.2273 226.283 -27.6214 227.076 -26.8186C227.601 -26.1032 228.141 -25.3955 228.649 -24.6683C230.344 -26.6247 235.03 -32.212 234.892 -34.8335C234.885 -34.9606 234.869 -35.0775 234.842 -35.2013ZM244.241 -12.7287C240.97 -14.3609 237.313 -14.7089 233.729 -14.1047C234.157 -13.026 234.448 -11.9691 234.513 -10.8023L234.499 -9.65029C236.616 -9.76786 243.681 -9.59006 244.94 -11.0205C245.122 -11.2279 245.11 -11.4046 245.152 -11.6697C244.991 -12.1597 244.625 -12.4153 244.241 -12.7287ZM211.401 -45.6084C210.363 -44.8637 210.059 -44.065 209.845 -42.8169C209.4 -40.2078 209.551 -37.3078 209.481 -34.6558C210.281 -34.7131 211.027 -34.7256 211.824 -34.6388C212.517 -34.4488 213.232 -34.2829 213.899 -34.0118C214.398 -37.2434 214.342 -41.934 212.292 -44.6642C212.036 -45.0053 211.719 -45.3232 211.401 -45.6084Z" fill="#767147"/>
<path d="M68.543 152.154C67.9817 153.081 67.134 154.217 66.0514 154.573C65.964 154.603 65.8432 154.613 65.757 154.625L65.6414 154.441C65.781 154.027 65.9598 153.749 66.2328 153.41C66.3061 153.465 66.4272 153.484 66.5153 153.511C67.2288 153.092 67.8945 152.673 68.543 152.154Z" fill="#767147"/>
<path d="M125.809 108.684C125.771 109.129 125.758 109.566 125.404 109.89C125.093 110.173 124.686 110.318 124.266 110.253C123.969 110.207 123.631 110.034 123.458 109.781C123.333 109.598 123.3 109.35 123.264 109.136L123.517 108.573C123.687 109.037 123.86 109.267 124.239 109.583L124.63 109.526C125.007 109.196 125.379 108.939 125.809 108.684Z" fill="#767147"/>
<path d="M123.516 108.576C123.541 108.36 123.723 108.183 123.85 108.007C124.123 107.885 124.241 107.814 124.547 107.854C125.136 107.93 125.454 108.258 125.807 108.687C125.378 108.942 125.006 109.199 124.629 109.529L124.237 109.587C123.858 109.27 123.686 109.04 123.516 108.576Z" fill="#767147"/>
<path d="M47.5128 135.633L47.7374 135.743C47.3946 136.119 46.7833 136.605 46.684 137.091L47.004 137.284C46.1403 138.016 45.0334 138.745 43.8686 138.793L43.818 138.664C44.5804 137.526 46.4033 136.478 47.5128 135.633Z" fill="#767147"/>
<path d="M69.9231 149.902C69.4833 150.606 69.0834 151.545 68.5443 152.156C67.8958 152.674 67.2301 153.093 66.5166 153.513C66.4285 153.486 66.3074 153.467 66.2341 153.411C66.9728 152.423 67.6581 151.398 68.3488 150.376L68.5564 150.663C69.1065 150.637 69.5044 150.227 69.9231 149.902Z" fill="#767147"/>
<path d="M134.717 89.5488C134.953 89.8416 135.159 90.1344 135.354 90.4558C135.39 90.7262 135.448 91.0523 135.362 91.3163C135.27 91.6008 135.155 91.8676 134.891 92.0089C134.629 91.95 134.407 91.8824 134.163 91.7696C134.136 91.7686 134.109 91.7702 134.081 91.7667C133.675 91.7148 133.441 91.5034 133.204 91.1881C133.184 90.7739 133.223 90.6073 133.452 90.2507C133.751 89.7852 134.216 89.6676 134.717 89.5488Z" fill="#767147"/>
<path d="M109.316 64.1731C109.464 64.3372 109.646 64.5162 109.765 64.7046C109.981 65.0493 110.059 65.4344 109.932 65.833C109.831 66.1543 109.657 66.4407 109.36 66.6057C109.049 66.5644 108.934 66.5099 108.685 66.3183C108.559 66.3138 108.539 66.3199 108.403 66.2812C108.081 66.1905 107.907 65.9775 107.744 65.7048C107.757 65.2858 107.825 65.1131 108.068 64.7639C108.37 64.3308 108.835 64.267 109.316 64.1731Z" fill="#767147"/>
<path d="M91.5782 74.1661C91.8432 74.8302 91.9617 75.1557 91.6984 75.8253C91.5471 76.2091 91.3184 76.4096 90.9538 76.5762C90.5444 76.4635 90.4371 76.4458 90.1468 76.1447C90.0792 76.1207 89.9991 76.097 89.9344 76.0611C89.5689 75.8589 89.4689 75.5462 89.3824 75.1753C89.4891 74.7444 89.7146 74.5195 90.0702 74.2798C90.5806 73.9361 91.0153 74.0575 91.5782 74.1661Z" fill="#767147"/>
<path d="M116.101 111.782C116.227 111.979 116.353 112.176 116.463 112.383C116.667 112.766 116.703 113.241 116.555 113.654C116.43 114.005 116.242 114.284 115.915 114.45C115.597 114.393 115.411 114.317 115.143 114.14L114.767 114.115C114.355 113.847 114.271 113.834 114.11 113.379C114.164 112.99 114.296 112.745 114.547 112.453C115.001 111.925 115.444 111.837 116.101 111.782Z" fill="#767147"/>
<path d="M87.3087 83.0294C87.5739 83.3914 87.8748 83.771 87.8286 84.2452C87.7697 84.8443 87.5185 85.2249 87.061 85.592C86.7131 85.5978 86.558 85.5824 86.271 85.3799C86.1329 85.3546 85.9682 85.3219 85.8523 85.2393C85.4765 84.9718 85.3919 84.7308 85.307 84.3128C85.4121 83.9405 85.5518 83.6932 85.8471 83.4356C86.313 83.0294 86.7294 83.0044 87.3087 83.0294Z" fill="#767147"/>
<path d="M132.212 99.7919C132.382 100.014 132.568 100.248 132.692 100.501C132.862 100.843 132.824 101.313 132.696 101.668C132.563 102.038 132.371 102.237 132.023 102.407C131.671 102.377 131.488 102.312 131.206 102.099C131.091 102.095 131.054 102.102 130.933 102.053C130.567 101.906 130.435 101.672 130.271 101.348C130.294 100.944 130.405 100.71 130.661 100.409C131.115 99.8765 131.556 99.8515 132.212 99.7919Z" fill="#767147"/>
<path d="M99.2519 66.8027C99.4605 67.1112 99.7841 67.5174 99.8164 67.8952C99.8699 68.5164 99.6934 68.9658 99.3253 69.4474C98.9828 69.5303 98.7207 69.3644 98.4145 69.2151L98.0441 69.1843C97.6462 68.9062 97.5162 68.8473 97.3396 68.3754C97.3624 67.9592 97.5072 67.6876 97.7628 67.3704C98.1617 66.8754 98.6647 66.8626 99.2519 66.8027Z" fill="#767147"/>
<path d="M129.782 123.991C128.962 125.115 126.332 128.005 126.382 129.383C126.384 129.442 126.411 129.52 126.426 129.573C126.336 129.567 126.301 129.568 126.205 129.542C125.754 129.421 125.589 128.941 125.359 128.566L125.462 128.464C126.127 128.073 126.7 126.204 127.246 125.455C127.309 125.636 127.366 125.693 127.517 125.808C128.341 125.339 129.065 124.61 129.782 123.991Z" fill="#767147"/>
<path d="M88.18 94.3636C88.255 94.5001 88.3255 94.6392 88.402 94.7747C88.6096 95.1399 88.8003 95.4196 88.7702 95.8662C88.734 96.4021 88.5661 96.5726 88.1957 96.916C87.793 96.9714 87.7075 97.0179 87.333 96.8298L86.8422 96.7446C86.4824 96.4252 86.4353 96.3685 86.3036 95.9075C86.3639 95.4551 86.5051 95.1248 86.8057 94.7846C87.2157 94.3201 87.6213 94.3841 88.18 94.3636Z" fill="#767147"/>
<path d="M104.042 110.829C104.546 111.041 104.944 111.369 105.371 111.703C105.395 112.248 105.449 112.685 104.998 113.107C104.768 113.322 104.402 113.404 104.096 113.379C103.647 113.342 103.127 113.068 102.873 112.694C102.66 112.382 102.681 112.237 102.679 111.874C102.893 111.419 103.3 111.079 103.771 110.9C103.873 110.861 103.929 110.854 104.042 110.829ZM104.042 110.829C103.789 111.108 103.433 111.447 103.389 111.838C103.347 112.197 103.404 112.302 103.629 112.57C103.789 112.607 103.949 112.637 104.114 112.634C104.621 112.625 105.052 112.047 105.371 111.703C104.944 111.369 104.546 111.041 104.042 110.829Z" fill="#767147"/>
<path d="M104.04 110.827C104.544 111.039 104.942 111.367 105.369 111.701C105.05 112.045 104.619 112.623 104.112 112.632C103.947 112.635 103.787 112.605 103.627 112.569C103.403 112.3 103.346 112.195 103.387 111.836C103.431 111.445 103.787 111.106 104.04 110.827Z" fill="#767147"/>
<path d="M49.425 130.138C48.9644 130.654 49.0749 130.964 48.8612 131.546L48.9503 131.669C47.8876 132.365 46.2412 134.094 44.9709 134.162C44.9841 134.05 45.0023 133.939 45.0382 133.832C45.6306 132.063 47.9203 130.987 49.425 130.138Z" fill="#767147"/>
<path d="M63.3324 151.588L63.5188 151.745C64.0853 151.581 64.7212 150.663 65.1835 150.236C65.245 150.766 64.0907 151.258 63.9901 151.878C64.4101 151.46 64.7942 151.077 65.3289 150.809L65.4443 150.753C63.9754 152.28 62.9297 154.422 61.3551 155.764L61.0747 155.73C61.0043 155.607 60.9146 155.537 60.9536 155.394C61.3118 154.09 62.4004 152.546 63.3324 151.588Z" fill="#767147"/>
<path d="M51.72 132.366C50.9623 133.691 48.5461 136.798 47.0987 137.268C47.0692 137.278 47.0378 137.279 47.0074 137.285L46.6873 137.092C46.7866 136.606 47.3979 136.12 47.7407 135.744L47.5161 135.634C48.2789 134.958 48.9728 134.22 49.6748 133.483L49.8987 133.61C50.4767 133.14 51.0687 132.731 51.72 132.366Z" fill="#767147"/>
<path d="M79.3547 148.698C79.3727 148.731 79.3874 148.766 79.4079 148.796C79.7036 149.241 80.082 149.39 80.5811 149.515L80.2835 149.939C81.0062 150.923 82.1227 151.707 82.9634 152.61C83.6989 153.4 84.2894 154.365 85.0669 155.107C85.3681 155.394 85.7157 155.647 86.0812 155.845C85.8396 155.851 85.6647 155.816 85.4642 155.68C83.7233 154.498 82.2083 152.748 80.6464 151.323C80.0233 150.755 79.24 150.238 78.673 149.626C78.5823 149.527 78.5355 149.437 78.4734 149.32L79.3547 148.698Z" fill="#767147"/>
<path d="M94.2034 104.627C94.32 104.798 94.4324 104.974 94.5526 105.142C94.7403 105.406 94.904 105.594 94.9431 105.929C95.0097 106.504 94.9252 106.957 94.5724 107.414C94.4642 107.553 94.2694 107.601 94.0932 107.609C93.8202 107.62 93.5915 107.459 93.3871 107.302C93.0747 107.316 92.8155 107.279 92.5721 107.06C92.3199 106.832 92.2158 106.617 92.187 106.283C92.1504 105.861 92.3933 105.441 92.6621 105.133C93.0641 104.673 93.6373 104.674 94.2034 104.627Z" fill="#767147"/>
<path d="M43.5462 94.0983L43.7572 94.1946C44.7556 93.5219 45.6288 92.5555 46.6446 91.9727C45.0299 93.6623 42.8889 96.0731 42.4956 98.4485C42.0947 98.5877 41.5883 98.8483 41.1648 98.8541C41.136 97.4566 42.7553 95.227 43.5462 94.0983Z" fill="#767147"/>
<path d="M108.274 151.932C108.299 152.377 108.387 152.635 108.618 153.016C108.409 153.301 108.211 153.611 107.959 153.86L107.877 153.704L108.273 153.817C108.306 153.775 108.338 153.733 108.372 153.692C108.488 153.551 108.595 153.489 108.762 153.413C107.835 154.365 104.886 157.404 103.507 157.499C103.475 157.501 103.443 157.496 103.411 157.494C103.551 157.071 103.69 156.649 103.815 156.222C105.601 155.438 107.458 153.674 108.274 151.932Z" fill="#767147"/>
<path d="M70.3068 76.3029C70.5756 77.709 71.3957 79.0148 71.8266 80.3806C72.2127 81.6047 72.3152 83.0355 72.5276 84.3045L72.7743 84.4409C72.4699 84.8625 72.296 85.0935 71.7661 85.239C71.292 84.595 71.3929 82.5315 71.2429 81.6576C70.912 79.7344 68.5188 76.1885 68.5203 75.0617C68.6998 75.3174 68.8797 75.5787 69.08 75.8187C69.4491 76.2622 69.7678 76.2663 70.3068 76.3029Z" fill="#767147"/>
<path d="M88.6414 156.198L88.4835 156.657C89.2296 157.873 90.6412 158.723 91.8685 159.402C90.4723 159.497 87.4042 157.304 86.362 156.326C86.2239 156.196 86.1441 156.021 86.0807 155.845C85.7152 155.647 85.3676 155.395 85.0664 155.107C84.2889 154.366 83.6984 153.401 82.9629 152.611C82.1222 151.708 81.0057 150.923 80.283 149.939L80.5806 149.515C80.6043 149.557 80.6274 149.6 80.6524 149.642C81.4988 151.071 87.161 155.823 88.6414 156.198Z" fill="#767147"/>
<path d="M115.327 127.036C115.425 127.201 115.471 127.232 115.626 127.336C117.982 127.431 120.112 128.027 122.216 129.059C123.012 129.45 123.846 129.973 124.714 130.171C124.651 130.371 124.533 130.548 124.631 130.739C125.352 132.139 127.245 132.719 127.876 134.172C126.949 133.776 126.085 132.825 125.31 132.164C124.043 131.084 122.532 130.063 120.966 129.48C119.895 129.082 118.793 128.759 117.672 128.534C117.074 128.414 114.845 128.291 114.541 128.02C114.723 127.625 115.03 127.345 115.327 127.036Z" fill="#767147"/>
<path d="M147.953 121.656L148.239 121.532L148.423 122.624L148.834 122.798C148.005 126.499 147.262 130.097 146.174 133.74C146.138 133.719 146.097 133.705 146.065 133.678C145.434 133.144 146.726 130.804 146.742 129.981L146.459 130.054C146.349 130.756 146.036 131.923 145.488 132.368C145.46 132.286 146.218 128.059 146.165 126.969C146.088 125.384 144.831 123.682 144.99 122.124C145.035 121.681 145.145 121.558 145.456 121.284C146.468 121.354 147.038 122.393 147.72 123.059C147.681 122.502 147.745 122.168 147.953 121.656Z" fill="#767147"/>
<path d="M99.6685 156.739C99.747 156.647 99.8242 156.555 99.8979 156.459C100.983 155.055 101.96 153.194 101.685 151.371C101.582 150.69 101.281 150.131 100.71 149.723C99.9635 149.189 98.9163 148.967 98.0157 149.136C97.4922 149.234 96.9162 149.475 96.6288 149.948C96.3735 150.369 96.41 150.806 96.5327 151.259C96.8762 151.575 97.1981 151.802 97.2821 152.286C97.1699 152.661 96.9601 153.094 96.5891 153.273C96.2482 153.439 95.6988 153.343 95.3525 153.205C94.8187 152.991 94.3846 152.625 94.1684 152.082C93.8836 151.366 93.9733 150.574 94.2574 149.875C94.704 148.775 95.6328 147.791 96.7358 147.337C97.6921 146.944 98.726 146.989 99.6666 147.405C100.922 147.961 102.281 149.21 102.753 150.52C103.443 152.434 102.594 154.215 101.767 155.923C100.934 155.937 100.448 156.672 99.6685 156.739Z" fill="#767147"/>
<path d="M72.6536 131.886C73.147 130.127 74.5316 127.118 76.2305 126.218C76.6025 126.021 76.9555 125.969 77.3505 126.127C77.618 126.234 77.7837 126.401 77.9612 126.619C78.0669 127.113 78.0544 127.387 77.7818 127.835C76.6951 129.62 74.3067 130.41 73.773 132.686L73.8966 132.954C74.5428 133.116 75.328 132.806 75.8896 133.087C76.0165 133.539 75.9031 133.683 75.7356 134.105C75.3425 134.465 74.7052 134.815 74.1648 134.857C73.9575 135.209 73.747 135.572 73.641 135.97C73.4792 136.578 72.5895 142.325 72.6539 142.634L72.2416 142.493C72.042 142.009 72.4719 141.538 72.3912 141.06C72.3492 140.811 72.1785 140.771 71.984 140.658C71.5595 139.871 72.1833 136.958 71.9449 135.766C71.7296 134.688 70.6077 132.988 70.7381 131.999C70.9569 131.752 71.0203 131.605 71.3708 131.584C71.8113 131.557 72.2 131.932 72.6536 131.886Z" fill="#767147"/>
<path d="M97.2408 159.556C97.2699 159.579 97.2984 159.604 97.3286 159.626C98.4531 160.453 102.086 160.288 103.425 160.071C104.627 159.877 106.861 158.737 107.998 159.517C108.113 159.597 108.22 159.719 108.318 159.819C108.103 160.475 107.6 160.788 107 161.091C103.451 162.882 98.0548 161.91 94.4654 160.676C93.8673 160.47 92.1604 159.962 91.8704 159.401C90.6431 158.722 89.2315 157.871 88.4854 156.656L88.6433 156.197C88.6683 156.233 88.692 156.27 88.7193 156.304C89.5026 157.301 92.7296 157.919 93.9631 158.104C96.634 158.505 97.5265 158.314 99.6714 156.739C100.451 156.672 100.937 155.937 101.77 155.923L100.353 157.564C101.113 157.7 103.133 156.596 103.816 156.222C103.691 156.65 103.552 157.072 103.412 157.494C102.251 158.388 98.9714 159.833 97.4855 159.61C97.3747 159.594 97.3394 159.582 97.2408 159.556Z" fill="#767147"/>
<path d="M110.131 150.144C110.935 148.59 112.807 145.596 114.545 145.007C114.945 144.871 115.393 144.837 115.776 145.046C116.073 145.208 116.26 145.493 116.343 145.817C116.507 146.461 116.227 147.178 115.879 147.715C114.914 149.205 112.885 150.825 111.278 151.479C111.303 151.494 111.327 151.51 111.353 151.523C112.844 152.294 116.462 149.709 117.275 151.81C117.225 152.381 117.098 152.921 116.643 153.32C115.759 154.094 113.958 154.083 112.868 153.944C111.67 153.79 109.853 152.892 108.763 153.413C108.596 153.489 108.489 153.552 108.372 153.693C108.339 153.734 108.306 153.776 108.273 153.817L107.877 153.704L107.96 153.861C108.211 153.611 108.409 153.302 108.618 153.016C108.388 152.636 108.3 152.377 108.274 151.933C107.771 150.334 107.246 147.54 108.036 145.978C108.3 145.455 108.991 144.707 109.578 144.572C109.789 144.524 109.885 144.618 110.07 144.707C110.845 146.288 109.097 149.094 110.131 150.144Z" fill="#767147"/>
<path d="M48.2792 88.4664C48.9466 86.8482 50.5485 85.174 51.9108 84.0874C52.5702 83.5614 53.254 83.1368 54.128 83.2406C54.4523 83.4419 54.591 83.4954 54.7404 83.8639C54.9333 84.3394 54.7903 84.9095 54.5941 85.3643C53.8489 87.0924 51.1881 88.9168 49.4795 89.6263C50.8707 90.642 52.9286 89.0964 54.5491 89.5437C54.7274 89.6868 54.8613 89.7476 54.9403 89.9721C55.0502 90.285 54.9648 90.7059 54.8039 90.9884C53.701 92.9251 49.7893 91.6782 48.0665 91.6637C47.5991 91.6596 47.0901 91.8393 46.6444 91.9709C45.6286 92.5537 44.7554 93.5201 43.757 94.1928L43.546 94.0965C44.3329 92.7952 45.7004 91.6401 46.7703 90.5571C46.1132 89.538 45.492 86.6486 45.7048 85.4236C45.891 84.3494 46.468 83.108 47.3826 82.4765C47.6989 82.4231 47.8515 82.3463 48.1342 82.5367C49.7775 83.6431 47.8461 86.6826 48.2436 88.3244L48.2792 88.4664Z" fill="#767147"/>
<path d="M72.776 84.4402C73.1415 84.0683 73.4516 83.6614 73.9831 83.5573C74.3922 83.6306 74.613 83.6995 74.9112 83.9952C75.1589 84.4562 75.1317 84.8538 74.9836 85.3414C74.5982 86.6091 73.6756 87.8092 72.7917 88.7777C72.842 88.7998 72.8916 88.8238 72.9426 88.8447C74.2385 89.3826 77.101 88.5743 77.908 90.1604C78.0967 90.5311 78.1002 91.0632 77.925 91.439C77.7766 91.7565 77.5021 91.9676 77.1718 92.0705C75.8804 92.4712 73.7156 91.6271 72.6062 90.9245C72.4649 90.8351 72.3829 90.7384 72.2749 90.6137C72.2688 90.6435 72.2621 90.6733 72.2573 90.7038C71.951 92.5645 73.7864 95.4904 71.8837 96.91C71.6598 97.0769 71.5128 97.1144 71.2398 97.1304C70.6737 96.8834 70.2745 96.4156 70.0528 95.8428C69.4313 94.2416 70.2085 92.099 70.8349 90.5852C69.5617 91.7789 67.389 93.8049 65.5199 93.6249C65.1089 93.5855 65.0118 93.4724 64.7696 93.1764C64.7168 92.5968 64.9846 92.1605 65.3447 91.7325C66.5557 90.2921 68.0774 89.9871 69.6197 89.1516C68.6487 89.1045 67.3697 88.0043 66.7479 87.2934C66.6931 87.2303 66.6419 87.156 66.5932 87.0894C66.094 86.6812 65.9633 85.9405 65.8989 85.3257C65.8714 85.0637 65.9181 84.8458 66.0162 84.603C66.3077 84.3768 66.4013 84.3287 66.7777 84.3745C68.2184 84.5504 69.818 86.0866 70.5776 87.2268C70.7304 87.4565 70.8105 87.5257 71.0684 87.6234C71.1142 86.8369 71.375 85.9226 71.7678 85.2383C72.2977 85.0928 72.4716 84.8618 72.776 84.4402Z" fill="#767147"/>
<path d="M111.06 126.903C112.029 126.112 112.97 125.342 114.151 124.881C114.685 124.671 115.178 124.559 115.726 124.802C116.056 125.113 116.142 125.332 116.229 125.774C116.175 126.324 115.703 126.674 115.327 127.036C115.03 127.346 114.723 127.626 114.541 128.02C113.901 128.367 112.871 128.676 112.144 128.678C112.708 130.066 114.751 130.201 115.19 132.401C115.286 132.879 115.228 133.225 114.95 133.627C114.627 133.794 114.514 133.854 114.137 133.835C113.657 133.81 112.995 133.564 112.684 133.197C112.644 133.168 112.603 133.14 112.564 133.111C111.748 132.502 110.699 131.025 110.581 130.021C110.336 130.606 110.171 131.226 109.928 131.814C109.476 132.909 108.443 134.505 107.244 134.885C106.847 135.01 106.698 134.909 106.365 134.722C106.241 134.523 106.169 134.347 106.149 134.11C106 132.31 108.003 130.218 109.115 128.949C107.787 129.576 105.527 130.238 104.1 129.77C103.617 129.612 102.828 129.203 102.615 128.723C102.479 128.417 102.585 128.292 102.7 127.999C104.861 125.981 106.867 127.82 109.115 127.498C109.16 127.491 109.204 127.483 109.249 127.476C109.104 127.379 108.995 127.311 108.89 127.169C108.118 126.13 107.458 124.511 107.677 123.214C107.764 122.699 108.042 122.051 108.515 121.787C108.802 121.627 109.062 121.597 109.365 121.71C111.063 122.341 110.415 125.604 111.024 126.837C111.035 126.86 111.048 126.881 111.06 126.903Z" fill="#767147"/>
<path d="M125.175 129.72C125.147 129.706 125.118 129.694 125.09 129.679C124.466 129.342 124.124 128.47 123.921 127.825C122.845 124.398 122.99 120.47 124.641 117.274C125.549 115.515 128.74 110.909 130.645 110.403C130.918 110.331 131.053 110.397 131.284 110.537C131.741 110.815 131.936 111.437 132.042 111.934C132.928 116.126 132.134 120.439 129.786 123.991C129.069 124.61 128.344 125.338 127.52 125.807C127.369 125.693 127.312 125.635 127.249 125.455C126.703 126.203 126.131 128.073 125.465 128.464L125.363 128.566L124.993 128.592C124.876 128.995 125.046 129.339 125.175 129.72ZM125.465 128.464C126.131 128.073 126.703 126.203 127.249 125.455L127.326 125.303C127.936 124.108 128.897 123.118 129.492 121.933C130.515 119.898 130.878 115.76 130.29 113.588C130.241 113.407 130.155 113.242 130.051 113.088C129.692 112.979 129.578 112.949 129.231 113.161C127.55 114.189 125.106 118.911 124.77 120.874C124.415 122.949 124.51 126.552 125.465 128.464Z" fill="#767147"/>
<path d="M68.4495 72.6755C68.4725 72.7023 68.4948 72.7298 68.5185 72.756C68.8796 73.1587 69.3373 73.3602 69.8784 73.3798C72.0492 73.4579 76.3476 69.1544 79.0172 68.1947C81.1502 67.4284 83.8621 67.3249 86.1044 67.5252C87.134 67.6168 88.5715 67.6697 89.3401 68.426C89.4657 68.7355 89.5749 68.9076 89.4042 69.2385C89.1126 69.803 88.5161 70.3515 88.0849 70.8141C85.8093 73.2575 82.8853 75.3902 79.5938 76.2001C75.7433 77.1475 72.3381 76.2238 69.0198 74.2703L68.9939 74.4373L69.3637 74.7231C68.8775 74.5721 68.6364 74.4246 68.2592 74.0825L68.2407 73.7053L68.4294 73.587L68.984 73.7341L69.0002 73.5748C68.7404 73.2854 68.5924 73.0369 68.4495 72.6755ZM86.788 69.6351C83.0263 69.0802 79.7607 68.9755 76.4129 71.1655C74.72 72.2727 73.1746 73.3261 71.2854 74.096C71.4074 74.3218 71.492 74.2943 71.7228 74.3687C72.8818 75.313 76.5378 75.1913 77.9872 75.0452C80.6888 74.7732 84.4545 73.0272 86.2146 70.8942C86.5247 70.5187 86.8089 70.1435 86.788 69.6351Z" fill="#767147"/>
<path d="M72.0397 145.312C73.4941 144.179 74.5299 142.571 76.0289 141.468C79.0949 139.214 83.8799 138.237 87.6167 138.804C88.763 138.978 92.4815 140.003 93.0742 140.924C93.2164 141.145 93.1838 141.289 93.1075 141.526C92.6119 143.055 87.9025 145.902 86.3121 146.641C84.109 147.665 80.3565 148.657 78.0159 147.809C78.0283 147.846 78.0357 147.885 78.053 147.919C78.2853 148.38 78.8946 148.571 79.3553 148.699L78.474 149.32C77.7179 149.325 76.7036 148.741 75.9386 148.527C74.3572 148.083 72.9735 147.847 71.3304 147.792C70.7691 148.451 70.3532 149.156 69.9227 149.902C69.5039 150.228 69.1061 150.637 68.556 150.664L68.3484 150.376C68.54 149.954 68.7825 149.569 68.6758 149.097C68.274 148.973 68.093 149.036 67.7195 149.235C66.9419 149.65 66.2134 150.418 65.4474 150.753L65.3321 150.809C64.7974 151.078 64.4133 151.46 63.9933 151.878C64.0939 151.258 65.2481 150.766 65.1866 150.237C64.7243 150.664 64.0884 151.582 63.522 151.746L63.3355 151.588C65.0822 149.281 67.4747 148.015 69.8919 146.562C70.0332 145.577 70.8197 144.691 70.9139 143.635C70.9885 142.8 70.5797 141.954 70.5897 141.099C70.5903 141.063 70.5922 141.027 70.5935 140.99C68.7299 141.13 65.3811 139.773 63.9365 138.641C63.4848 138.287 63.1718 137.961 63.1014 137.366C63.2237 136.954 63.4576 136.738 63.8344 136.54C64.9826 135.936 66.6267 135.989 67.8284 136.39C70.0175 137.119 70.623 138.833 71.5831 140.729L71.9852 140.658C72.1797 140.771 72.3504 140.81 72.3924 141.059C72.4731 141.538 72.0432 142.009 72.2428 142.492L72.6551 142.634C72.3312 143.381 71.9855 144.5 72.0397 145.312ZM90.8797 140.84C90.8447 140.839 90.8098 140.837 90.7746 140.834C89.4751 140.74 88.1386 140.244 86.8257 140.06C83.0239 139.525 79.1474 140.926 76.2445 143.381C75.3898 144.104 73.9363 145.202 73.5259 146.253L73.9721 146.152C74.7984 146.413 75.7954 146.372 76.6591 146.452C80.0242 146.764 83.0239 146.865 86.1148 145.246C87.1352 144.712 90.8153 142.31 91.1558 141.402C91.0792 141.186 91.0251 141.021 90.8797 140.84ZM68.925 138.31C67.9229 137.997 66.5697 137.325 65.5317 137.551C65.5656 137.855 65.7796 138.07 66.0395 138.237C66.2278 138.358 66.4954 138.402 66.7122 138.446C67.0836 138.896 68.9167 139.517 69.511 139.567C69.5635 139.571 69.6174 139.564 69.6705 139.562C69.6571 139.542 69.6427 139.522 69.6292 139.502C69.3876 139.134 69.082 138.721 68.925 138.31Z" fill="#767147"/>
<path d="M42.495 98.4472C42.3248 98.7646 42.1857 99.0139 42.1495 99.3755C42.7258 99.1625 43.2363 98.5235 43.7309 98.1473C45.3508 96.9152 47.7956 96.321 49.6985 97.2179C51.0459 97.8535 51.9763 99.0857 52.4514 100.474C52.7775 101.428 52.7003 102.462 52.2553 103.367C51.7501 104.393 50.6929 105.36 49.5918 105.698C48.9443 105.897 48.2754 105.848 47.6785 105.522C47.0192 105.161 46.6575 104.64 46.4634 103.921C46.3615 103.543 46.3656 103.339 46.5608 102.979C46.7671 102.6 46.9128 102.515 47.2973 102.401C48.1645 102.715 48.4631 103.722 49.5325 103.258C50.0201 103.045 50.3305 102.552 50.4987 102.066C50.7586 101.316 50.7784 100.327 50.4196 99.6076C50.0906 98.9486 49.4156 98.3363 48.7082 98.1319C47.3104 97.7274 45.6431 98.3526 44.455 99.0687C43.0666 99.9056 41.9322 101.121 41.5662 102.737C40.9181 105.598 42.3966 109.596 43.9603 111.996C44.9836 113.567 46.1401 115.022 47.4328 116.378C48.1895 117.171 49.0404 117.92 49.7273 118.773C50.4744 119.7 51.1404 121.509 52.1576 122.062C52.1368 122.026 52.1147 121.99 52.0948 121.954C51.1632 120.26 51.8289 117.096 52.3822 115.302C53.0764 113.051 56.1529 107.672 58.1876 106.718C58.3789 106.628 58.5432 106.617 58.7508 106.614C59.7939 107.365 60.7169 110.752 60.9325 112.095C61.5566 115.977 60.5209 120.677 58.2267 123.877C57.1848 125.33 55.6016 126.372 54.4649 127.765C55.6349 127.842 57.2332 127.176 58.4106 126.934C60.1361 126.578 61.9484 126.553 63.6525 126.161C64.1241 126.052 64.5274 125.84 64.9413 125.596C65.0169 125.054 65.1883 124.458 65.6375 124.101C65.8348 123.944 66.0703 123.858 66.3074 123.781L66.7469 123.94C66.8722 124.615 66.613 125.384 66.9007 125.975C67.5008 126.069 68.194 125.503 68.6518 125.163C69.4307 124.586 71.7175 121.83 72.1868 121.681C72.3178 121.64 72.6222 121.669 72.7558 121.695C73.1297 121.768 73.4109 122.059 73.599 122.374C73.7665 122.653 73.8031 122.971 73.6961 123.274C73.2043 124.67 70.7032 125.999 69.3865 126.578C68.8892 126.796 68.3741 126.996 67.8394 127.101C67.8426 127.126 67.8452 127.151 67.849 127.176C67.9339 127.782 68.2376 128.128 68.1373 128.752C68.0329 128.85 67.875 129.06 67.7337 129.053C66.4833 128.993 65.2668 128.004 63.9821 127.83C62.6542 127.65 59.6972 128.173 58.7191 127.751C58.6941 127.741 58.6698 127.728 58.6457 127.716C58.6624 127.743 58.6787 127.772 58.697 127.799C59.8548 129.479 62.0984 128.429 63.27 131.897C63.6297 132.963 63.7239 134.153 63.5474 135.264C63.4628 135.794 63.3263 136.178 62.9624 136.582C62.5619 136.763 62.5075 136.787 62.0779 136.715C60.3402 135.584 59.438 132.772 59.0327 130.859C58.9206 130.329 58.7656 129.766 58.811 129.224C58.7742 129.223 58.7374 129.224 58.7008 129.222C57.8249 129.195 56.9507 128.77 56.0853 128.858C55.1105 128.957 54.0356 129.866 53.1677 129.856C52.7807 130.566 52.279 131.838 51.7184 132.365C51.0671 132.73 50.475 133.139 49.8971 133.609L49.6731 133.482C49.8807 132.85 50.8793 131.861 50.8643 131.24C50.4061 131.121 50.0502 131.19 49.6264 131.384C49.4037 131.485 49.1775 131.575 48.951 131.668L48.862 131.545C49.0757 130.962 48.9651 130.653 49.4258 130.136C50.2565 129.514 51.1952 129.064 52.0282 128.41C51.8741 128.076 51.9561 127.443 51.9122 127.06C51.695 125.161 51.2814 123.118 50.319 121.452C49.2182 119.547 47.4459 118.015 45.9341 116.438C42.5609 112.921 40.1662 108.749 38.7527 104.098C37.7753 100.882 37.4634 97.9874 38.0809 94.6765C38.2323 93.8648 38.3848 92.9658 38.7956 92.2406C39.0012 91.8779 39.185 91.7349 39.5798 91.6242C39.7805 91.68 39.9477 91.7313 40.0953 91.8872C41.0279 92.8717 39.6599 96.7636 39.5673 98.1985C39.4963 99.3033 39.4448 101.566 40.2131 102.381C40.2352 102.404 40.2595 102.426 40.2828 102.448C40.2366 102.311 40.203 102.179 40.1799 102.036C40.0307 101.102 40.6047 99.5934 41.1642 98.8528C41.5877 98.847 42.0941 98.5864 42.495 98.4472ZM58.4772 108.43C55.3632 111.322 53.2216 115.147 53.0761 119.433C53.0021 121.628 53.4048 123.822 53.5631 126.008L53.7518 126.17C57.0042 123.339 59.4781 119.711 59.8151 115.287C59.9814 113.102 59.5431 110.363 58.4772 108.43ZM60.5789 130.019L60.2156 130.255C60.4773 131.32 60.9771 133.501 61.951 134.111C62.0548 134.176 62.0855 134.183 62.2079 134.238C62.2118 132.9 62.0404 132.054 61.2215 130.954C61.0024 130.659 60.6977 130.369 60.5789 130.019Z" fill="#767147"/>
<path d="M78.566 107.953C78.7387 108.705 91.5009 121.206 93.4164 123.173C94.6924 124.483 96.9354 126.287 97.6636 127.97C97.8375 128.372 97.8048 128.633 97.6386 129.03C97.2285 130.011 93.7313 133.34 92.6831 133.736C92.4806 133.813 92.2503 133.766 92.0606 133.671C90.9521 133.113 85.9934 128.481 85.6888 127.395C85.6801 127.365 85.6744 127.333 85.6673 127.302C85.4014 127.238 85.1403 127.107 84.9308 126.93C80.8858 123.5 77.297 119.389 73.5874 115.603C71.3724 113.343 68.8488 111.203 66.8235 108.781C66.4528 108.338 65.9739 107.781 65.9184 107.185C66.2692 106.184 69.8173 102.513 70.8038 102.07C72.8692 101.144 76.4275 107.279 78.4763 107.928C78.5058 107.938 78.5362 107.945 78.566 107.953Z" fill="#767147"/>
</g>
<defs>
<clipPath id="clip0_202_53">
<rect width="200" height="200" fill="white"/>
</clipPath>
</defs>
</svg>
