<svg width="200" height="200" viewBox="0 0 200 200" fill="none" xmlns="http://www.w3.org/2000/svg">
<path d="M85.9539 51.7441H107.166L120.424 52.2744L123.605 55.4563L122.81 59.4335L119.363 62.3502L119.628 77.9941L121.749 80.3805L127.052 84.6229L133.946 90.9866L139.249 98.676L143.492 107.161L145.613 115.911L146.674 126.782L144.287 138.184L138.189 149.585L130.765 158.07L121.484 164.434L111.939 167.881L103.189 168.941H92.3176L83.0373 166.024L74.0221 160.456L66.3327 153.827L60.4994 146.403L56.257 136.593L54.1357 127.312L54.9312 116.176L57.3176 107.161L61.2948 98.676L65.8024 93.1078L72.6963 85.6835L80.1206 80.3805L81.9767 77.4638V62.8805L80.1206 61.2896L77.9994 58.1078V54.6608L80.6509 52.2744L85.9539 51.7441Z" fill="#F2E3E3"/>
<path d="M87.8091 81.7057L88.6045 61.2891H111.408L112.733 81.7057L118.567 85.9482L126.256 93.3724L133.15 101.592L137.392 110.077L138.983 121.744V127.842L135.271 123.6L127.582 121.744H118.567L111.408 122.804L108.491 120.948L97.3545 110.872L89.9303 105.835L80.9151 104.244L74.8166 105.835L68.7182 109.281L64.7409 114.319L61.8242 116.971L63.15 109.281L67.6576 101.592L74.8166 92.5769L82.7712 85.9482L87.8091 81.7057Z" fill="#D8CECE"/>
<path d="M119.628 95.4928L116.181 93.6367L114.325 94.167L113.529 96.2882L114.325 99.7352L120.688 107.159L122.81 107.955V103.182L121.749 98.4094L119.628 95.4928Z" fill="#F2E3E3"/>
<path d="M61.0293 127.309V119.089L68.7187 109.809L73.4914 106.627L80.9157 104.506L89.6657 105.832L96.5596 110.339L105.575 118.559L113.264 125.983L125.726 134.733H134.476L138.719 131.021L137.128 137.915L129.173 149.316L119.628 156.741L106.901 161.779H97.0899L85.9535 159.392L76.9384 153.824L68.7187 146.665L63.4157 137.65L61.0293 127.309Z" fill="#D92726"/>
<path d="M119.627 130.229L111.673 123.6L115.65 122.274L120.158 121.744L128.112 122.009L135.006 123.865L137.658 127.577V131.29L134.211 134.737H125.461L119.627 130.229Z" fill="#6E1702"/>
<path d="M85.4229 35.5696L86.2183 33.7135L91.2562 31.5923L100.536 30.7969L112.203 32.3878L114.59 34.7741L112.203 48.8272V51.7438H88.6047L85.4229 35.5696Z" fill="#D5AE3B"/>
<path d="M97.8886 30.0717L100.451 30C102.254 30.002 103.931 30.2725 105.713 30.5195C108.731 30.9378 112.776 31.3179 115.015 33.5596C115.219 34.1912 115.459 34.8798 115.456 35.5499C115.447 36.9252 114.996 38.471 114.758 39.8331C114.13 43.4314 113.436 46.9964 112.917 50.6145C114.675 50.4462 116.798 50.5218 118.519 50.9028C120.352 51.3084 122.205 51.7495 123.25 53.4693C124.01 54.718 124.116 56.4978 123.779 57.9041C123.241 60.15 121.871 61.3405 120.005 62.5132L119.98 63.8108C119.968 66.4147 119.981 69.0193 119.989 71.6236C119.995 73.4504 119.815 75.5744 120.317 77.3431C120.594 78.3195 121.224 79.1765 121.962 79.8613C122.712 80.5576 123.724 80.9211 124.516 81.5658C126.058 82.8202 127.717 83.9634 129.225 85.2507C130.765 86.5649 132.232 88.0836 133.657 89.5266C135.079 90.9669 136.335 92.7724 137.552 94.3925C139.718 97.2753 141.794 100.406 143.276 103.706C144.7 106.874 145.656 110.414 146.383 113.791C146.777 115.628 147.212 117.524 147.389 119.397C147.622 121.869 147.547 124.451 147.535 126.931C147.514 131.137 146.295 135.04 144.734 138.907C141.831 146.095 137.938 152.199 132.396 157.672C129.678 160.355 126.442 162.398 123.13 164.256C120.479 165.741 117.766 167.142 114.855 168.065C113.214 168.584 111.467 168.827 109.788 169.204C109.078 169.363 108.425 169.755 107.723 169.866C106.17 170.11 104.402 169.949 102.827 169.937L94.5628 169.953C93.9416 169.947 93.2585 169.959 92.6494 169.823C91.8889 169.653 91.1734 169.265 90.3867 169.091C88.8631 168.754 87.2862 168.555 85.7961 168.088C82.8376 167.159 80.0557 165.739 77.3676 164.224C73.862 162.249 70.5559 160.15 67.7148 157.251C64.1895 153.654 61.0551 149.672 58.6471 145.237C57.4721 143.073 56.5363 140.809 55.6316 138.524C54.602 135.925 53.6118 133.164 53.205 130.38C52.9407 128.572 53.001 126.622 53.018 124.797C53.035 122.908 52.9895 120.972 53.1798 119.093C53.5734 115.198 54.5713 111.307 55.8295 107.612C56.2555 106.359 56.6388 105.026 57.1898 103.823C60.2776 97.0812 65.2394 90.7723 70.6738 85.7705C71.6876 84.8373 72.8279 84.0412 73.9195 83.2013C74.7151 82.5889 75.4678 81.9079 76.2776 81.318C77.0359 80.7648 77.9312 80.477 78.6094 79.802C79.2596 79.1545 79.9335 78.2669 80.201 77.3804C80.7783 75.4686 80.5464 73.0354 80.547 71.0517C80.5481 68.2119 80.5448 65.3719 80.5492 62.5319C79.7152 61.9245 78.8276 61.4772 78.1203 60.6981C76.7574 59.1965 76.5183 57.3676 76.662 55.4254C76.7491 54.2455 77.3753 53.0334 78.2848 52.2686C79.0003 51.6673 79.7909 51.4502 80.6742 51.2041C82.9221 50.5774 85.2725 50.4218 87.5977 50.6544C87.1865 47.1426 86.4808 43.65 85.8295 40.1763C85.5565 38.7174 85.0093 36.9859 85.0236 35.5066C85.0307 34.7622 85.3525 34.02 85.6332 33.3426C86.7966 32.2506 88.4294 31.7296 89.9453 31.3616C92.5595 30.7272 95.2317 30.473 97.8886 30.0717ZM82.0865 52.5288C80.7685 52.9465 79.428 53.2184 78.7498 54.5628C78.3133 55.4272 78.1938 56.7463 78.4904 57.6687C78.9301 59.0341 79.7492 60.0942 81.0728 60.6872C81.5892 60.9183 82.0903 60.9172 82.3129 61.4835C82.5684 62.134 82.4982 63.2026 82.5268 63.9106C82.6408 66.7447 82.5827 69.5983 82.592 72.4356C82.5964 73.6346 82.7384 74.9631 82.6556 76.1468C82.5925 77.0509 82.2587 78.1183 81.8732 78.9265C81.4319 79.8519 80.7273 80.6469 79.962 81.3224C79.1456 82.0428 78.1659 82.4255 77.299 83.0516C76.3807 83.7156 75.5046 84.5232 74.6252 85.2425C73.3724 86.2666 72.0637 87.2738 70.886 88.3835C69.6513 89.5475 68.5411 90.826 67.4122 92.0903C66.9017 92.6622 66.3173 93.1885 65.8557 93.8004C64.8584 95.1217 64.0228 96.6162 63.1379 98.0165C62.0063 99.8066 60.844 101.586 59.9125 103.491C57.6059 108.208 55.9979 114.017 55.494 119.259C55.3449 120.814 55.3805 122.415 55.3674 123.977C55.352 125.79 55.2171 127.746 55.4277 129.546C55.5938 130.962 56.0927 132.71 56.5511 134.054C57.363 136.437 58.1246 138.969 59.1931 141.247C63.0436 149.462 69.1661 156.03 76.7228 160.954C78.451 162.08 80.3129 163.249 82.177 164.137C84.3733 165.184 86.9885 165.706 89.3548 166.254C92.4597 166.972 95.5864 167.625 98.7795 167.763C104.462 168.008 110.209 166.609 115.64 165.074C116.584 164.781 117.543 164.5 118.433 164.064C119.077 163.748 119.653 163.317 120.285 162.984C125.956 160 131.359 155.75 135.403 150.745C137.482 148.174 139.277 145.214 140.815 142.289C141.728 140.551 142.355 138.654 143.007 136.807C143.877 134.344 144.784 131.755 145.125 129.15C145.298 127.828 145.218 126.411 145.213 125.078C145.206 123.368 145.245 121.631 145.102 119.927C144.814 116.491 144.017 112.881 142.985 109.591C142.296 107.4 141.49 105.205 140.44 103.158C139.411 101.151 138.15 99.2468 136.952 97.3378C136.152 96.0608 135.372 94.6721 134.431 93.4972C131.809 90.2262 128.665 87.4619 125.419 84.8417C124.627 84.2019 123.852 83.4875 123.028 82.8948C122.473 82.4968 121.84 82.2172 121.269 81.8449C120.355 81.2478 119.515 80.3509 118.909 79.4506C118.368 78.6479 118.032 77.456 117.93 76.4998C117.759 74.8995 117.786 62.2967 118.228 61.4023C118.532 60.7868 119.551 60.707 120.121 60.3141C121.638 59.2685 122.593 57.0837 122.057 55.2722C121.815 54.4574 121.388 53.6761 120.605 53.2763C119.935 52.9341 118.837 52.5524 118.083 52.5139C115.917 52.4033 113.686 52.5661 111.512 52.5794C107.047 52.6067 102.582 52.5945 98.1172 52.5942C94.8677 52.594 91.6175 52.6115 88.368 52.5664C86.3251 52.5381 84.1134 52.3683 82.0865 52.5288ZM95.7372 31.8559C93.1258 32.1661 89.9722 32.5006 87.6393 33.7728C87.4167 33.8941 86.9984 34.0809 86.8476 34.2845C86.4392 34.836 86.5329 35.8155 86.6546 36.4566C86.8756 37.6191 87.2912 38.8028 87.5598 39.9675C88.1223 42.4094 88.5719 44.9165 88.9486 47.3933C89.1131 48.475 89.3559 49.5092 89.2978 50.6112L104.609 50.4961L111.19 50.6217C111.315 47.019 112.242 43.1698 113.033 39.6457C113.325 38.3437 113.787 37.0075 113.931 35.6839C113.984 35.199 114.03 34.641 113.682 34.2566C113.367 33.9086 112.721 33.6687 112.29 33.4737C110.829 32.8133 109.186 32.5171 107.608 32.2743C106.466 32.0986 105.334 31.8717 104.179 31.7955C102.186 31.6639 100.137 31.7513 98.1402 31.7706L95.7372 31.8559Z" fill="#D5AE3B"/>
<path d="M89.1297 60.2265L111.091 60.2148C111.617 60.2488 112.257 60.3604 112.608 60.795L112.684 60.9001C113.044 61.3851 113.018 62.3424 113.072 62.9394C113.367 66.179 113.213 69.576 113.207 72.8327C113.201 75.5878 112.683 79.5029 114.177 81.9268C114.785 82.9137 116.056 83.5897 117.002 84.2196C117.967 84.8622 118.891 85.5437 119.805 86.2559C122.085 88.0323 124.162 89.9649 126.225 91.9836C127.704 93.431 129.253 94.862 130.604 96.4317C131.684 97.6872 132.627 99.1116 133.534 100.495C135.842 104.019 137.638 107.575 138.809 111.631C139.509 114.058 139.929 116.581 140.333 119.07C140.559 120.461 140.888 121.76 140.923 123.183C140.956 124.57 140.707 125.918 140.515 127.285C139.754 132.695 138.177 137.564 135.527 142.343C134.755 143.737 133.752 145.034 132.819 146.325C129.123 151.434 124.412 155.633 118.767 158.484C116.1 159.832 113.23 160.81 110.365 161.638C108.811 161.987 107.232 162.471 105.655 162.687C104.242 162.881 102.736 162.889 101.308 162.912C99.2951 162.945 97.0949 162.98 95.0981 162.725C93.8196 162.562 92.529 162.199 91.2795 161.887C88.1719 161.111 85.1773 160.098 82.2775 158.727C73.1264 154.401 65.4885 145.558 62.1041 136.057C61.1232 133.304 60.4735 130.468 60.0706 127.574C59.8096 125.704 59.5952 123.99 59.7164 122.094C59.8337 120.251 60.2734 118.324 60.6128 116.501C61.1057 113.857 61.7055 111.201 62.6655 108.682C65.8076 100.435 71.6949 93.9196 78.2889 88.2401C79.313 87.3579 80.3471 86.4867 81.4304 85.6775C82.1207 85.1621 82.8143 84.6451 83.5374 84.1774C84.6285 83.4718 85.9043 82.792 86.5167 81.5902C87.7815 79.1082 87.2958 75.4825 87.2985 72.7538C87.3013 70.0728 87.2925 67.3881 87.3517 64.7077C87.3753 63.6475 87.2771 61.9248 87.7711 60.9892L87.8292 60.8906C88.0875 60.4471 88.6664 60.3598 89.1297 60.2265ZM79.6793 105.472C76.5865 106.215 73.548 107.073 70.8643 108.863C67.4897 111.114 64.8745 115.112 62.7697 118.516C62.4287 119.067 62.3442 119.821 62.2461 120.453C62.0257 121.871 61.933 123.519 62.0443 124.954C62.1085 125.779 62.3097 126.588 62.4002 127.409C62.4736 128.076 62.404 128.783 62.5526 129.438C62.7538 130.326 63.131 131.195 63.3821 132.073C63.9205 133.958 64.2275 135.84 64.9578 137.679C65.7183 139.594 66.9634 141.395 68.1081 143.098C68.7293 144.023 69.2376 145.018 69.9081 145.913C71.4783 148.008 73.3095 149.673 75.3162 151.323C77.6079 153.209 79.8761 154.865 82.4228 156.399C83.5824 157.098 84.9344 157.609 86.1954 158.095C89.6561 159.427 93.319 160.344 96.9995 160.779C98.084 160.907 99.2337 161.099 100.326 161.089C103.026 161.062 106.138 160.49 108.747 159.82C111.44 159.128 114.046 158.244 116.581 157.101C117.783 156.564 118.79 155.881 119.903 155.192C123.775 152.796 127.537 149.803 130.369 146.21C131.302 145.027 132.043 143.681 132.858 142.415C133.947 140.723 135.017 139.049 135.747 137.161C136.086 136.285 136.407 135.325 136.575 134.401C135.97 134.892 135.34 135.449 134.641 135.798C133.053 136.589 131.009 136.657 129.27 136.478C124.999 136.038 120.966 133.367 117.568 130.927C116.708 130.31 115.776 129.749 114.988 129.041C112.255 126.585 109.88 123.781 107.295 121.189C105.303 119.192 103.154 117.319 101.04 115.454C94.9792 110.11 88.2503 104.793 79.6793 105.472ZM89.3189 61.8856C89.3282 66.4078 89.3079 70.9297 89.3046 75.4518C89.3035 76.8137 89.3057 78.1756 89.2997 79.5375C89.2969 80.2255 89.3589 80.9843 89.2454 81.6603C89.1368 82.3089 88.8567 82.9394 88.4011 83.4137L88.3232 83.4959C87.4849 84.3649 86.367 85.0031 85.3692 85.672C83.7277 86.7724 82.056 87.8716 80.5033 89.0959C78.3486 90.7955 76.2137 92.7369 74.4061 94.7995C73.2849 96.0786 72.3298 97.4471 71.2755 98.7728C70.736 99.4504 70.0232 99.9916 69.5342 100.708C68.7918 101.797 68.2353 103.058 67.5385 104.187C66.7293 105.498 65.7983 106.778 65.1749 108.193C64.239 110.319 63.8108 112.601 63.0405 114.782C63.9199 113.592 64.5208 112.245 65.4803 111.095C69.0232 106.85 74.7646 103.859 80.2242 103.059C82.2885 102.756 84.2337 103.15 86.208 103.732C89.9126 104.823 93.5866 106.694 96.6689 109.024C98.2589 110.226 99.9185 111.413 101.424 112.714C103.943 114.889 106.209 117.275 108.599 119.578C110.326 120.877 112.902 121.263 115.031 120.962C118.939 120.408 123.176 119.666 127.131 119.973C128.432 120.075 129.753 120.374 131.019 120.687C132.619 121.082 134.381 121.695 135.709 122.681C136.899 123.565 137.703 124.848 138.519 126.063C138.538 122.721 138.161 119.786 137.573 116.512C137.057 113.632 136.573 110.867 135.344 108.168C134.642 106.627 133.581 105.243 132.715 103.794C132.107 102.776 131.609 101.512 130.904 100.582C130.305 99.7915 129.519 99.1303 128.898 98.3413C127.542 96.617 126.33 94.9443 124.775 93.3724C122.748 91.323 120.609 89.432 118.255 87.7658C117.006 86.882 115.73 86.0399 114.46 85.1884C113.562 84.5864 112.538 83.9587 111.811 83.1478C111.463 82.7602 111.339 82.1247 111.289 81.6231C111.076 79.4771 111.237 77.1722 111.235 75.0115C111.231 70.7965 111.217 66.5801 111.238 62.3646L111.24 61.9699C106.88 62.2645 102.4 62.0458 98.0242 62.0486C96.2901 62.0497 94.5564 62.0504 92.8223 62.0473C91.7351 62.0453 90.615 62.1166 89.5426 61.9243L89.4022 61.9013L89.3189 61.8856ZM121.375 122.327C119.679 122.421 118.042 122.678 116.376 122.994C115.114 123.233 114.297 123.632 112.958 123.553C114.535 124.848 116.132 126.196 117.634 127.578C120.158 129.9 122.712 132.255 126.039 133.358C127.036 133.688 128.095 133.786 129.133 133.906C130.84 133.963 133.873 134.236 135.21 132.97C136.253 131.982 137.015 130.728 137.053 129.26C137.085 128.031 136.181 126.515 135.345 125.656C132.888 123.133 128.432 122.287 125.016 122.27L121.375 122.327Z" fill="#D5AE3B"/>
<path d="M115.775 93.508L116.168 93.485C117.751 93.457 119.431 94.4104 120.522 95.5059C123.734 98.728 124.378 103.295 124.396 107.647C124.401 108.782 124.552 110.091 123.688 110.96C123.053 111.159 122.914 110.957 122.335 110.665C121.692 109.662 121.162 108.535 120.397 107.618C119.793 106.895 119.05 106.346 118.416 105.662C117.924 105.13 117.53 104.511 117.015 104.001C115.732 102.728 114.077 101.581 113.504 99.7725C113.048 98.3349 112.879 96.4522 113.629 95.0793C114.153 94.121 114.776 93.8227 115.775 93.508ZM115.552 95.2915C114.854 96.5426 114.766 97.7603 115.173 99.1195C115.692 100.849 117.921 102.27 119.138 103.565C119.784 104.253 120.309 105.035 120.92 105.751C121.402 106.317 121.953 106.799 122.385 107.41L122.534 107.533C122.71 106.888 122.566 106.115 122.509 105.45C122.311 103.122 122.066 100.96 120.885 98.8925C120.068 97.4632 118.885 95.7943 117.194 95.3403C116.639 95.1912 116.113 95.1868 115.552 95.2915Z" fill="#D5AE3B"/>
</svg>
