<svg width="200" height="200" viewBox="0 0 200 200" fill="none" xmlns="http://www.w3.org/2000/svg">
<g clip-path="url(#clip0_202_234)">
<path d="M159.322 51.4544L162.532 53.2378L384.561 -179.492L407.923 -204.281L412.56 -212.484L414.343 -218.904L411.847 -218.191L400.611 -211.592L360.664 -174.142L297.711 -114.042L220.313 -40.2107L143.093 33.7991L145.233 37.3658L145.233 43.7859L143.806 49.8494L145.768 51.8111L155.042 50.0277L159.322 51.4544Z" fill="#F2E3E3" stroke="#767147"/>
<path d="M134.356 149.183L137.031 145.795L133.286 142.763L130.611 140.088L127.936 142.763L128.292 146.33L130.432 149.54L134.356 149.183Z" fill="#6E1702"/>
<path d="M97.7967 31.3027L94.5866 32.7294L92.6249 30.0544L89.2365 27.3793L91.0199 24.5259L92.8032 23.8126L94.9433 23.8126L97.2616 25.4176L98.8667 28.4493L97.7967 31.3027Z" fill="#6E1702"/>
<path d="M67.1227 153.285L65.3394 152.572L64.4477 151.68L64.4477 149.183L65.5177 147.4L66.7661 146.152L69.2628 146.865L71.0462 147.935L71.5812 150.967L69.4411 153.107L67.1227 153.285Z" fill="#6E1702"/>
<path d="M57.8492 155.068L53.9258 158.992L52.4991 160.062L51.2508 157.744L50.8941 153.463L43.939 155.425L41.2639 154.533L40.9072 149.897L42.6906 144.547L40.0155 144.725L35.9138 143.833L36.6272 141.693L40.0156 138.305L43.939 136.521L48.219 137.235L52.4991 139.018L55.3525 141.515L58.0276 145.26L59.4543 150.253L57.8492 155.068Z" fill="#6E1702"/>
<path d="M80.8547 123.503L72.4728 131.885L63.9127 123.325L75.1479 112.089L81.568 105.669L91.0199 93.7206L97.7967 100.497L101.363 105.848L88.7015 116.726L80.8547 123.503Z" fill="#6E1702"/>
<path d="M129.362 70.7152L129.184 75.1736L122.764 70.8935L120.624 66.6134L125.261 66.6134L130.254 65.9001L129.362 70.7152Z" fill="#6E1702"/>
<path d="M142.203 59.3016L137.209 59.6583L136.139 57.5182L136.317 48.4231L137.209 41.8246L138.814 37.3662L142.381 34.5128L144.699 35.7611L145.413 39.3279L145.769 43.2513L143.629 48.2447L144.878 51.2764L146.839 51.4548L155.399 50.3848L160.571 51.6331L162.89 53.2381L158.788 57.3399L152.546 58.9449L147.553 59.6583L142.203 59.3016Z" fill="#6E1702"/>
<path d="M134.356 149.183L137.031 145.795L133.286 142.763L130.611 140.088L127.936 142.763L128.292 146.33L130.432 149.54L134.356 149.183Z" stroke="#767147"/>
<path d="M97.7967 31.3027L94.5866 32.7294L92.6249 30.0544L89.2365 27.3793L91.0199 24.5259L92.8032 23.8126L94.9433 23.8126L97.2616 25.4176L98.8667 28.4493L97.7967 31.3027Z" stroke="#767147"/>
<path d="M67.1227 153.285L65.3394 152.572L64.4477 151.68L64.4477 149.183L65.5177 147.4L66.7661 146.152L69.2628 146.865L71.0462 147.935L71.5812 150.967L69.4411 153.107L67.1227 153.285Z" stroke="#767147"/>
<path d="M57.8492 155.068L53.9258 158.992L52.4991 160.062L51.2508 157.744L50.8941 153.463L43.939 155.425L41.2639 154.533L40.9072 149.897L42.6906 144.547L40.0155 144.725L35.9138 143.833L36.6272 141.693L40.0156 138.305L43.939 136.521L48.219 137.235L52.4991 139.018L55.3525 141.515L58.0276 145.26L59.4543 150.253L57.8492 155.068Z" stroke="#767147"/>
<path d="M80.8547 123.503L72.4728 131.885L63.9127 123.325L75.1479 112.089L81.568 105.669L91.0199 93.7206L97.7967 100.497L101.363 105.848L88.7015 116.726L80.8547 123.503Z" stroke="#767147"/>
<path d="M129.362 70.7152L129.184 75.1736L122.764 70.8935L120.624 66.6134L125.261 66.6134L130.254 65.9001L129.362 70.7152Z" stroke="#767147"/>
<path d="M142.203 59.3016L137.209 59.6583L136.139 57.5182L136.317 48.4231L137.209 41.8246L138.814 37.3662L142.381 34.5128L144.699 35.7611L145.413 39.3279L145.769 43.2513L143.629 48.2447L144.878 51.2764L146.839 51.4548L155.399 50.3848L160.571 51.6331L162.89 53.2381L158.788 57.3399L152.546 58.9449L147.553 59.6583L142.203 59.3016Z" stroke="#767147"/>
<path d="M134.89 144.011L137.03 145.081L138.813 143.298L141.845 138.84L143.807 134.025L144.877 128.674L144.877 123.681L143.272 119.579L139.883 114.764L130.431 104.956L123.476 95.8604L121.871 90.6887L123.476 86.2303L127.221 81.7718L131.68 78.0268L137.743 79.0968L141.132 78.2051L143.985 72.855L157.895 57.8747L153.615 58.9447L147.552 59.3014L140.597 59.4797L135.603 58.053L136.495 52.1679L136.673 44.4995L137.743 38.436L124.725 50.7412L120.266 52.7029L117.056 56.983L117.413 63.7598L114.559 68.3966L109.744 72.1417L105.464 73.5683L102.076 73.39L98.8658 71.25L84.7772 59.6581L81.7455 55.1997L80.4971 49.3145L82.8155 43.4294L86.5606 38.2577L92.089 34.8693L94.4074 32.5509L90.1273 27.2008L81.0322 34.8693L77.2871 40.041L75.147 46.1045L74.4337 52.5246L76.7521 59.1231L79.7838 64.2948L82.1022 67.3266L86.7389 71.25L90.6623 75.8867L93.6941 80.3451L95.1208 84.2686L94.0508 88.9053L91.9107 91.7587L103.503 103.351L107.604 101.032L111.706 100.854L116.165 102.102L124.011 108.522L130.788 115.299L135.247 119.758L137.743 125.108L137.922 129.923L137.03 134.025L134.712 137.056L131.858 139.91L132.393 141.515L134.89 144.011Z" fill="#030115"/>
<path d="M64.4468 144.546L60.3451 147.935L56.7784 143.655L53.5683 139.731L47.5049 136.878L51.6066 131.706L57.135 127.248L63.7335 123.859L67.4786 126.534L71.5803 131.706L71.0453 134.738L64.4468 144.546Z" fill="#030115"/>
<path d="M134.89 144.011L137.03 145.081L138.813 143.298L141.845 138.84L143.807 134.025L144.877 128.674L144.877 123.681L143.272 119.579L139.883 114.764L130.431 104.956L123.476 95.8604L121.871 90.6887L123.476 86.2303L127.221 81.7718L131.68 78.0268L137.743 79.0968L141.132 78.2051L143.985 72.855L157.895 57.8747L153.615 58.9447L147.552 59.3014L140.597 59.4797L135.603 58.053L136.495 52.1679L136.673 44.4995L137.743 38.436L124.725 50.7412L120.266 52.7029L117.056 56.983L117.413 63.7598L114.559 68.3966L109.744 72.1417L105.464 73.5683L102.076 73.39L98.8658 71.25L84.7772 59.6581L81.7455 55.1997L80.4971 49.3145L82.8155 43.4294L86.5606 38.2577L92.089 34.8693L94.4074 32.5509L90.1273 27.2008L81.0322 34.8693L77.2871 40.041L75.147 46.1045L74.4337 52.5246L76.7521 59.1231L79.7838 64.2948L82.1022 67.3266L86.7389 71.25L90.6623 75.8867L93.6941 80.3451L95.1208 84.2686L94.0508 88.9053L91.9107 91.7587L103.503 103.351L107.604 101.032L111.706 100.854L116.165 102.102L124.011 108.522L130.788 115.299L135.247 119.758L137.743 125.108L137.922 129.923L137.03 134.025L134.712 137.056L131.858 139.91L132.393 141.515L134.89 144.011Z" stroke="#767147"/>
<path d="M64.4468 144.546L60.3451 147.935L56.7784 143.655L53.5683 139.731L47.5049 136.878L51.6066 131.706L57.135 127.248L63.7335 123.859L67.4786 126.534L71.5803 131.706L71.0453 134.738L64.4468 144.546Z" stroke="#767147"/>
<path d="M143.606 136.94C143.117 136.965 143.013 136.981 142.59 136.747L142.919 135.791L142.489 135.443C143.483 131.618 143.993 128.246 144.06 124.284L144.921 124.529L145.5 123.884C146.268 128.75 145.243 132.424 143.606 136.94Z" fill="#767147"/>
<path d="M50.2153 154.751C47.9949 155.697 43.916 156.91 41.5801 155.969C40.817 155.662 40.2866 155.089 39.9896 154.326C39.0458 151.906 40.2371 148.022 41.0384 145.653C39.2977 145.706 36.3702 145.793 35.0056 144.472C34.6164 144.095 34.5885 143.779 34.4583 143.275C34.7564 141.227 36.644 139.49 38.2238 138.309C40.7918 136.39 43.6877 135.483 46.8305 135.08C49.2674 128.515 57.491 126.421 62.6206 122.546C68.8287 117.856 84.2163 101.078 88.5669 94.6858C83.5639 87.6584 77.9823 78.5631 79.5425 69.4973C79.7131 68.5052 79.9159 67.4971 80.2326 66.5405C75.6701 59.6812 72.3698 54.612 74.093 45.8988C75.3746 39.4165 79.451 35.1454 84.2481 30.9728C85.3592 30.0067 86.709 29.0926 87.7157 28.0405C89.1281 26.5644 89.7991 24.451 91.5592 23.3015C92.7095 22.5503 94.1474 22.2582 95.4924 22.5664C97.0011 22.9124 98.3043 23.9345 99.1123 25.2403C99.8327 26.4044 100.173 27.8593 99.8587 29.209C99.4557 30.9373 98.0627 32.2131 96.5914 33.0906C94.6764 34.2324 92.5319 35.021 90.6572 36.2287C87.2171 38.4439 83.1634 43.1038 82.1249 47.0776C81.3923 49.8807 81.5366 53.3534 83.0474 55.8871C83.5471 56.7258 84.0867 57.5538 84.6549 58.3482C90.1176 51.6372 98.2066 45.8962 107.035 45.0026C113.068 44.3916 119.532 46.2923 124.474 49.7193C152.461 22.4364 180.95 -4.36057 209.296 -31.27L303.669 -121.124L366.208 -180.699L386.782 -200.309C390.546 -203.896 394.247 -207.743 398.236 -211.076C400.896 -213.3 411.311 -219.907 414.372 -219.768C414.626 -219.756 414.86 -219.697 415.098 -219.613C415.518 -219.061 415.585 -218.818 415.497 -218.101C414.923 -213.469 409.643 -204.919 406.636 -201.3C403.07 -197.01 398.945 -193.08 395.097 -189.036L372.979 -165.803L302.398 -91.7303L194.209 21.9869C178.036 38.896 162.235 56.3029 145.588 72.735C147.977 79.7858 148.17 86.2636 144.792 93.0933C141.976 98.7903 137.888 102.115 132.617 105.417C137.236 111.564 144.387 115.614 145.501 123.885L144.921 124.53L144.06 124.285C143.994 128.247 143.484 131.619 142.49 135.444L142.919 135.792L142.591 136.748C143.013 136.982 143.117 136.966 143.607 136.942C142.129 140.365 137.003 148.832 133.592 150.169C132.413 150.631 131.137 150.752 129.944 150.245C128.582 149.665 127.466 148.4 126.948 147.024C126.412 145.6 126.321 144.235 126.978 142.83C127.266 142.215 127.578 141.609 127.891 141.007C132.02 138.761 135.338 136.734 136.746 131.945C137.691 128.727 137.336 125.463 135.7 122.535C133.983 119.462 130.527 116.854 128.232 114.12C130.139 122.7 125.887 133.799 121.343 140.92C115.777 149.645 105.131 155.972 95.1601 158.163C89.5659 159.392 82.593 159.29 77.6563 156.127C75.8451 154.966 74.1117 152.382 72.2487 151.633L72.182 151.742C71.4977 152.845 70.4935 153.716 69.2046 153.993C67.8205 154.291 66.0832 153.831 64.9164 153.034C64.2495 152.579 63.7757 151.915 63.6461 151.11C63.4752 150.05 64.0559 148.903 63.5222 148.003C62.5042 148.163 61.6021 148.714 60.6984 149.184C60.3579 153.245 58.76 157.274 55.5564 159.948C54.6098 160.738 53.6307 161.309 52.3538 161.194C51.4845 160.836 51.0723 160.367 50.7178 159.495C50.1489 158.094 50.1574 156.246 50.2153 154.751ZM147.274 50.4998C152.316 48.7129 156.776 48.6946 161.692 51.0156C162.048 51.1836 162.258 51.3117 162.478 51.6507L319.271 -112.823L372.458 -168.69L390.975 -188.082C395.394 -192.685 399.977 -197.226 404.119 -202.081C406.987 -205.444 412.394 -213.07 413.273 -217.17C409.07 -216.247 404.247 -212.834 400.932 -210.13C395.242 -205.49 390.034 -200.206 384.728 -195.139L359.812 -171.357L276.097 -91.6131C271.16 -87.2187 266.483 -82.4728 261.691 -77.9157L231.358 -49.0159L144.416 33.8964C145.975 35.3314 146.659 39.1852 146.748 41.1866C146.871 43.9944 146.293 46.3213 145.34 48.9289C149.58 44.526 154.241 40.5437 158.334 35.9973C158.344 35.9691 158.354 35.9409 158.363 35.9124C159.366 32.8362 156.582 29.0933 159.626 26.5564C159.818 26.5362 160.002 26.4637 160.159 26.5864C160.854 27.13 161.35 28.5307 161.442 29.3803C161.529 30.1865 161.207 31.1313 160.995 31.903C162.363 29.9749 164.106 27.2966 166.597 26.8112C167.157 26.7017 167.782 26.7962 168.341 26.8763C175.005 20.0561 168.341 26.8763 177.184 17.8772C178.121 16.4718 178.191 13.4136 179.38 12.4343C179.979 11.9412 182.379 11.5696 183.192 11.6381C183.313 11.6479 183.331 11.6622 183.428 11.7025L237.935 -42.754L255.114 -59.937C257.513 -62.3385 259.834 -64.9245 262.307 -67.2363C263.191 -68.0633 264.258 -68.9126 265.394 -69.3505C265.28 -67.3256 192.148 3.40188 184.009 12.8428C184.329 14.1238 183.989 15.7982 183.52 17.0147C177.11 17.8381 173.411 23.4556 168.939 27.6711C169.254 28.6789 169.237 29.4554 168.753 30.4116C167.752 32.3925 165.51 33.8425 163.74 35.0741C165.037 34.6329 166.74 34.0318 168.057 34.7237C168.716 35.07 168.86 35.3764 169.104 36.035C168.897 36.6888 168.524 37.089 167.903 37.3928C165.455 38.5929 162.451 36.7595 159.943 37.5689C157.632 39.4835 148.535 48.2172 147.274 50.4998ZM65.6208 145.667C67.0113 145.34 68.6105 145.156 69.8928 145.948C71.9044 147.19 73.4971 149.583 75.0798 151.335C80.0837 156.875 88.0009 157.059 94.8401 155.516C104.056 153.437 112.986 147.362 118.045 139.33C120.122 136.033 120.598 133.053 119.728 129.272L119.624 128.836C116.067 118.028 109.617 114.389 101.488 107.165C95.8292 111.086 90.7374 116.012 85.7176 120.705C81.6475 124.509 77.2512 128.379 73.8206 132.79C71.6794 135.542 70.0434 138.728 68.2384 141.705C67.4697 142.973 66.16 144.345 65.6208 145.667ZM142.49 135.444C143.484 131.619 143.994 128.247 144.06 124.285C143.279 121.704 142.333 119.325 140.765 117.11C139.294 115.032 137.139 113.328 135.374 111.483C132.251 108.218 129.184 104.787 126.355 101.264C123.83 98.1193 120.567 94.2432 121.061 89.9468C121.606 85.2104 126.334 80.8983 129.895 78.1084C129.528 77.9114 129.161 77.717 128.791 77.5281C124.682 75.4294 122.164 76.5188 118.027 77.8529C118.398 77.0768 118.786 76.2849 119.071 75.4722C120.309 71.938 119.217 69.4402 117.67 66.2571C117.358 66.6521 117.032 67.0343 116.696 67.4088C113.585 70.872 110.122 74.2484 105.187 74.4834C98.3457 74.8089 91.1272 66.6774 86.3535 62.2954C85.5811 63.8014 84.8548 65.3346 84.109 66.8542C87.9559 70.6637 94.3579 77.4626 95.7524 82.6299C96.7045 86.1571 95.6455 88.365 93.9391 91.3482C94.303 91.6059 94.6731 91.8552 95.0583 92.0807C97.887 93.7373 100.16 93.2819 103.151 92.4849C102.8 96.3771 102.537 98.5033 104.669 101.927C105.815 101.163 107.058 100.55 108.405 100.236C111.634 99.4837 115.2 100.191 117.995 101.943C121.726 104.282 133.284 115.449 135.932 119.206C137.142 120.923 138.035 122.846 138.497 124.898C139.511 129.406 138.368 134.046 135.687 137.772C135.101 138.586 134.08 139.199 133.595 140.028C133.356 140.438 133.314 140.775 133.445 141.234C133.659 141.984 134.517 143.104 135.212 143.423C135.756 143.673 136.263 143.66 136.819 143.476C139.269 142.663 141.404 137.663 142.49 135.444ZM101.925 72.403C104.18 73.171 106.197 72.6047 108.286 71.5789C110.978 70.257 114.765 67.4154 115.802 64.467C116.726 61.8389 113.41 54.4037 119.113 51.6954C119.793 51.3725 120.741 51.2579 121.486 51.1075C121.247 50.5239 120.433 50.2102 119.863 49.973C118.583 49.4407 117.209 48.9201 115.854 48.6276C110.815 47.5209 106.375 48.0591 101.551 49.7456C98.4398 53.2029 95.9068 56.9849 96.1499 61.8385C96.3622 66.0763 98.3922 69.2704 101.49 72.0354C101.632 72.1617 101.778 72.2832 101.925 72.403ZM129.712 102.569C135.861 100.437 140.738 96.2794 143.608 90.3718C145.204 87.0851 146.47 81.6327 145.191 78.011C144.974 77.3956 144.81 77.2258 144.323 76.8216C143.822 77.1478 143.53 77.53 143.183 78.0099C141.539 79.6587 140.231 80.5564 137.832 80.5622C136.783 80.5648 135.747 80.3931 134.717 80.2174C131.699 86.1359 126.941 94.5555 129.205 101.39C129.34 101.796 129.517 102.189 129.712 102.569ZM51.4203 137.357C52.6378 138.027 54.4822 138.538 55.4651 139.452C57.001 140.879 59.0703 146.271 61.4846 145.527C63.4425 144.924 68.1697 137.456 69.1728 135.422C69.6092 134.537 69.8325 133.642 69.9592 132.664C69.8925 130.26 67.3808 128.505 65.7214 126.935L64.529 125.81C63.538 125.933 62.4314 126.02 61.4894 126.361C58.3129 127.51 53.2948 130.726 51.2273 133.356C50.5993 134.155 50.3063 134.78 50.4252 135.815C50.744 136.334 51.0495 136.873 51.4203 137.357ZM42.463 153.785C48.6673 154.407 49.9242 151.597 52.3663 151.562C53.5443 153.449 50.5077 157.232 53.2234 158.248C54.1315 158.169 54.6443 157.829 55.2272 157.134C56.9353 155.096 57.8249 152.208 58.064 149.599C58.1834 148.293 54.995 142.736 54.0432 141.618C53.9924 141.559 53.9388 141.501 53.8853 141.443C49.2037 139.312 47.6886 136.669 42.2674 138.721C40.5098 139.386 38.4051 140.471 37.5949 142.279C37.4836 142.528 37.4507 142.767 37.4676 143.037C37.9797 143.577 38.2531 143.67 39.0279 143.69C40.3968 143.726 43.2474 142.861 44.316 143.641C44.7161 146.006 39.9078 150.563 42.463 153.785ZM81.1225 64.0288C81.9195 62.6622 82.6784 61.2473 83.5555 59.9316C80.9951 56.8074 79.4967 52.9375 79.8804 48.8645C80.3446 43.9494 83.3721 39.85 87.0923 36.8034C88.755 35.4416 91.9517 33.9751 93.0481 32.2958C92.9979 31.463 92.5978 30.9238 91.978 30.3816C91.4421 29.913 90.8457 29.507 90.2223 29.1647C89.9686 29.1885 89.5278 29.1665 89.3016 29.25C87.7292 29.831 81.5874 35.7553 80.2168 37.4027C76.9276 41.3561 74.9393 46.6888 75.45 51.8642C75.8886 56.3106 78.14 60.7322 81.1225 64.0288ZM131.8 75.9386C134.037 77.0672 136.576 78.2746 139.119 77.4062C140.168 77.0478 141.043 76.3032 141.521 75.2954C142.203 73.86 141.976 72.0867 141.424 70.6458C140.907 69.2949 139.8 67.5267 138.888 66.3973L136.114 62.15C133.115 63.9427 131.198 66.0898 130.336 69.5471C129.934 71.1579 129.929 73.5283 130.859 74.9732C131.097 75.3437 131.445 75.6801 131.8 75.9386ZM120.479 65.1142C123.508 65.9083 126.67 66.0368 129.462 64.4209C130.992 63.5349 132.801 61.9776 133.373 60.2555C133.174 59.1214 131.399 58.1169 130.501 57.4854C129.871 57.0442 129.241 56.5727 128.577 56.1865C126.166 55.1695 123.407 53.8549 120.779 54.9539C119.759 55.3808 118.897 56.1642 118.473 57.1991C117.724 59.031 118.446 61.1374 119.2 62.8419C119.531 63.5876 119.958 64.4853 120.479 65.1142ZM140.184 58.4291C148.82 57.4784 153.048 60.5239 160.461 53.7952C160.506 53.6261 160.621 53.3589 160.596 53.1908C159.523 52.0036 157.64 51.673 156.111 51.591C150.972 51.3165 145.021 53.8831 141.241 57.3086C140.862 57.6523 140.478 58.0078 140.184 58.4291ZM137.677 55.6454C141.558 51.3494 144.652 45.424 144.386 39.4667C144.321 38.0236 143.862 36.9436 143.185 35.685L142.796 35.4767C139.543 38.3384 137.812 40.7806 137.53 45.2699C137.392 47.4686 137.338 53.6433 137.677 55.6454ZM144.566 70.8229C148.013 67.0028 151.5 63.2377 155.079 59.5402C152.468 60.2585 150.108 60.4459 147.412 60.2603C144.428 60.1684 141.853 60.369 138.957 61.1594C140.929 64.091 143.353 67.4828 144.566 70.8229ZM92.2434 89.6159C93.3585 87.2634 93.5515 85.1544 93.7598 82.5988C91.7957 77.9235 87.6282 73.8519 83.9622 70.4583C84.2328 77.6669 87.656 84.174 92.2434 89.6159ZM123.328 124.925C124.193 119.497 124.218 114.3 122.254 109.089C120.23 109.62 117.689 109.487 115.61 109.288C113.859 109.002 112.116 108.735 110.405 108.25C115.949 112.279 121.138 118.376 123.328 124.925ZM127.166 52.6168C129.86 53.8447 132.185 55.4027 134.621 57.068C135.732 53.6814 135.809 50.4869 135.557 46.9689C135.592 45.1516 135.755 43.479 136.087 41.6903C133.031 44.6369 128.838 47.8434 126.286 51.1177C126.286 51.8301 126.711 52.1028 127.166 52.6168ZM89.8383 112.085C91.9253 112.084 92.5993 111.291 94.0665 109.895L93.3457 106.631C92.1819 105.393 90.1051 102.609 88.3589 102.38C87.2109 102.123 86.4381 101.812 85.3343 102.485C84.6732 102.888 84.1826 103.426 84.0135 104.197C83.9275 104.592 83.9322 104.977 83.926 105.377C83.9121 106.273 84.764 107.065 85.3545 107.66C86.8323 109.152 88.3758 110.578 89.8383 112.085ZM83.0346 117.715C84.3565 117.704 86.1148 117.486 87.0912 116.475C87.5074 116.043 87.7135 115.468 87.6747 114.873C87.5001 112.216 84.3481 109.82 82.5616 108.16C81.2972 108.256 79.6659 108.511 78.7631 109.513C78.3418 109.98 78.1342 110.572 78.1832 111.198C78.389 113.824 81.2693 116.056 83.0346 117.715ZM77.1245 124.184C78.393 123.821 80.2736 122.875 80.9256 121.68C81.2492 121.087 81.2961 120.442 81.0936 119.798C80.4497 117.751 77.9621 115.879 76.4579 114.415C75.1268 114.603 73.3571 115.349 72.5243 116.447C72.1579 116.929 72.014 117.538 72.1081 118.134C72.4639 120.39 75.554 122.699 77.1245 124.184ZM71.7874 129.7C72.7227 129.585 73.7686 129.488 74.4012 128.694C74.8343 128.151 74.9881 127.647 74.8848 126.947C74.5993 125.009 71.485 122.14 69.9529 121.102C69.8515 121.033 69.7483 120.97 69.6421 120.91C68.5757 121.047 67.3889 121.113 66.6772 122.029C66.3463 122.454 66.239 122.867 66.3367 123.407C66.7555 125.718 70.3395 127.947 71.7874 129.7ZM95.9369 106.708C96.8554 106.589 98.897 106.528 99.4908 105.758C99.5084 105.735 99.5238 105.71 99.5402 105.686C97.332 102.638 93.8531 99.8944 91.0786 97.2963L90.4595 96.6129C90.1721 96.6828 90.0396 96.6535 89.8767 96.9182C89.3624 97.751 89.3005 98.9829 89.1456 99.9402C91.3993 102.205 93.6316 104.496 95.9369 106.708ZM124.681 95.5303C125.208 93.179 126.018 90.9989 127.017 88.8094C127.633 87.4585 131.317 81.3581 131.259 80.463L130.987 80.3485C127.611 82.4666 124.018 86.3098 123.114 90.3206C122.924 91.1597 122.949 92.0628 122.955 92.9194L124.681 95.5303ZM106.587 103.598C108.723 104.533 115.759 106.766 117.999 105.832C118.107 105.787 118.111 105.782 118.201 105.732L118.219 105.403C115.951 103.133 113.464 101.623 110.115 101.61C109.127 101.606 107.956 101.766 107.232 102.495C106.99 102.738 106.776 103.008 106.575 103.286L106.587 103.598ZM131.523 148.38C132.884 148.415 134.067 148.128 135.114 147.178C135.359 146.956 135.517 146.665 135.657 146.369L135.657 145.734C134.598 144.781 133.032 143.904 132.281 142.717L131.32 141.546C130.557 141.513 130.388 141.599 129.723 141.97C129.018 142.895 128.845 143.853 128.986 144.988C129.168 146.46 130.083 147.309 131.214 148.158C131.316 148.234 131.419 148.307 131.523 148.38ZM94.8997 31.7855C96.0478 31.2488 97.045 30.8732 97.5312 29.6051C97.8434 28.7906 97.8837 27.8607 97.4924 27.0645C97.0651 26.1943 95.9314 25.2626 94.9839 24.9727C94.6687 24.8764 94.3382 24.824 94.0116 24.7838C92.9287 25.0452 91.5753 25.2981 90.964 26.3268C90.8399 26.5351 90.9698 26.9243 91.0119 27.1692C92.283 28.8678 93.8791 29.8277 94.8997 31.7855ZM66.8342 152.82C67.8989 152.912 68.8303 152.984 69.716 152.257C70.1914 151.867 70.523 151.352 70.5796 150.731C70.6354 150.125 70.4817 149.401 70.0875 148.926C69.7497 148.518 69.2871 148.16 68.881 147.82C67.8132 147.611 66.8742 147.423 65.9089 148.093C65.463 148.402 65.1371 148.913 65.0485 149.449C64.9484 150.058 65.0535 150.983 65.4204 151.497C65.776 151.996 66.3627 152.43 66.8342 152.82ZM122.706 68.7344C124.603 70.4583 126.471 72.2638 128.466 73.8728C128.208 72.0533 128.292 70.3503 128.602 68.5419L128.852 67.3854C128.308 66.9842 128.01 67.042 127.34 67.1438C126.471 67.2756 125.625 67.6197 124.752 67.7134C123.643 67.8317 122.859 67.1753 121.799 67.7346L122.706 68.7344Z" fill="#767147"/>
<path d="M108.497 88.8884C108.255 88.6816 108.018 88.4685 107.799 88.2371C107.205 87.6064 106.87 86.8237 106.915 85.9495C106.946 85.3345 107.208 84.8128 107.663 84.402C108.493 83.6523 109.415 83.6472 110.462 83.6794C110.763 83.8588 111.066 84.0455 111.338 84.2666C111.824 84.6616 112.039 85.3099 112.08 85.9184C112.132 86.6849 111.825 87.3325 111.305 87.8809C110.471 88.7588 109.64 88.8774 108.497 88.8884Z" fill="#767147"/>
</g>
<defs>
<clipPath id="clip0_202_234">
<rect width="200" height="200" fill="white"/>
</clipPath>
</defs>
</svg>
