<svg width="200" height="200" viewBox="0 0 200 200" fill="none" xmlns="http://www.w3.org/2000/svg">
<g clip-path="url(#clip0_202_38)">
<path d="M69.369 140.887L66.3765 139.798L65.1522 136.67L62.9758 135.582L59.0311 131.637L65.1522 126.332L70.5933 123.611L72.3616 124.564L76.5784 129.596L74.402 135.037L69.369 140.887Z" fill="#030115"/>
<path d="M95.8939 112.457L93.9896 111.641L87.7324 105.384L94.1256 95.4541L91.9492 90.2852L84.6039 82.1237L75.7622 74.0982L72.4976 71.6497L76.1703 67.977L77.3945 66.7528L79.5709 70.5615L89.2287 79.4031L98.2064 86.4765L100.927 87.0206L106.64 84.3001L111.265 78.3149L111.129 73.5541L117.658 67.569L125.683 60.0876L124.459 65.1205L124.323 70.6975V75.8665L128.132 76.4106H134.661L138.198 75.3224L139.83 75.8665L126.908 88.7889L123.915 88.5168L120.787 90.2852L118.066 91.9175L114.665 96.4063L113.305 100.215L114.529 102.799L121.195 111.097L130.58 120.483L133.301 122.931L131.397 125.924L128.676 127.556L123.235 120.755L113.441 110.961L107.728 107.152L103.511 107.016L95.8939 112.457Z" fill="#030115"/>
<path d="M64.6103 149.457L62.2978 150.137L61.3457 145.104L59.7134 146.192L54.4084 146.328L53.8643 143.608L55.2245 138.983L52.7761 139.255L51.0077 138.303L52.0959 134.766L56.4488 132.862L60.8016 133.406L64.0662 135.31L66.1065 138.711L67.7388 142.248L64.6103 149.457Z" fill="#6E1702"/>
<path d="M94.3998 113.138L77.2606 129.461L71.0035 123.204L86.5103 106.337L89.3669 106.745L92.2234 109.601L94.3998 113.138Z" fill="#6E1702"/>
<path d="M133.167 130.685L130.855 131.093L128.678 127.829L131.807 125.244L132.623 122.524L135.479 124.292L136.976 125.788L135.479 128.917L133.167 130.685Z" fill="#6E1702"/>
<path d="M74.8122 68.7939L72.6358 71.7865L69.6432 70.1542L69.6432 67.1616L72.0917 64.1691L75.7643 64.033L77.8047 67.4337L74.8122 68.7939Z" fill="#6E1702"/>
<path d="M127.59 76.6834L124.733 76.0033L124.053 72.3306V65.8014L125.141 60.0883L128.678 56.5516L130.31 60.0883L130.719 65.6653L128.678 72.0585L138.064 69.202L144.321 71.3784L142.281 73.4188L136.296 76.1393L132.351 76.2753L127.59 76.6834Z" fill="#6E1702"/>
<path d="M104.735 102.527L99.9744 100.215L99.0222 94.9096L102.151 91.7811L107.048 93.1413L108.408 96.95L104.735 102.527Z" fill="#F2E3E3"/>
<path d="M136.157 70.017L129.356 71.1052L129.9 68.3847L130.852 61.7195L128.948 56.8226L209.339 -21.3919L215.596 -25.4727L224.165 -29.6895L231.783 -31.5938L231.511 -27.5131L228.654 -20.8478L222.125 -9.14966L143.775 71.6493L139.15 69.745L136.157 70.017Z" fill="#F2E3E3"/>
<path d="M53.8146 147.096C53.6069 146.875 53.3743 146.625 53.2555 146.342C53.0589 145.874 53.1312 145.252 53.1469 144.754C53.2073 142.849 53.4866 141.262 54.1657 139.475C53.0299 139.624 51.5061 139.682 50.4576 139.152C49.7983 138.818 49.5167 138.451 49.2903 137.772C49.3981 137.09 49.6832 136.585 50.0879 136.031C52.0996 133.273 55.1269 132.291 58.3475 131.801C59.0782 129.843 59.9065 129.149 61.4956 127.923C62.7677 126.942 64.0324 125.998 65.4455 125.216C67.3946 124.136 69.3279 123.246 71.0106 121.734C73.6553 119.358 76.056 116.752 78.5005 114.179C83.4989 108.92 88.518 103.54 92.2756 97.2907L88.6536 96.4271C88.2091 96.2866 87.7005 95.8495 87.4918 95.4329L87.6331 95.1234C89.0472 94.2659 91.2601 94.1832 92.8977 93.8893C92.6516 93.121 92.4024 92.2974 92.0059 91.592C91.6612 90.9787 91.1296 90.4573 90.6885 89.9125C90.3514 89.4964 90.1112 89.0199 89.7537 88.614C88.5395 87.2338 87.137 86.0359 85.8959 84.6858C85.2017 83.9304 84.7214 82.9988 83.9865 82.2886C83.1395 81.4701 82.1759 80.8159 81.3053 80.035C80.8827 79.656 80.5408 79.1786 80.1405 78.7725C79.3953 78.0166 78.5873 77.3063 77.7674 76.6331C76.8694 75.8957 75.9536 75.0724 75.0118 74.4046C74.6578 74.1537 74.3016 74.0177 73.9642 73.7212C73.6982 73.488 73.5411 73.2992 73.4358 72.9591L73.4105 72.8645L73.0957 72.7775L72.6968 72.774C72.3892 72.7404 71.9986 72.4557 71.7343 72.2939C70.8279 71.7395 69.8474 71.1131 69.1834 70.2679C68.7216 69.6805 68.5354 69.0709 68.6241 68.3274C68.8463 66.4591 69.9014 65.1943 71.3246 64.0736C72.1673 63.4098 73.6953 62.8398 74.7695 62.9851C77.1319 63.3048 77.5482 66.3247 78.7804 67.8433C79.4735 68.697 80.2915 69.4736 81.034 70.2865C81.9065 71.2417 82.7247 72.2378 83.6405 73.1546C85.6778 75.1946 87.9262 77.0987 90.1335 78.9503C91.0436 79.7138 91.868 80.5817 92.78 81.3422C94.0885 82.4326 95.5201 83.3564 96.9083 84.3363C97.8647 85.0117 98.8116 85.994 100.015 86.1318C100.331 85.7982 100.313 85.334 100.371 84.8956C100.507 83.8711 100.568 82.7345 100.859 81.7446C101.024 81.1845 101.361 80.6153 101.621 80.0914C102.008 80.7332 102.482 81.4093 102.768 82.1C103.165 83.055 103.388 84.1969 103.69 85.1938C105.662 83.8004 107.695 82.3546 109.026 80.2771C109.648 79.3052 110.711 78.0166 110.731 76.808C110.739 76.3177 110.564 75.803 110.505 75.3149C110.416 74.5859 110.483 73.9307 110.595 73.2127C111.705 71.7142 113.34 70.3856 114.695 69.1018C117.15 66.7752 119.617 64.4567 122.045 62.1024C132.34 52.1204 142.674 42.186 153 32.2376C160.893 24.6321 168.715 16.9488 176.586 9.31998C180.418 5.60645 184.342 1.99904 188.142 -1.74914C192.543 -6.09046 197.067 -10.2921 201.488 -14.6092C204.817 -17.8599 208.002 -21.4131 211.714 -24.2248C217 -28.2279 223.617 -30.7308 230.008 -32.3041C230.665 -32.4658 231.873 -32.9338 232.452 -32.5835L232.861 -32.4207C233.016 -32.2324 233.126 -32.1421 233.165 -31.8945C233.281 -31.1756 232.792 -29.8964 232.604 -29.1542C231.085 -23.1398 228.703 -16.8757 225.021 -11.8407C222.125 -7.87981 218.388 -4.58319 214.968 -1.08349C210.744 3.23849 206.648 7.68189 202.4 11.9861C198.715 15.7206 195.151 19.5703 191.504 23.3427C184.137 30.9635 176.727 38.5431 169.358 46.1633C166.943 48.6613 164.601 51.2342 162.19 53.7381C159.597 56.4306 156.924 59.046 154.318 61.7253C152.136 63.9691 150.044 66.3065 147.873 68.5638C144.987 71.5649 142.021 74.4889 139.115 77.471C136.45 80.2053 133.862 83.03 131.221 85.7902C130.048 87.0164 128.867 88.4372 127.552 89.5064C126.283 90.5374 124.624 89.5031 123.238 89.7497C122.42 89.8951 121.626 90.3977 120.937 90.8406C118.506 92.4046 116.789 94.3379 115.176 96.7091C116.196 97.1362 117.316 97.2308 118.347 97.6225C119.033 97.8833 119.662 98.4391 120.368 98.7526C119.784 99.0497 119.161 99.4088 118.527 99.5781C117.611 99.8233 116.609 99.9139 115.669 100.039C115.136 100.11 114.688 100.084 114.255 100.414C114.263 100.582 114.288 100.744 114.336 100.904C114.614 101.835 115.47 102.718 116.026 103.502C119.884 108.951 124.49 114.123 129.364 118.677C130.368 119.615 131.354 120.66 132.429 121.512C133.166 122.097 134.168 122.442 134.991 122.909C135.919 123.435 137.064 124.215 137.34 125.307C137.632 126.459 137.22 127.675 136.617 128.659C135.722 130.117 134.233 131.303 132.568 131.688C131.772 131.871 131.192 131.936 130.473 131.468C129.144 130.603 127.851 128.624 127.527 127.073L127.513 127.005C127.284 126.934 127.071 126.85 126.9 126.674C126.487 126.249 126.173 125.645 125.799 125.167C124.73 123.803 123.642 122.455 122.488 121.161C121.885 120.484 121.162 119.949 120.565 119.282C119.647 118.255 118.837 117.057 117.822 116.126C117.255 115.606 116.533 115.297 115.971 114.762C114.572 113.431 113.3 111.953 111.84 110.684C111.506 110.393 111.09 110.217 110.743 109.935C110.151 109.454 109.577 108.862 108.905 108.497C108.227 108.13 107.54 107.761 106.759 107.679C106.369 107.972 106.381 108.331 106.296 108.799C106.096 109.907 106.074 111.714 105.403 112.602C105.204 112.866 105.164 112.861 104.86 112.905C103.62 111.96 103.59 109.532 103.113 108.086C99.4834 110.377 95.9338 113.058 92.6973 115.874C90.5896 117.709 88.6227 119.688 86.5865 121.597C83.9674 124.053 81.1895 126.457 78.8358 129.178C77.3199 130.931 76.4431 132.738 75.3268 134.716C74.5231 136.14 73.5913 137.499 72.606 138.8C71.9522 139.663 71.3053 140.565 70.4139 141.201C69.8633 141.594 69.1927 141.852 68.5716 142.114C68.1951 145.076 67.3948 147.395 65.2554 149.567C64.7291 150.101 63.4885 151.153 62.6852 151.122C62.2834 151.106 61.9819 150.914 61.7148 150.624C60.7281 149.553 60.7916 147.59 60.8515 146.237C59.1714 146.904 57.5746 147.198 55.777 147.272C55.0939 147.3 54.4632 147.361 53.8146 147.096ZM132.004 69.7554C133.147 69.3592 134.285 68.92 135.49 68.7604C137.917 68.4394 140.856 69.2582 143.035 70.3125L143.614 70.5994L146.914 67.1287C146.249 67.0272 145.419 66.844 145.001 66.2562C144.845 66.0373 144.79 65.7482 144.742 65.4893C144.913 65.1669 144.991 64.9902 145.369 64.8701C146.564 64.4905 147.966 64.9445 149.202 64.4089C150.335 63.9178 151.627 62.2048 152.532 61.2861C154.896 58.8834 157.272 56.4883 159.597 54.0468C158.726 54.3304 157.387 54.7036 156.517 54.2805C156.189 54.1206 155.991 53.881 155.828 53.5603C155.87 53.2033 155.878 53.0996 156.184 52.8616C157.075 52.1672 158.771 52.1263 159.869 51.7564C161.067 51.3524 162.789 50.345 163.746 49.5362C165.083 48.4066 166.296 47.0001 167.53 45.7515C170.61 42.6367 173.619 39.4774 176.637 36.3033C180.419 32.3254 184.314 28.4673 188.138 24.5317C190.638 21.9585 193.068 19.3141 195.549 16.7215C198.542 13.5931 201.635 10.561 204.65 7.45354C207.284 4.73905 209.847 1.94854 212.473 -0.776166C214.651 -3.0348 216.952 -5.1954 219.073 -7.50508C219.52 -7.99156 219.818 -8.57959 220.234 -9.08622C221.34 -10.4326 222.581 -11.7234 223.61 -13.1296C224.288 -14.0559 224.77 -15.2021 225.314 -16.2138C226.669 -18.7346 227.867 -21.2124 229.011 -23.8375C229.857 -25.7805 230.752 -27.847 231.082 -29.952C231.131 -30.2604 231.146 -30.3638 231.028 -30.6601C229.303 -31.2003 221.293 -27.3912 219.432 -26.4142C217.543 -25.4221 215.442 -24.4601 213.675 -23.275C212.143 -22.248 210.717 -20.8984 209.318 -19.6979C208.791 -19.245 208.195 -18.8845 207.663 -18.438C206.654 -17.5913 205.73 -16.5778 204.791 -15.6504C202.998 -13.8799 201.211 -12.1029 199.406 -10.3455C196.952 -7.95743 194.415 -5.65932 191.955 -3.27981C188.504 0.0579129 185.128 3.47327 181.669 6.80266C179.714 8.68387 177.699 10.5036 175.75 12.3896C171.493 16.5101 167.314 20.7093 163.025 24.7976C160.252 27.4409 157.474 30.0592 154.744 32.7482C153.512 33.9614 152.193 35.1482 151.051 36.4427C150.104 37.5167 148.996 39.4366 148.579 40.7934C148.22 41.9652 148.235 43.6495 147.269 44.4865L146.847 44.6028C146.434 44.3667 146.148 44.0328 146.02 43.567C145.811 42.8033 146.057 41.6785 146.17 40.8992L138.115 48.8501C137.512 49.4492 136.46 50.279 136.081 51.0153C135.69 51.7742 135.637 53.0061 135.632 53.8531C135.629 54.4 135.71 54.8862 135.391 55.3682C135.129 55.5677 135.053 55.6988 134.71 55.6414C134.34 55.5801 134.006 55.3375 133.806 55.0267C133.526 54.5924 133.379 54.028 133.286 53.5248L129.79 56.8362C131.294 59.6477 132.276 63.3695 131.321 66.5026L130.54 68.6237C132.31 66.8765 134.097 65.146 135.9 63.4324C137.287 62.1142 139.001 60.6787 140.097 59.1185C140.277 58.8622 140.38 58.6065 140.383 58.2906C140.403 56.4335 139.637 54.8551 140.349 52.9937C140.716 52.648 140.825 52.5089 141.323 52.3813C141.78 52.5449 142.041 52.7031 142.26 53.1576C142.654 53.9732 142.381 55.1001 142.268 55.9613C143.168 54.5013 144.349 52.7861 146.148 52.3866C146.587 52.2891 147 52.341 147.44 52.4044C148.866 51.0757 150.229 49.6786 151.601 48.2949C152.506 47.3818 153.525 46.4889 154.216 45.3999C154.851 44.4003 154.729 42.6717 155.451 41.9036C156.207 41.0996 157.795 41.5606 158.772 40.9761C159.706 40.4176 160.687 39.1564 161.479 38.362C177.136 22.6639 192.834 7.00709 208.522 -8.66044C210.787 -10.9231 213.054 -13.1842 215.318 -15.4482C216.125 -16.2557 217.368 -17.8911 218.389 -18.3306L218.717 -18.2768L218.786 -17.9652C217.657 -16.4125 215.97 -15.0227 214.598 -13.651C211.664 -10.7171 208.728 -7.78498 205.792 -4.85263C195.547 5.38027 185.326 15.6363 175.082 25.87C171.648 29.3001 168.214 32.7308 164.783 36.1633C163.121 37.8256 161.272 39.4642 159.736 41.2337C159.354 41.6734 159.116 42.2306 159.055 42.8087C158.988 43.4469 159.107 44.346 158.647 44.8508C157.984 45.5793 156.018 45.6258 155.067 46.1719C153.939 46.8204 153.023 47.893 152.111 48.8058C150.733 50.1844 149.36 51.5695 147.991 52.9569C148.178 53.971 148.092 54.5867 147.51 55.4391C146.714 56.6047 145.539 57.4839 144.328 58.1863C145.215 58.0539 146.239 57.7807 147.1 58.0993L147.241 58.1498C147.618 58.3 147.822 58.6188 148.044 58.9388C148.029 59.3761 147.928 59.5625 147.601 59.8645C146.941 60.474 145.604 60.4469 144.748 60.3802C143.563 60.2884 142.029 59.6587 141.007 60.5078C138.571 62.5303 136.4 65.067 134.201 67.3474C133.59 67.9808 132.304 68.9785 132.004 69.7554ZM67.4546 139.168C67.8999 139.353 68.4102 139.701 68.8781 139.504C69.4901 139.247 70.124 138.728 70.565 138.239C71.6657 137.018 72.5454 135.438 73.4515 134.065C73.9756 133.271 74.6565 132.52 74.9854 131.613C75.261 130.854 75.3382 129.881 75.386 129.079L71.3362 124.995L69.2428 125.304C67.8746 125.729 66.7628 126.661 65.5925 127.449C64.4155 128.242 63.1334 128.958 62.0927 129.934C61.5413 130.451 61.1086 131.114 60.6876 131.739C61.141 132.823 61.5204 133.537 62.6753 134.007C64.3111 134.672 65.2353 135.2 65.9981 136.853C66.3669 137.653 66.607 138.299 67.2293 138.947L67.4546 139.168ZM120.697 89.1585C121.638 88.7134 122.587 88.2175 123.596 87.9467L123.694 87.9198C124.692 87.6563 125.651 88.3569 126.614 87.9306C127.605 87.4925 128.534 86.2901 129.31 85.514C132.325 82.4962 135.196 79.3041 138.113 76.188C136.619 76.7116 135.27 76.9829 133.679 76.9684C130.477 76.8083 128.019 76.8332 124.985 77.9373C123.871 78.3429 122.889 78.7448 121.99 79.5542C120.32 81.0564 119.609 82.7006 119.513 84.948C119.441 86.6533 119.76 87.7506 120.697 89.1585ZM111.585 79.9453C113.285 81.0241 115.253 81.1061 117.187 80.6701C117.731 80.5473 118.211 80.3845 118.716 80.1484C120.651 79.2437 121.811 77.3055 122.496 75.3837C123.163 73.513 123.568 71.7524 123.556 69.753C123.548 68.4335 123.377 67.107 123.459 65.7896C123.557 64.5641 123.766 63.5012 124.116 62.3235C122.009 64.3578 119.898 66.3879 117.746 68.376C116.112 69.8862 114.144 71.4604 112.807 73.2339C112.556 73.5678 112.307 73.9941 112.31 74.4223C112.313 75.0485 112.615 75.6577 112.574 76.2732C112.52 77.0616 112.114 77.8943 111.776 78.6016C111.666 78.8324 111.419 79.1964 111.369 79.4349C111.357 79.4911 111.395 79.5464 111.409 79.6017C111.447 79.7487 111.477 79.8328 111.585 79.9453ZM107.076 106.108C107.717 106.375 108.424 106.601 109.033 106.923C111.096 108.017 112.987 109.701 114.767 111.209C119.587 115.294 123.696 119.897 127.486 124.931C128.045 125.673 128.656 126.647 129.776 126.22C130.431 125.971 131.534 124.829 131.795 124.18C131.993 123.689 131.979 123.113 131.981 122.591C130.782 122.087 129.991 121.268 129.048 120.401C127.51 118.985 126.073 117.47 124.628 115.961C123.237 114.5 121.985 112.969 120.644 111.473C119.069 109.713 117.555 107.992 116.089 106.137C115.666 105.602 115.167 105.141 114.754 104.589C113.849 103.38 113.003 101.753 112.595 100.301L109.617 100.735C110.447 101.639 111.125 102.672 111.844 103.663C112.774 104.946 113.553 105.859 114.152 107.359L114.069 107.694C113.704 107.71 113.351 107.431 113.008 107.308C112.367 107.079 111.645 106.398 111.083 105.989C109.823 105.075 108.546 104.185 107.286 103.269C107.173 103.811 106.661 105.677 107.009 106.058L107.076 106.108ZM94.3483 93.5976L97.1512 93.1699C96.3493 92.0527 95.5741 90.9169 94.7741 89.7984C93.8661 88.5283 93.0551 87.4922 92.5085 86.0037C93.2612 86.3153 94.1073 86.6296 94.8039 87.0549C95.6506 87.5722 96.427 88.3094 97.2285 88.9052C98.0618 89.5246 98.9247 90.0828 99.7048 90.7721L100.054 87.7716C98.4495 87.5107 96.4866 86.2447 95.2453 85.222C94.8168 84.8688 94.4498 84.4266 94.0182 84.09C92.0647 82.5674 90.2753 80.9983 88.4395 79.3323C86.9331 77.965 85.3887 76.6774 83.9115 75.262C81.8681 73.297 78.9789 70.9564 77.7919 68.3429C76.2422 68.5603 75.3828 68.8915 74.4155 70.1951C74.2188 70.46 74.0561 70.8211 74.095 71.1566C74.1283 71.4429 74.2538 71.7414 74.355 72.0097C76.5148 73.6908 78.7243 75.2706 80.797 77.0645C82.188 78.2685 83.4653 79.6259 84.7671 80.9245C86.6601 82.8127 88.4223 84.7103 90.1383 86.7626C91.8691 88.8329 93.5618 90.9774 94.3483 93.5976ZM55.0292 145.525C56.9739 145.752 58.818 145.602 60.5718 144.652C60.9944 144.423 61.5164 143.982 61.9714 143.882C62.3508 143.798 62.4481 143.954 62.7478 144.165C62.8667 144.697 62.484 145.243 62.3502 145.76C62.1367 146.584 62.1338 147.683 62.4219 148.489C62.7619 148.692 62.9719 148.903 63.3918 148.778C64.4635 148.458 65.3261 146.873 65.7315 145.919C66.2786 144.63 66.8591 142.769 66.4735 141.396C66.2931 140.754 65.6677 140.388 65.3352 139.831C64.6929 138.756 64.4556 137.417 63.5469 136.518C62.6303 135.968 61.5671 135.705 60.6586 135.182C60.1892 134.911 59.7394 134.419 59.357 134.03C57.5874 133.515 55.4021 134.138 53.809 135.005C52.9792 135.457 51.8664 136.19 51.55 137.127C51.6354 137.481 51.7023 137.738 51.9526 138.016C52.8898 138.309 54.0218 138.239 54.9569 137.962C55.2132 137.887 55.6757 137.667 55.9252 137.661C56.2653 137.653 56.4176 137.887 56.613 138.115C56.56 138.843 55.96 139.36 55.6471 139.986C54.982 141.316 54.2672 144.185 55.0292 145.525ZM105.429 90.8533C107.789 89.3597 110.145 87.8425 112.57 86.4555C113.235 86.0752 114.11 85.4409 114.851 85.3037L115.111 85.424C115.124 86.0472 114.5 86.8195 114.188 87.3726C113.2 89.122 112.165 90.8366 111.108 92.5451C110.722 93.1699 110.111 93.896 109.816 94.5472C109.739 94.7172 109.68 94.8905 109.791 95.0471L113.689 96.243C115.237 93.6946 117.01 91.6707 119.466 89.9472C118.079 88.1613 117.973 85.8329 118.238 83.6798C118.324 82.9744 118.49 82.3407 118.748 81.6772C116.192 82.4248 113.434 82.692 111.008 81.3572L110.384 80.9922C110.055 81.5316 109.681 82.01 109.282 82.4981C107.672 84.1418 106.131 85.5524 104.136 86.7403L105.429 90.8533ZM94.34 110.995C94.9336 110.931 95.7027 110.915 96.2475 110.67C97.015 110.325 97.6986 109.611 98.3866 109.12C99.7837 108.124 101.198 107.197 102.708 106.381L101.848 102.208C99.2132 103.732 96.7813 105.617 94.1694 107.187C93.8766 107.363 93.1435 107.931 92.8418 107.979C92.7733 107.989 92.5995 107.931 92.5235 107.916C92.4402 107.658 92.3876 107.617 92.52 107.353L93.6808 105.508L98.2096 98.578L93.983 97.7807C93.1545 99.3516 92.1257 100.793 91.1027 102.243C90.6471 102.889 89.9288 103.58 89.6562 104.32C89.4625 104.846 89.5052 105.464 89.377 106.016L94.34 110.995ZM124.925 73.5882C128.05 70.1664 130.074 66.1824 129.819 61.4311C129.762 60.3625 129.184 58.6777 128.589 57.7839C127.881 58.8998 127.028 59.8967 126.325 60.9994C124.558 63.7706 124.883 66.674 124.985 69.7892C125.012 70.6059 125.023 71.4349 124.99 72.2512C124.973 72.6859 124.841 73.1635 124.925 73.5882ZM126.983 75.5734C130.576 74.9665 134.286 76.2084 137.792 74.9096C138.87 74.5101 139.799 73.8466 140.686 73.1323C141.119 72.7839 141.915 72.4084 142.24 72.0218C142.363 71.8751 142.37 71.8085 142.353 71.6328L140.207 70.8431C138.057 69.9805 134.111 70.9672 132.06 71.8604C130.434 72.5685 128.064 73.9653 126.985 75.3735L126.983 75.5734ZM89.7808 114.84C90.5061 114.918 91.0681 115.029 91.6787 114.538L92.9917 113.289C92.8628 112.631 92.7787 111.804 92.5222 111.19C92.113 110.209 90.4403 108.702 89.5659 108.115C89.3811 107.99 89.2118 107.856 88.9873 107.83C88.3971 107.695 87.4488 107.344 86.9016 107.64C86.4845 107.866 85.6256 108.866 85.5096 109.325C85.4145 109.699 85.5168 110.216 85.5977 110.589C86.9672 111.897 88.6759 113.309 89.7808 114.84ZM84.9328 119.01C85.5163 119.03 86.0759 119.054 86.6537 118.955L88.2096 117.482L88.3743 115.888L84.6118 112.083L82.8937 112.239L81.417 113.806L81.41 115.472L84.9328 119.01ZM80.3909 123.746C80.7444 123.69 81.2808 123.654 81.5914 123.48C82.2412 123.116 82.9509 122.227 83.4946 121.691L83.7471 120.303L80.0892 116.62L78.6485 116.96C77.9321 117.664 76.6932 118.585 76.7061 119.666C76.7117 120.152 77.3022 120.652 77.635 120.987C78.5483 121.907 79.5143 122.792 80.3909 123.746ZM102.246 99.5002C103.277 99.7242 104.315 99.8016 105.239 99.1913C105.863 98.7789 106.369 98.2352 106.506 97.4833C106.623 96.8381 106.439 95.8831 106.046 95.3536C105.746 94.9504 105.38 94.5684 104.978 94.2667C104.13 93.9952 103.154 93.6626 102.301 94.1177C101.689 94.4438 101.011 95.3055 100.838 95.9725C100.666 96.6377 100.647 97.6397 101.026 98.2451C101.313 98.704 101.845 99.1348 102.246 99.5002ZM76.6215 127.878C77.4827 127.756 78.0852 127.74 78.6569 126.992C79.0184 126.518 78.9553 125.762 78.9655 125.192C77.9076 123.924 76.5497 122.417 75.2383 121.419C74.401 121.485 73.5833 121.447 72.9802 122.132C72.6355 122.523 72.6014 123.241 72.542 123.736C73.8597 125.056 75.4978 126.401 76.6215 127.878ZM70.3973 69.5784C71.0442 69.9727 71.6486 70.3058 72.3666 70.5624C73.6668 68.9694 74.6607 67.7219 76.619 66.9482L75.4467 65.1667C75.0983 64.8371 74.8163 64.4153 74.3008 64.4081C72.9536 64.389 71.5057 65.8756 70.6925 66.8386C70.2909 67.3138 69.9487 68.2019 70.0271 68.8305C70.0623 69.1134 70.2179 69.3651 70.3973 69.5784ZM131.114 130.337C131.995 130.39 132.714 130.33 133.43 129.779C134.27 129.134 135.411 128.079 135.752 127.06L135.843 126.837C136 126.478 136.008 126.265 135.958 125.88C135.653 125.308 135.166 124.852 134.609 124.52L133.587 123.889L133.363 124.002L133.323 124.134C132.797 125.801 131.154 126.991 129.818 127.986C130.141 128.825 130.489 129.671 131.114 130.337Z" fill="#767147"/>
</g>
<defs>
<clipPath id="clip0_202_38">
<rect width="200" height="200" fill="white"/>
</clipPath>
</defs>
</svg>
