<svg width="200" height="200" viewBox="0 0 200 200" fill="none" xmlns="http://www.w3.org/2000/svg">
<path d="M63.8191 51.7441H95.6373L100.94 52.8047L102.531 55.7214L101.736 59.4335L98.2888 61.8199V76.6684L100.41 80.3805L114.728 88.335L120.827 92.8426L125.334 97.8805V110.077L117.38 127.577L106.508 145.343L94.0463 160.721L83.9706 168.676L78.6676 169.206L72.0388 166.29L61.1676 155.684L47.91 137.388L36.5085 115.115L33.5918 104.774L34.9176 98.676L40.2206 90.9866L48.4403 86.479L59.0463 80.3805L61.1676 76.4032V61.8199L58.2509 59.4335L57.4554 56.5169L57.7206 53.8654L59.3115 52.5396L63.8191 51.7441Z" fill="#F2E3E3"/>
<path d="M49.2372 124.66L45.5251 116.705L42.0781 106.629V101.857L44.9948 95.7583L53.2145 91.2507L62.7599 86.7431L68.063 81.7053V61.0234H91.9266V80.1143L93.7827 84.6219L99.8812 88.334L113.934 95.228L118.177 101.857L117.116 111.667L103.593 136.326L89.2751 156.213L80.7902 161.516L72.8357 158.599L66.7372 150.91L49.2372 124.66Z" fill="#D8CECE"/>
<path d="M46.0547 118.827L47.1153 112.199L51.888 105.305L57.9865 104.244L68.3274 107.691L78.4032 116.706L91.6608 128.373L101.471 131.82L108.63 129.168L99.085 142.691L85.5623 159.131L79.7289 162.047L73.6304 157.805L66.7365 151.706L57.9865 139.774L46.0547 118.827Z" fill="#FDD571"/>
<path d="M86.6223 118.825H82.3799L88.4784 125.719L94.5769 130.227L100.145 131.553L107.304 130.227L109.16 127.31L107.304 121.742L103.327 118.825L96.6981 117.234L86.6223 118.825Z" fill="#EDB066"/>
<path d="M99.6151 95.4928L96.1681 93.6367L94.3121 94.167L93.5166 96.2882L94.3121 99.7352L100.676 107.159L102.797 107.955V103.182L101.736 98.4094L99.6151 95.4928Z" fill="#F2E3E3"/>
<path d="M64.8799 35.5696L65.6753 33.7135L70.7132 31.5923L79.9935 30.7969L91.6602 32.3878L94.0466 34.7741L91.6602 48.8272V51.7438H68.0617L64.8799 35.5696Z" fill="#D5AE3B"/>
<path d="M76.8455 30.0772L77.3351 30.0477C80.0034 29.8976 82.3932 30.1223 85.0152 30.4355C88.1889 30.8146 92.054 31.1987 94.5287 33.4111C94.7457 34.0844 95.0123 34.8426 94.9938 35.5561C94.9486 37.2583 94.4084 39.1823 94.1033 40.8633C93.5217 44.0615 92.9843 47.254 92.4473 50.459L92.5382 50.455C95.0639 50.1069 98.2991 50.5139 100.675 51.4399C101.77 51.8666 102.58 52.845 103.035 53.8967C103.495 54.963 103.506 56.5654 103.272 57.7047C102.82 59.8999 101.243 61.0881 99.51 62.2623C99.4067 65.0438 99.4817 67.8486 99.4899 70.6333C99.4953 72.5036 99.2886 74.771 99.7195 76.5999C100.064 78.0632 100.91 78.8607 102.016 79.7958C104.302 81.727 106.63 82.6072 109.273 83.9139C111.611 85.0704 113.923 86.2281 116.157 87.5783C120.912 90.4538 125.318 94.5093 126.653 100.133C127.279 102.772 126.73 106.007 126.168 108.605C125.091 113.573 123.432 118.299 121.201 122.874C120.351 124.62 119.351 126.279 118.415 127.978C117.804 129.088 117.305 130.254 116.661 131.348C115.283 133.686 113.739 135.938 112.322 138.255C110.214 141.705 107.775 144.901 105.354 148.131C104.007 149.928 102.603 151.676 101.248 153.465C100.508 154.441 99.8517 155.473 99.0629 156.412C96.6377 159.297 93.9357 161.898 91.182 164.465C89.6147 165.926 88.0469 167.467 86.1707 168.536C85.2524 169.06 84.1487 169.364 83.1287 169.61C81.9487 169.895 80.8477 170.006 79.6329 170C77.8938 169.99 75.6688 169.531 74.1092 168.746C72.2591 167.814 70.6945 166.355 69.1833 164.965C67.4964 163.412 65.8432 161.831 64.2302 160.201C62.9839 158.942 61.7224 157.628 60.6192 156.24C59.6623 155.035 58.8218 153.741 57.8633 152.537C53.4564 147.003 49.4743 141.362 45.7202 135.377C44.8155 133.934 43.8418 132.525 42.9888 131.052C42.4312 130.089 41.9938 129.054 41.4585 128.076C40.426 126.19 39.3255 124.34 38.3936 122.4C36.6066 118.678 35.1688 114.745 34.1635 110.749C33.4786 108.027 32.9744 105.461 33.001 102.642C33.0897 93.3087 42.225 87.9319 49.5722 84.3094C52.8286 82.7035 56.0213 81.64 58.6684 79.0038C59.1863 78.4875 59.752 77.7836 59.9778 77.0786C60.6012 75.1284 60.3564 72.6037 60.3575 70.5686C60.3591 67.7811 60.3559 64.9943 60.3591 62.2068C59.0791 61.4686 57.7958 60.6125 57.112 59.2473C56.463 57.9518 56.1606 55.6569 56.6785 54.2555C57.0598 53.2245 57.6359 52.3621 58.5422 51.7124C60.228 50.5034 65.3879 50.0988 67.3664 50.4364C66.8964 48.0914 66.6352 45.6795 66.1979 43.32C65.9133 41.7865 65.6299 40.2479 65.3198 38.7192C65.1126 37.6985 64.7933 36.5038 64.7998 35.4688C64.8047 34.7385 65.0957 34.0264 65.3634 33.3589C68.0284 30.6564 73.3068 30.6579 76.8455 30.0772ZM61.9819 52.3498C60.6311 52.6872 59.3761 52.9527 58.6374 54.2443C58.126 55.1383 58.033 56.4161 58.323 57.3933C58.6635 58.5403 59.412 59.6754 60.5011 60.2268C61.093 60.5262 61.8742 60.5623 62.132 61.2407C62.4965 62.2003 62.3442 63.9503 62.3523 64.9894C62.3714 67.4868 62.3692 69.9849 62.3861 72.4829C62.3931 73.5317 62.5689 74.7715 62.4552 75.7926C62.3377 76.8501 61.9819 78.0094 61.4553 78.9282C60.8471 79.9901 59.8864 80.8376 58.9567 81.6177C56.7584 83.4597 54.2033 84.6624 51.6514 85.9316C46.5781 88.4563 39.9054 91.3705 36.921 96.4389C35.838 98.2787 35.3598 100.489 35.2989 102.602C35.2526 104.226 35.2755 105.958 35.6862 107.537C36.2563 109.73 36.8063 112.016 37.582 114.144C39.0007 118.036 40.8748 121.733 42.8125 125.388C45.1332 129.766 47.6976 133.993 50.3806 138.156C50.929 139.006 51.3663 139.909 51.9375 140.752C55.2238 145.602 58.8452 150.194 62.5438 154.732C63.22 155.562 63.8217 156.459 64.5196 157.268C66.3828 159.43 68.5729 161.542 70.6673 163.482C71.6726 164.412 72.6361 165.412 73.8187 166.119C76.4141 167.671 79.8756 168.117 82.7979 167.362C86.4008 166.431 89.0142 163.832 91.4855 161.182C92.6992 159.962 93.9955 158.767 95.1298 157.477C96.0312 156.452 96.8216 155.29 97.6871 154.227C101.337 149.742 104.864 145.199 108.117 140.416C109.722 138.056 111.198 135.49 112.67 133.04C117.03 125.784 121.23 118.272 123.426 110.054C124.089 107.571 124.582 105.527 124.575 102.924C124.566 99.3678 123.249 96.2115 120.722 93.708C118.414 91.4211 115.631 89.7483 112.778 88.2316C108.683 86.0551 104.118 84.3578 100.576 81.3152C99.6417 80.5128 98.7735 79.705 98.1696 78.6132C97.6474 77.6683 97.4102 76.4421 97.4026 75.3704C97.3825 72.5368 97.4385 69.6966 97.4581 66.8618C97.47 65.1683 97.321 63.2377 97.6115 61.5807C97.6621 61.2949 97.7665 60.9761 97.9743 60.7687C98.261 60.483 98.7892 60.4951 99.157 60.3491C100.534 59.8023 101.567 57.8914 101.657 56.4653C101.712 55.5798 101.526 54.4482 100.916 53.7558C100.619 53.4196 100.309 53.1866 99.905 52.9931L99.7777 52.9293C99.1521 52.6256 98.2344 52.3745 97.5359 52.3269C95.2478 52.171 92.7732 52.388 90.4694 52.4119C85.9319 52.4589 81.3939 52.4484 76.8558 52.4469C73.8535 52.4459 70.8474 52.4726 67.8456 52.4135C65.9661 52.3764 63.832 52.1303 61.9819 52.3498ZM75.1145 31.8425C73.3155 32.1314 67.696 32.7548 66.5999 34.2558C66.2071 34.7935 66.3077 35.7292 66.4231 36.3517C66.5836 37.2143 66.9083 38.0677 67.1047 38.9319C67.7118 41.6079 68.2689 44.3175 68.6687 47.0309C68.8395 48.1878 69.0729 49.1932 69.0402 50.3859C70.8779 50.1156 72.8803 50.2603 74.7408 50.2595C78.0744 50.2581 81.4075 50.261 84.7411 50.265L90.774 50.3372C90.799 49.0898 91.0134 47.9459 91.2027 46.7191C91.5693 44.3414 92.0333 41.9383 92.5828 39.5946C92.8749 38.3469 93.2775 37.0749 93.4619 35.8088C93.5348 35.306 93.5957 34.7067 93.309 34.2617C90.3383 31.5008 80.1693 31.6294 76.1073 31.7814L75.1145 31.8425Z" fill="#D5AE3B"/>
<path d="M68.5559 60.0022L89.2093 59.9345C90.189 59.952 91.6828 59.7928 92.322 60.6953C92.5353 60.9965 92.5304 61.5101 92.5614 61.8659C92.6598 62.986 92.7164 64.0854 92.7289 65.2099C92.761 68.136 92.7692 71.0622 92.7567 73.9884C92.749 75.6492 92.6299 77.4253 92.8013 79.0758C92.8927 79.9593 93.1445 80.9232 93.4981 81.7387C93.9817 82.8544 94.8021 83.9212 95.7579 84.6735C97.6445 86.1586 99.9951 87.0481 102.181 87.9838C104.558 89.0016 106.878 90.0852 109.176 91.2706C111.581 92.5109 113.973 93.848 115.861 95.8119C118.087 98.1293 119.808 100.887 119.725 104.2C119.661 106.758 118.729 109.375 117.9 111.776C117.124 114.025 116.42 116.425 115.425 118.586C114.741 120.07 113.892 121.473 113.098 122.9C111.642 125.518 110.184 128.084 108.616 130.64C106.495 134.099 104.366 137.582 102.074 140.931C101.104 142.347 100.038 143.684 99.0366 145.076C95.5066 149.986 91.8879 154.667 87.512 158.863C86.5834 159.691 85.6564 160.487 84.5809 161.121C82.5273 162.333 80.167 162.812 77.8392 162.194C71.7497 160.576 64.6331 150.391 61.0074 145.369C56.9601 139.762 53.0939 134.015 49.6145 128.029C47.8987 125.077 46.0486 122.05 44.5847 118.967C43.7426 117.191 43.1801 115.311 42.5403 113.459C41.5138 110.488 40.2343 107.402 40.1516 104.222C40.1321 103.469 40.1152 102.629 40.3197 101.903C42.3951 94.5329 50.0393 91.2233 56.4688 88.4391C58.3549 87.6225 60.2975 86.8914 62.0981 85.8905C63.9303 84.8721 65.3876 83.7422 66.2929 81.7855C67.475 79.2319 67.0566 75.8782 67.055 73.1267C67.0534 70.559 67.0604 67.9903 67.0887 65.4226C67.104 64.0164 66.9984 62.3115 67.4157 60.9673C67.6137 60.3291 68.0032 60.271 68.5559 60.0022ZM69.0634 61.6758C69.0629 65.8953 69.058 70.1151 69.0542 74.3343C69.0531 75.8118 69.0515 77.2899 69.0411 78.7674C69.0346 79.7498 69.089 80.7334 68.8301 81.6897C68.0592 84.5359 65.0607 86.967 62.598 88.3858C60.7985 89.4232 58.6459 90.0934 56.7256 90.8963C54.1046 91.9919 51.5571 93.2442 49.0721 94.6189C47.8982 95.2679 46.7095 95.8429 45.7826 96.8351C44.5809 98.1222 43.7431 100.016 43.2682 101.7C42.0698 105.948 44.131 110.212 45.51 114.152C45.677 113.158 45.8359 112.145 46.1737 111.192C46.925 109.073 48.7756 106.359 50.6067 105.049C53.9322 102.671 58.1781 102.396 62.1313 103.067C64.1958 103.417 67.0588 104.655 68.7615 105.846C69.7728 106.553 70.4125 107.522 71.2944 108.35C73.0847 110.031 75.0197 111.576 76.7441 113.325C77.8348 114.432 78.9712 115.971 80.3367 116.718C81.9703 117.613 84.959 117.744 86.7401 117.383C91.9706 116.498 97.1043 115.972 102.282 117.385C103.53 117.725 104.926 118.152 105.996 118.903C107.701 120.101 108.948 121.996 109.614 123.953C111.545 119.648 113.819 115.599 115.393 111.123C116.639 107.577 117.618 104.35 116.218 100.647C115.739 99.3778 115.089 97.9753 114.175 96.9624C113.134 95.8075 111.77 95.1389 110.425 94.4051C108.407 93.3057 106.357 92.2987 104.258 91.3642C101.952 90.3376 99.438 89.5804 97.2256 88.3743C95.7813 87.5877 94.201 86.3131 93.0874 85.1289C92.4172 84.4151 91.6834 83.5698 91.3145 82.6591C91.0752 82.0689 90.9103 81.4988 90.851 80.8601C90.653 78.7228 90.8141 76.4385 90.8113 74.2848C90.807 70.0977 90.7673 65.9067 90.8206 61.7206C86.443 61.9678 81.979 61.8081 77.5906 61.8078C74.8418 61.8077 71.7676 62.0678 69.0634 61.6758ZM55.9395 105.293C53.2924 105.986 50.8336 107.376 49.442 109.817C48.2354 111.933 47.8084 114.335 47.8541 116.745C47.8655 117.356 47.8383 118.101 47.9885 118.691C48.1375 119.277 48.4536 119.866 48.6766 120.43C49.5514 122.646 50.7122 124.688 51.8976 126.752C54.8406 131.878 57.9746 137.009 61.3784 141.843C63.469 144.812 65.7124 147.601 67.9319 150.468C68.718 151.482 69.4159 152.634 70.2613 153.59C71.9798 155.532 73.9164 157.529 76.2203 158.759C77.8724 159.642 79.6159 160.169 81.4453 159.595C84.9062 158.51 87.4859 155.92 89.8223 153.258C91.4723 150.975 93.2626 148.831 94.9669 146.593C97.4323 143.356 99.7127 140.04 101.885 136.601C102.755 135.222 103.685 133.887 104.472 132.457C101.742 133.629 98.3832 132.796 95.7269 131.716C93.0406 130.623 90.5442 128.958 88.2099 127.263C87.4032 126.677 86.5187 126.149 85.7766 125.485C83.117 123.104 80.8448 120.403 78.3429 117.884C76.168 115.694 73.8114 113.637 71.4935 111.6C69.9338 110.228 68.1762 108.395 66.3674 107.401C63.0327 105.567 59.6947 104.989 55.9395 105.293ZM92.2518 118.893C90.4458 119.012 88.7713 119.227 87.0028 119.614C86.1808 119.795 85.0749 120.303 84.2627 120.127C84.2676 120.434 84.4879 120.559 84.7017 120.767C85.9654 121.992 87.3395 123.076 88.6609 124.236C91.2667 126.523 93.8969 129.097 97.3899 129.953C98.2913 130.173 99.2574 130.231 100.183 130.305C101.666 130.454 104.522 130.483 105.736 129.509C106.658 128.768 107.569 127.272 107.687 126.077C107.807 124.85 107.105 123.399 106.317 122.479C104.139 119.936 100.263 119.062 97.0499 118.864L92.2518 118.893Z" fill="#D5AE3B"/>
<path d="M95.2015 93.0298C95.5725 93.0026 95.9484 92.9809 96.3194 93.026C98.2316 93.2616 99.7281 94.4024 100.875 95.9098C103.21 98.9823 103.83 102.686 103.859 106.46C103.866 107.313 103.942 108.262 103.803 109.104C103.715 109.638 103.548 110.046 103.103 110.375C102.576 110.449 102.296 110.288 101.852 110.047C101.095 108.999 100.573 107.8 99.7368 106.798C99.2276 106.189 98.5433 105.746 98.0004 105.168C97.4727 104.606 97.0864 103.923 96.5354 103.382C95.2053 102.075 93.6511 101.059 93.0658 99.1792C92.6039 97.6952 92.4521 95.9299 93.2192 94.5161C93.693 93.6429 94.2669 93.3013 95.2015 93.0298ZM95.4985 94.639C94.8392 95.0943 94.6711 95.5045 94.5329 96.3063C94.3148 97.5695 94.6771 98.787 95.4126 99.8195L101.685 106.52L101.879 106.916L102.038 106.857C102.194 106.143 102.044 105.348 101.976 104.624C101.721 101.929 101.348 99.7683 99.8331 97.4433C98.9382 96.0702 97.7849 95.0285 96.1453 94.6945C95.9299 94.6504 95.7188 94.6319 95.4985 94.639Z" fill="#D5AE3B"/>
<path d="M89.8856 51.7441H111.098L124.355 52.2744L127.537 55.4563L126.742 59.4335L123.295 62.3502L123.56 77.9941L125.681 80.3805L130.984 84.6229L137.878 90.9866L143.181 98.676L147.423 107.161L149.545 115.911L150.605 126.782L148.219 138.184L142.12 149.585L134.696 158.07L125.416 164.434L115.87 167.881L107.12 168.941H96.2492L86.9689 166.024L77.9537 160.456L70.2644 153.827L64.431 146.403L60.1886 136.593L58.0674 127.312L58.8628 116.176L61.2492 107.161L65.2265 98.676L69.734 93.1078L76.628 85.6835L84.0522 80.3805L85.9083 77.4638V62.8805L84.0522 61.2896L81.931 58.1078V54.6608L84.5825 52.2744L89.8856 51.7441Z" fill="#F2E3E3"/>
<path d="M91.7407 81.7057L92.5362 61.2891H115.339L116.665 81.7057L122.498 85.9482L130.188 93.3724L137.082 101.592L141.324 110.077L142.915 121.744V127.842L139.203 123.6L131.513 121.744H122.498L115.339 122.804L112.423 120.948L101.286 110.872L93.8619 105.835L84.8468 104.244L78.7483 105.835L72.6498 109.281L68.6725 114.319L65.7559 116.971L67.0816 109.281L71.5892 101.592L78.7483 92.5769L86.7028 85.9482L91.7407 81.7057Z" fill="#D8CECE"/>
<path d="M123.559 95.4928L120.112 93.6367L118.256 94.167L117.461 96.2882L118.256 99.7352L124.62 107.159L126.741 107.955V103.182L125.681 98.4094L123.559 95.4928Z" fill="#F2E3E3"/>
<path d="M64.9609 127.309V119.089L72.6503 109.809L77.4231 106.627L84.8473 104.506L93.5973 105.832L100.491 110.339L109.506 118.559L117.196 125.983L129.658 134.733H138.408L142.65 131.021L141.059 137.915L133.105 149.316L123.559 156.741L110.832 161.779H101.022L89.8852 159.392L80.87 153.824L72.6503 146.665L67.3473 137.65L64.9609 127.309Z" fill="#D92726"/>
<path d="M123.559 130.229L115.604 123.6L119.582 122.274L124.089 121.744L132.044 122.009L138.938 123.865L141.589 127.577V131.29L138.142 134.737H129.392L123.559 130.229Z" fill="#6E1702"/>
<path d="M89.3545 35.5696L90.1499 33.7135L95.1878 31.5923L104.468 30.7969L116.135 32.3878L118.521 34.7741L116.135 48.8272V51.7438H92.5363L89.3545 35.5696Z" fill="#D5AE3B"/>
<path d="M101.82 30.0717L104.382 30C106.186 30.002 107.863 30.2725 109.645 30.5195C112.662 30.9378 116.708 31.3179 118.947 33.5596C119.151 34.1912 119.391 34.8798 119.387 35.5499C119.379 36.9252 118.927 38.471 118.689 39.8331C118.061 43.4314 117.367 46.9964 116.848 50.6145C118.607 50.4462 120.729 50.5218 122.45 50.9028C124.283 51.3084 126.136 51.7495 127.182 53.4693C127.941 54.718 128.048 56.4978 127.71 57.9041C127.173 60.15 125.803 61.3405 123.937 62.5132L123.911 63.8108C123.899 66.4147 123.913 69.0193 123.92 71.6236C123.926 73.4504 123.747 75.5744 124.249 77.3431C124.526 78.3195 125.156 79.1765 125.894 79.8613C126.643 80.5576 127.656 80.9211 128.448 81.5658C129.99 82.8202 131.649 83.9634 133.157 85.2507C134.697 86.5649 136.164 88.0836 137.589 89.5266C139.01 90.9669 140.267 92.7724 141.484 94.3925C143.65 97.2753 145.725 100.406 147.208 103.706C148.632 106.874 149.588 110.414 150.314 113.791C150.709 115.628 151.143 117.524 151.32 119.397C151.554 121.869 151.479 124.451 151.467 126.931C151.446 131.137 150.227 135.04 148.666 138.907C145.763 146.095 141.87 152.199 136.327 157.672C133.609 160.355 130.374 162.398 127.061 164.256C124.411 165.741 121.698 167.142 118.787 168.065C117.145 168.584 115.399 168.827 113.719 169.204C113.01 169.363 112.357 169.755 111.654 169.866C110.102 170.11 108.334 169.949 106.758 169.937L98.4945 169.953C97.8733 169.947 97.1901 169.959 96.581 169.823C95.8206 169.653 95.1051 169.265 94.3183 169.091C92.7947 168.754 91.2179 168.555 89.7277 168.088C86.7693 167.159 83.9874 165.739 81.2992 164.224C77.7936 162.249 74.4876 160.15 71.6465 157.251C68.1211 153.654 64.9867 149.672 62.5787 145.237C61.4038 143.073 60.4679 140.809 59.5633 138.524C58.5336 135.925 57.5434 133.164 57.1366 130.38C56.8724 128.572 56.9327 126.622 56.9497 124.797C56.9667 122.908 56.9212 120.972 57.1114 119.093C57.5051 115.198 58.5029 111.307 59.7612 107.612C60.1872 106.359 60.5704 105.026 61.1214 103.823C64.2093 97.0812 69.1711 90.7723 74.6055 85.7705C75.6192 84.8373 76.7596 84.0412 77.8512 83.2013C78.6467 82.5889 79.3995 81.9079 80.2093 81.318C80.9675 80.7648 81.8628 80.477 82.541 79.802C83.1913 79.1545 83.8651 78.2669 84.1327 77.3804C84.71 75.4686 84.4781 73.0354 84.4786 71.0517C84.4797 68.2119 84.4764 65.3719 84.4808 62.5319C83.6469 61.9245 82.7593 61.4772 82.052 60.6981C80.689 59.1965 80.45 57.3676 80.5936 55.4254C80.6808 54.2455 81.3069 53.0334 82.2165 52.2686C82.932 51.6673 83.7226 51.4502 84.6058 51.2041C86.8537 50.5774 89.2041 50.4218 91.5293 50.6544C91.1181 47.1426 90.4125 43.65 89.7612 40.1763C89.4881 38.7174 88.9409 36.9859 88.9552 35.5066C88.9623 34.7622 89.2842 34.02 89.5649 33.3426C90.7283 32.2506 92.361 31.7296 93.877 31.3616C96.4911 30.7272 99.1633 30.473 101.82 30.0717ZM86.0181 52.5288C84.7001 52.9465 83.3596 53.2184 82.6814 54.5628C82.245 55.4272 82.1255 56.7463 82.4221 57.6687C82.8618 59.0341 83.6809 60.0942 85.0044 60.6872C85.5209 60.9183 86.022 60.9172 86.2446 61.4835C86.5001 62.134 86.4299 63.2026 86.4584 63.9106C86.5724 66.7447 86.5143 69.5983 86.5236 72.4356C86.528 73.6346 86.67 74.9631 86.5872 76.1468C86.5242 77.0509 86.1903 78.1183 85.8049 78.9265C85.3635 79.8519 84.659 80.6469 83.8936 81.3224C83.0772 82.0428 82.0975 82.4255 81.2307 83.0516C80.3123 83.7156 79.4362 84.5232 78.5568 85.2425C77.304 86.2666 75.9953 87.2738 74.8176 88.3835C73.5829 89.5475 72.4727 90.826 71.3438 92.0903C70.8334 92.6622 70.2489 93.1885 69.7873 93.8004C68.79 95.1217 67.9545 96.6162 67.0696 98.0165C65.9379 99.8066 64.7756 101.586 63.8441 103.491C61.5376 108.208 59.9295 114.017 59.4256 119.259C59.2765 120.814 59.3122 122.415 59.299 123.977C59.2836 125.79 59.1488 127.746 59.3593 129.546C59.5254 130.962 60.0243 132.71 60.4827 134.054C61.2947 136.437 62.0562 138.969 63.1248 141.247C66.9753 149.462 73.0977 156.03 80.6545 160.954C82.3826 162.08 84.2445 163.249 86.1086 164.137C88.305 165.184 90.9202 165.706 93.2865 166.254C96.3913 166.972 99.5181 167.625 102.711 167.763C108.394 168.008 114.14 166.609 119.571 165.074C120.516 164.781 121.475 164.5 122.364 164.064C123.008 163.748 123.584 163.317 124.217 162.984C129.888 160 135.291 155.75 139.335 150.745C141.413 148.174 143.209 145.214 144.747 142.289C145.66 140.551 146.287 138.654 146.939 136.807C147.808 134.344 148.716 131.755 149.057 129.15C149.23 127.828 149.149 126.411 149.144 125.078C149.137 123.368 149.177 121.631 149.034 119.927C148.745 116.491 147.949 112.881 146.917 109.591C146.228 107.4 145.422 105.205 144.372 103.158C143.343 101.151 142.082 99.2468 140.884 97.3378C140.084 96.0608 139.304 94.6721 138.363 93.4972C135.74 90.2262 132.597 87.4619 129.351 84.8417C128.559 84.2019 127.784 83.4875 126.959 82.8948C126.405 82.4968 125.772 82.2172 125.201 81.8449C124.287 81.2478 123.447 80.3509 122.84 79.4506C122.3 78.6479 121.964 77.456 121.862 76.4998C121.691 74.8995 121.718 62.2967 122.16 61.4023C122.464 60.7868 123.483 60.707 124.052 60.3141C125.569 59.2685 126.525 57.0837 125.988 55.2722C125.747 54.4574 125.32 53.6761 124.537 53.2763C123.867 52.9341 122.768 52.5524 122.014 52.5139C119.848 52.4033 117.617 52.5661 115.444 52.5794C110.979 52.6067 106.514 52.5945 102.049 52.5942C98.7993 52.594 95.5492 52.6115 92.2996 52.5664C90.2568 52.5381 88.0451 52.3683 86.0181 52.5288ZM99.6688 31.8559C97.0575 32.1661 93.9038 32.5006 91.571 33.7728C91.3484 33.8941 90.93 34.0809 90.7793 34.2845C90.3708 34.836 90.4646 35.8155 90.5863 36.4566C90.8072 37.6191 91.2228 38.8028 91.4915 39.9675C92.054 42.4094 92.5036 44.9165 92.8802 47.3933C93.0447 48.475 93.2876 49.5092 93.2295 50.6112L108.54 50.4961L115.122 50.6217C115.247 47.019 116.173 43.1698 116.964 39.6457C117.257 38.3437 117.719 37.0075 117.863 35.6839C117.916 35.199 117.962 34.641 117.614 34.2566C117.299 33.9086 116.653 33.6687 116.222 33.4737C114.761 32.8133 113.118 32.5171 111.54 32.2743C110.398 32.0986 109.266 31.8717 108.11 31.7955C106.118 31.6639 104.069 31.7513 102.072 31.7706L99.6688 31.8559Z" fill="#D5AE3B"/>
<path d="M93.0614 60.2265L115.023 60.2148C115.549 60.2488 116.189 60.3604 116.54 60.795L116.616 60.9001C116.976 61.3851 116.95 62.3424 117.004 62.9394C117.299 66.179 117.144 69.576 117.138 72.8327C117.133 75.5878 116.615 79.5029 118.109 81.9268C118.717 82.9137 119.988 83.5897 120.934 84.2196C121.898 84.8622 122.823 85.5437 123.737 86.2559C126.016 88.0323 128.094 89.9649 130.156 91.9836C131.636 93.431 133.185 94.862 134.536 96.4317C135.616 97.6872 136.559 99.1116 137.465 100.495C139.774 104.019 141.57 107.575 142.74 111.631C143.44 114.058 143.86 116.581 144.265 119.07C144.491 120.461 144.819 121.76 144.854 123.183C144.888 124.57 144.638 125.918 144.446 127.285C143.686 132.695 142.109 137.564 139.459 142.343C138.687 143.737 137.684 145.034 136.75 146.325C133.055 151.434 128.343 155.633 122.699 158.484C120.032 159.832 117.161 160.81 114.296 161.638C112.743 161.987 111.163 162.471 109.587 162.687C108.174 162.881 106.668 162.889 105.24 162.912C103.227 162.945 101.027 162.98 99.0298 162.725C97.7512 162.562 96.4606 162.199 95.2111 161.887C92.1035 161.111 89.1089 160.098 86.2091 158.727C77.058 154.401 69.4202 145.558 66.0357 136.057C65.0549 133.304 64.4052 130.468 64.0022 127.574C63.7412 125.704 63.5269 123.99 63.648 122.094C63.7654 120.251 64.2051 118.324 64.5444 116.501C65.0373 113.857 65.6371 111.201 66.5972 108.682C69.7393 100.435 75.6265 93.9196 82.2205 88.2401C83.2447 87.3579 84.2787 86.4867 85.3621 85.6775C86.0523 85.1621 86.7459 84.6451 87.4691 84.1774C88.5601 83.4718 89.8359 82.792 90.4483 81.5902C91.7132 79.1082 91.2274 75.4825 91.2302 72.7538C91.2329 70.0728 91.2241 67.3881 91.2833 64.7077C91.3069 63.6475 91.2088 61.9248 91.7028 60.9892L91.7609 60.8906C92.0191 60.4471 92.5981 60.3598 93.0614 60.2265ZM83.6109 105.472C80.5181 106.215 77.4797 107.073 74.7959 108.863C71.4213 111.114 68.8061 115.112 66.7013 118.516C66.3603 119.067 66.2759 119.821 66.1777 120.453C65.9573 121.871 65.8647 123.519 65.976 124.954C66.0401 125.779 66.2413 126.588 66.3318 127.409C66.4053 128.076 66.3356 128.783 66.4842 129.438C66.6854 130.326 67.0626 131.195 67.3137 132.073C67.8521 133.958 68.1592 135.84 68.8894 137.679C69.6499 139.594 70.895 141.395 72.0398 143.098C72.661 144.023 73.1692 145.018 73.8397 145.913C75.41 148.008 77.2412 149.673 79.2478 151.323C81.5396 153.209 83.8077 154.865 86.3544 156.399C87.514 157.098 88.866 157.609 90.127 158.095C93.5877 159.427 97.2507 160.344 100.931 160.779C102.016 160.907 103.165 161.099 104.257 161.089C106.958 161.062 110.07 160.49 112.678 159.82C115.372 159.128 117.977 158.244 120.513 157.101C121.714 156.564 122.721 155.881 123.834 155.192C127.706 152.796 131.469 149.803 134.301 146.21C135.233 145.027 135.975 143.681 136.789 142.415C137.879 140.723 138.949 139.049 139.679 137.161C140.018 136.285 140.338 135.325 140.507 134.401C139.902 134.892 139.271 135.449 138.572 135.798C136.985 136.589 134.941 136.657 133.202 136.478C128.931 136.038 124.897 133.367 121.499 130.927C120.64 130.31 119.708 129.749 118.919 129.041C116.187 126.585 113.812 123.781 111.226 121.189C109.235 119.192 107.086 117.319 104.971 115.454C98.9108 110.11 92.1819 104.793 83.6109 105.472ZM93.2505 61.8856C93.2598 66.4078 93.2395 70.9297 93.2363 75.4518C93.2352 76.8137 93.2374 78.1756 93.2313 79.5375C93.2286 80.2255 93.2905 80.9843 93.177 81.6603C93.0685 82.3089 92.7883 82.9394 92.3327 83.4137L92.2549 83.4959C91.4166 84.3649 90.2987 85.0031 89.3008 85.672C87.6593 86.7724 85.9876 87.8716 84.435 89.0959C82.2803 90.7955 80.1453 92.7369 78.3377 94.7995C77.2165 96.0786 76.2614 97.4471 75.2071 98.7728C74.6676 99.4504 73.9549 99.9916 73.4658 100.708C72.7235 101.797 72.167 103.058 71.4701 104.187C70.6609 105.498 69.7299 106.778 69.1066 108.193C68.1707 110.319 67.7425 112.601 66.9722 114.782C67.8516 113.592 68.4525 112.245 69.4119 111.095C72.9548 106.85 78.6963 103.859 84.1559 103.059C86.2201 102.756 88.1654 103.15 90.1397 103.732C93.8443 104.823 97.5182 106.694 100.601 109.024C102.191 110.226 103.85 111.413 105.356 112.714C107.874 114.889 110.14 117.275 112.53 119.578C114.258 120.877 116.834 121.263 118.963 120.962C122.871 120.408 127.108 119.666 131.062 119.973C132.364 120.075 133.685 120.374 134.95 120.687C136.55 121.082 138.313 121.695 139.64 122.681C140.831 123.565 141.635 124.848 142.45 126.063C142.469 122.721 142.092 119.786 141.505 116.512C140.989 113.632 140.504 110.867 139.276 108.168C138.574 106.627 137.513 105.243 136.647 103.794C136.039 102.776 135.54 101.512 134.835 100.582C134.237 99.7915 133.45 99.1303 132.83 98.3413C131.474 96.617 130.261 94.9443 128.706 93.3724C126.68 91.323 124.541 89.432 122.186 87.7658C120.938 86.882 119.662 86.0399 118.392 85.1884C117.493 84.5864 116.47 83.9587 115.743 83.1478C115.394 82.7602 115.271 82.1247 115.221 81.6231C115.008 79.4771 115.169 77.1722 115.167 75.0115C115.163 70.7965 115.148 66.5801 115.17 62.3646L115.172 61.9699C110.812 62.2645 106.332 62.0458 101.956 62.0486C100.222 62.0497 98.4881 62.0504 96.7539 62.0473C95.6667 62.0453 94.5466 62.1166 93.4742 61.9243L93.3339 61.9013L93.2505 61.8856ZM125.306 122.327C123.611 122.421 121.974 122.678 120.308 122.994C119.045 123.233 118.228 123.632 116.89 123.553C118.466 124.848 120.064 126.196 121.566 127.578C124.089 129.9 126.643 132.255 129.971 133.358C130.967 133.688 132.027 133.786 133.064 133.906C134.772 133.963 137.805 134.236 139.142 132.97C140.185 131.982 140.946 130.728 140.985 129.26C141.016 128.031 140.113 126.515 139.276 125.656C136.82 123.133 132.363 122.287 128.948 122.27L125.306 122.327Z" fill="#D5AE3B"/>
<path d="M119.707 93.508L120.1 93.485C121.683 93.457 123.362 94.4104 124.454 95.5059C127.666 98.728 128.31 103.295 128.327 107.647C128.332 108.782 128.483 110.091 127.62 110.96C126.984 111.159 126.846 110.957 126.267 110.665C125.624 109.662 125.093 108.535 124.328 107.618C123.725 106.895 122.981 106.346 122.348 105.662C121.855 105.13 121.462 104.511 120.947 104.001C119.664 102.728 118.009 101.581 117.436 99.7725C116.98 98.3349 116.811 96.4522 117.561 95.0793C118.085 94.121 118.708 93.8227 119.707 93.508ZM119.484 95.2915C118.785 96.5426 118.698 97.7603 119.105 99.1195C119.624 100.849 121.853 102.27 123.07 103.565C123.716 104.253 124.24 105.035 124.851 105.751C125.334 106.317 125.885 106.799 126.317 107.41L126.466 107.533C126.642 106.888 126.498 106.115 126.441 105.45C126.242 103.122 125.998 100.96 124.816 98.8925C123.999 97.4632 122.817 95.7943 121.125 95.3403C120.571 95.1912 120.044 95.1868 119.484 95.2915Z" fill="#D5AE3B"/>
<path d="M105.283 51.7441H111.911H136.305H143.199L146.646 54.1305L147.176 58.1078L145.055 60.7593L142.669 61.8199V70.0396V74.5472L143.729 79.3199L148.237 82.5017L156.987 85.6835L162.025 90.1911L165.472 97.8805V122.54L162.82 144.547L159.108 156.479L153.54 164.699L143.199 167.35L131.267 168.146L118.805 168.941L109.26 168.146L99.184 166.024L91.4946 160.721L86.4568 152.502L83.8052 137.653L82.4795 126.782V100.797V95.7593L85.6613 90.9866L90.434 86.2138L100.51 82.7669L104.752 78.2593V61.8199L102.101 59.9638L101.305 57.5775V54.1305L105.283 51.7441Z" fill="#F2E3E3"/>
<path d="M109.525 104.506L105.282 103.711L95.7367 106.628L89.9033 113.787V118.294L91.4942 138.181L94.676 150.908L98.9185 157.802L105.282 161.249L118.54 162.575L141.078 161.249L149.562 157.802L154.6 148.787L156.987 137.12L157.782 125.188L155.396 129.165L151.949 130.756H144.525L134.979 124.393L126.229 115.378L116.153 106.628L109.525 104.506Z" fill="#6CB4E6"/>
<path d="M142.403 117.234L131.797 118.03L130.206 118.825L134.714 123.863L143.994 130.492H148.502H153.274L156.191 127.575L157.252 123.863L155.13 120.681L150.358 118.03L142.403 117.234Z" fill="#02426E"/>
<path d="M111.911 78.2573L112.442 62.3482V61.5527H136.04V81.7042L142.139 88.333L150.358 90.4542L156.192 95.227L157.517 100.265L158.843 112.727L157.517 125.189L154.07 119.621L144.79 116.704L131.267 118.03V120.416L121.192 110.871L113.767 105.038L105.813 103.447L98.1235 105.833L92.025 111.401L89.6387 113.522L90.6993 99.9997L93.0856 94.1664L98.1235 90.9845L105.813 88.333L111.116 83.8255L111.911 78.2573Z" fill="#D8CECE"/>
<path d="M142.934 95.2251L140.017 94.4297L138.426 95.2251L137.631 98.1418L139.487 101.589L144.26 106.362L147.176 109.278L146.646 101.589L144.79 97.6115L142.934 95.2251Z" fill="#F2E3E3"/>
<path d="M109.525 35.5696L110.321 33.7135L115.359 31.5923L124.639 30.7969L136.306 32.3878L138.692 34.7741L136.306 48.8272V51.7438H112.707L109.525 35.5696Z" fill="#D5AE3B"/>
<path d="M121.258 30.1082L123.849 30.0015C126.011 29.976 128.031 30.2828 130.158 30.5967C133.147 31.0377 136.686 31.3544 138.949 33.5648C139.15 34.2126 139.425 34.9505 139.404 35.6343C139.349 37.4334 138.777 39.4366 138.457 41.2153C137.889 44.3682 137.38 47.5215 136.832 50.6763C138.336 50.5297 140.298 50.5353 141.785 50.8075C143.695 51.1569 145.958 51.6413 147.087 53.3665C147.95 54.6859 148.106 56.6669 147.729 58.1784C147.192 60.3281 145.746 61.544 143.942 62.645C143.908 65.3963 143.932 68.1498 143.938 70.9011C143.943 72.9232 143.598 75.9952 144.41 77.8737C145.882 81.2773 149.382 81.6941 152.489 82.7912C155.254 83.7674 159.027 85.2753 161.133 87.3821C163.664 89.914 166.096 93.5666 166.524 97.1934C166.687 98.5776 166.575 100.066 166.61 101.467C166.669 103.861 166.764 106.249 166.786 108.644C166.805 110.829 166.686 112.972 166.636 115.148C166.591 117.049 166.618 118.98 166.488 120.876C166.406 122.081 166.206 123.279 166.122 124.485C165.98 126.515 166.094 128.564 165.929 130.591C165.639 134.151 165.035 137.726 164.539 141.263C164.125 144.213 163.974 147.119 163.192 150.017C161.918 154.735 160.127 159.414 156.641 162.949C155.352 164.256 153.81 165.606 152.138 166.388C150.521 167.144 148.2 167.839 146.439 168.069C145.42 168.202 144.399 168.176 143.374 168.334C142.02 168.543 140.692 168.903 139.34 169.108C135.309 169.719 131.408 169.917 127.335 169.952C123.216 169.952 118.987 170.132 114.884 169.794C111.701 169.532 108.656 168.902 105.515 168.417C104.115 168.201 102.652 168.259 101.276 167.936C99.5528 167.53 97.556 167.033 95.9677 166.251C92.9415 164.76 90.2523 161.771 88.5272 158.923C87.9987 158.051 87.6192 157.055 87.2156 156.121C86.1284 153.605 85.2408 150.888 84.6903 148.201C84.2514 146.063 84.1348 143.879 83.8263 141.727C83.4265 138.936 83.0702 136.155 82.7589 133.354C82.6599 132.462 82.4724 131.579 82.4042 130.684C82.2629 128.841 82.3624 126.979 82.2398 125.133C82.1479 123.755 81.9307 122.387 81.8499 121.008C81.7553 119.394 81.7877 117.772 81.7355 116.156C81.6942 114.878 81.5337 113.603 81.5067 112.327C81.438 109.128 81.5661 105.919 81.6684 102.723C81.7432 100.386 81.5584 97.993 82.1347 95.7169C82.7683 93.2147 84.1167 90.9682 85.7319 88.9873C86.328 88.2559 86.9269 87.4866 87.661 86.8877C89.8822 85.0751 93.0003 83.7239 95.695 82.7984C97.3756 82.221 99.5308 81.8509 101.03 80.9176C101.569 80.5816 102.106 80.2274 102.561 79.782C103.134 79.2233 103.81 78.3472 104.026 77.5636C104.581 75.5442 104.377 73.1691 104.378 71.0848C104.378 68.267 104.37 65.4502 104.419 62.6329C103.474 62.1303 102.651 61.615 101.917 60.8187C100.574 59.3603 100.376 57.5741 100.467 55.6822C100.527 54.4303 101.128 53.2211 102.067 52.3903C102.757 51.7806 103.435 51.5893 104.289 51.3305C106.625 50.6226 109.085 50.5094 111.515 50.6787C111.094 49.128 111.001 47.4641 110.711 45.8791C110.325 43.7599 109.932 41.6378 109.521 39.5236C109.274 38.2548 108.883 36.8495 108.865 35.5625C108.854 34.8205 109.208 34.0403 109.47 33.3608C112.527 30.7799 117.455 30.7047 121.258 30.1082ZM105.933 52.6477C104.62 53.0322 103.241 53.3059 102.572 54.6529C102.052 55.7005 102.041 57.0703 102.458 58.1439C103.018 59.5881 103.963 60.3622 105.349 60.9617C105.77 61.1437 105.991 61.1635 106.18 61.6282C106.547 62.5317 106.385 64.1469 106.393 65.1406C106.416 67.8672 106.411 70.5937 106.431 73.3203C106.438 74.2766 106.614 75.4667 106.503 76.395C106.404 77.2193 106.129 78.2191 105.773 78.9786C104.78 81.0974 102.984 82.1583 101.014 83.207C100.484 83.4896 100.03 83.8416 99.4565 84.0451C96.6057 85.0548 93.4001 85.4546 90.8347 87.1764C89.5874 88.0134 88.5409 89.1798 87.5483 90.2967C86.7806 91.1607 85.6857 92.2611 85.199 93.3153L85.095 93.5804L85.0279 93.753C84.5275 95.0657 84.3075 96.6699 84.1068 98.0623C83.9341 99.2595 83.6674 100.476 83.5915 101.683C83.4518 103.891 83.5668 106.168 83.5657 108.383C83.5651 110.284 83.4727 112.21 83.5624 114.108C83.6251 115.433 83.9319 116.734 83.9957 118.057C84.0985 120.172 83.9418 122.344 84.1365 124.445C84.2888 126.094 84.5022 127.82 84.7255 129.463C84.825 130.2 85.0219 130.921 85.0895 131.663C85.2122 132.999 85.1544 134.35 85.2457 135.688C85.3073 136.595 85.5075 137.496 85.6312 138.397C85.722 139.059 85.7142 139.733 85.8154 140.393C86.0497 141.917 86.4385 143.454 86.7349 144.97C87.3871 148.31 88.1219 151.6 89.5517 154.724L91.1921 158.124C91.609 158.961 92.3536 159.768 93.0064 160.435C94.9014 162.37 96.9417 163.761 99.5269 164.595C101.054 165.089 102.378 165.796 103.959 166.124C108.191 167.001 112.467 167.031 116.76 167.231C120.734 167.415 124.635 167.542 128.622 167.44C129.764 167.411 130.892 167.239 132.029 167.196C135.285 167.071 138.486 167.007 141.713 166.488L145.648 165.848C146.276 165.711 146.71 165.206 147.296 164.983C148.265 164.614 149.306 164.463 150.276 164.041C152.822 162.93 155.699 160.518 157.11 158.136C158.816 155.257 160.181 151.48 160.981 148.23C161.308 146.899 161.482 145.535 161.735 144.189C162.279 141.291 162.788 138.412 163.066 135.472C163.194 134.125 163.129 132.763 163.265 131.416C163.523 128.861 163.984 126.323 164.203 123.758C164.365 121.865 164.229 119.95 164.335 118.052C164.418 116.573 164.671 115.105 164.757 113.626C164.88 111.497 164.796 109.328 164.77 107.195C164.749 105.461 164.852 103.686 164.746 101.959C164.598 99.5334 164.128 96.8239 163.504 94.4685C163.051 92.7544 161.828 91.5038 160.671 90.2098C159.613 89.0242 158.498 87.7582 157.112 86.9509C154.581 85.476 151.817 85.0718 149.118 84.1243C148.332 83.8488 147.6 83.3786 146.877 82.97C144.553 81.6556 142.807 80.4029 142.062 77.7011C141.685 76.3312 141.744 62.2441 142.19 61.4725L142.251 61.378L142.301 61.2883C142.539 60.9111 143.489 60.7763 143.904 60.5272C145.445 59.6055 146.443 57.4808 146.096 55.7003C145.91 54.7468 145.427 53.9485 144.593 53.4359C143.893 53.0064 142.661 52.6615 141.844 52.615C139.681 52.492 137.421 52.6571 135.247 52.6748C130.982 52.7096 126.716 52.7042 122.451 52.7039C118.814 52.7035 115.175 52.7113 111.537 52.6846C109.696 52.671 107.76 52.497 105.933 52.6477ZM119.686 31.8869C117.209 32.2767 114.407 32.4248 112.12 33.5022C111.59 33.7516 111.009 33.991 110.606 34.4234C110.338 34.9532 110.391 35.7159 110.476 36.2928C110.598 37.1361 110.946 38.0073 111.142 38.8473C111.787 41.6213 112.358 44.4417 112.776 47.2569C112.952 48.4422 113.214 49.4395 113.15 50.6583C115.113 50.4099 117.173 50.5433 119.152 50.5471C122.407 50.5534 125.662 50.5503 128.918 50.5519C130.908 50.5581 133.19 50.3433 135.141 50.6707C135.115 49.2643 135.395 47.9367 135.628 46.5573C136.025 44.2179 136.463 41.8687 136.997 39.5561C137.391 37.8504 137.963 36.1872 137.903 34.4183C136.955 33.8855 136.011 33.3526 134.971 33.018C131.366 31.8582 127.358 31.7896 123.616 31.7981C122.322 31.801 120.97 31.7257 119.686 31.8869Z" fill="#D5AE3B"/>
<path d="M112.744 60.3464C115.462 60.1912 134.942 59.9751 136.091 60.5768C136.376 60.7264 136.676 60.9722 136.779 61.2813C137.185 62.4851 137.087 64.2768 137.1 65.5609C137.129 68.3815 137.138 71.2021 137.135 74.0232C137.134 76.3599 136.816 79.2003 137.531 81.4347C138.044 83.0427 139.004 84.3097 140.248 85.4332C141.115 86.2163 142.267 87.2211 143.327 87.7166C145.807 88.8747 148.628 88.8423 151.132 90.1242C153.787 91.4825 156.786 93.9627 157.682 96.9004C157.897 97.6054 158.159 98.338 158.263 99.0688C158.358 99.7337 158.335 100.416 158.453 101.076C159.061 104.486 159.565 107.923 159.861 111.377C160.143 114.673 159.755 117.976 159.531 121.256C159.013 128.857 158.25 136.473 156.624 143.931C155.938 147.075 155.164 150.298 153.893 153.269C153.247 154.778 152.176 156.262 151.107 157.502C147.229 162 140.196 162.457 134.7 162.904C132.225 163.108 129.73 163.441 127.251 163.522C122.563 163.674 118.011 163.27 113.356 162.868C110.598 162.63 107.808 162.424 105.107 161.78C102.68 161.202 99.9692 160.123 98.0933 158.448C96.9495 157.426 95.8733 155.892 95.0731 154.597C94.2504 153.267 93.8182 151.736 93.3425 150.257C90.4427 141.244 89.5012 131.376 88.8699 121.972C88.794 120.843 88.6075 119.717 88.5273 118.583C88.3804 116.503 88.37 114.372 88.4123 112.288C88.4376 111.061 88.6411 109.868 88.7923 108.654C89.0667 106.451 89.3329 104.29 89.6596 102.09C89.8416 100.862 89.8949 99.5819 90.1886 98.3748C90.4317 97.3761 90.766 96.2636 91.2709 95.3689C92.9526 92.3882 96.6278 89.9031 99.8949 89.0435C101.606 88.5937 103.803 88.4782 105.322 87.5164C107.201 86.3252 109.354 84.5715 110.322 82.5411C111.441 80.1929 111.162 77.4647 111.155 74.9372C111.147 72.2788 111.143 69.6194 111.173 66.961C111.195 65.0137 111.14 63.0411 111.568 61.1311C111.929 60.7115 112.249 60.5515 112.744 60.3464ZM103.83 104.911C99.3406 105.405 96.0476 107.889 93.2957 111.33C92.4191 112.426 91.6107 113.704 91.2945 115.086C90.914 116.747 91.1664 118.912 91.1829 120.627C91.2043 122.867 91.0789 125.248 91.322 127.471C91.4177 128.344 91.6003 129.209 91.6811 130.083C91.7741 131.088 91.7433 132.106 91.8571 133.108C91.933 133.783 92.1535 134.431 92.2481 135.102C92.3498 135.829 92.3289 136.573 92.4279 137.301C92.6507 138.948 93.0356 140.62 93.3595 142.251C94.0799 145.879 94.8449 149.829 96.5563 153.159C97.3394 154.683 98.9105 156.6 100.26 157.665C101.855 158.925 104.028 159.617 105.989 160.049C110.394 161.022 114.662 160.945 119.13 160.979C122.426 161.004 125.676 161.029 128.974 160.979C131.836 160.935 134.79 161.147 137.641 160.79C140.113 160.48 142.591 160.084 144.949 159.266C145.854 158.851 146.875 158.465 147.698 157.907C149.731 156.531 151.523 153.902 152.368 151.635C155.033 144.489 156.141 136.681 156.783 129.108C155.486 130.765 153.667 132.116 151.523 132.378C145.238 133.146 139.104 129.002 134.362 125.297C131.54 123.092 129.095 120.088 126.645 117.481C124.864 115.584 122.805 113.849 120.851 112.132C119.271 110.744 117.766 109.224 116.022 108.035C115.237 107.501 114.286 107.193 113.418 106.815C112.223 106.295 111.085 105.708 109.818 105.363C107.933 104.849 105.771 104.838 103.83 104.911ZM113.166 62.0919C113.19 66.5606 113.171 71.0294 113.169 75.4976C113.168 76.8609 113.168 78.2247 113.157 79.588C113.152 80.3051 113.203 81.0866 113.07 81.7932C112.744 83.5255 111.916 85.2771 110.679 86.5331C108.989 88.2505 106.919 89.043 104.693 89.8052C102.899 90.4189 101.011 90.778 99.2636 91.5171C97.9141 92.0885 96.5255 93.0355 95.386 93.9533C94.5276 94.6452 93.6631 95.447 93.1764 96.4566C92.6111 97.6307 92.4747 99.1662 92.2233 100.434C91.9682 101.72 91.4661 103.038 91.2714 104.311C90.9305 106.54 90.9453 108.897 90.7193 111.152C93.1681 107.096 97.1425 103.995 101.742 102.856C105.233 101.991 108.205 101.921 111.554 103.375C112.56 103.811 113.504 104.419 114.475 104.929C115.385 105.408 116.373 105.736 117.257 106.265C119.831 107.805 122.346 110.182 124.447 112.311C125.636 113.516 126.936 115.253 128.418 116.073C129.312 116.567 130.755 116.724 131.757 116.919C133.542 116.974 135.178 116.633 136.934 116.407C141.754 115.788 146.263 115.388 150.977 116.803C152.76 117.339 154.46 118.082 155.749 119.461C156.273 120.023 156.701 120.681 157.131 121.316C157.198 115.765 157.792 110.072 157.084 104.546C156.926 103.313 156.41 102.063 156.165 100.829C155.706 98.5288 155.615 96.5534 153.892 94.7777C152.434 93.2758 150.119 91.9004 148.175 91.1789C147.07 90.7687 145.897 90.5229 144.771 90.177C140.467 88.856 136.544 87.1688 135.358 82.3822C135.102 81.3472 135.168 80.2441 135.163 79.1849C135.156 77.4917 135.162 75.799 135.162 74.1057C135.16 70.1259 135.026 66.1003 135.206 62.1254C133.601 62.2613 131.957 62.198 130.346 62.2002C127.638 62.2041 124.931 62.2052 122.224 62.2079C120.28 62.2096 118.335 62.2112 116.391 62.2107C115.356 62.2107 114.174 62.3223 113.166 62.0919ZM140.833 118.246C138.359 118.47 136.083 118.682 133.681 119.378C133.188 119.521 132.833 119.565 132.328 119.463L132.297 119.674C133.688 120.948 135.143 122.141 136.546 123.398C139.294 125.863 141.85 128.307 145.505 129.384C146.201 129.59 146.956 129.651 147.676 129.749C149.439 129.939 152.641 130.2 154.09 129.045C155.17 128.184 155.978 126.833 156.102 125.447C156.212 124.234 155.423 122.745 154.639 121.834C152.383 119.216 148.324 118.399 145.025 118.195L140.833 118.246Z" fill="#D5AE3B"/>
<path d="M139.497 93.7606C139.925 93.6941 140.366 93.6853 140.797 93.7342C142.552 93.9344 144.209 95.1976 145.253 96.5587C147.709 99.7571 148.326 103.561 148.356 107.497C148.362 108.288 148.448 109.221 148.31 109.988C148.204 110.577 148.008 110.994 147.521 111.327C147.032 111.415 146.75 111.214 146.347 110.98C145.548 109.878 144.985 108.615 144.093 107.571C143.613 107.009 142.972 106.599 142.454 106.074C142 105.613 141.683 105.035 141.25 104.556C139.866 103.027 138.159 102.01 137.419 99.9798C136.938 98.6589 136.849 96.6467 137.516 95.3648C137.965 94.5019 138.59 94.0565 139.497 93.7606ZM139.568 95.5303C139.065 96.1099 138.805 97.107 138.846 97.8796C138.992 100.649 141.193 101.828 142.934 103.626C143.629 104.344 144.192 105.183 144.84 105.941C145.306 106.487 145.84 106.95 146.269 107.53L146.421 107.761C146.636 107.523 146.578 107.263 146.566 106.952C146.418 103.349 145.82 99.1802 142.947 96.6461C142.012 95.8207 141.039 95.4016 139.789 95.5078L139.568 95.5303Z" fill="#D5AE3B"/>
</svg>
