<svg width="200" height="200" viewBox="0 0 200 200" fill="none" xmlns="http://www.w3.org/2000/svg">
<path d="M41.3066 29.6714V14.7977L42.6432 13.0156L58.8192 29.1916H149.501L154.779 30.8709L155.499 35.429V164.015V170.732L150.94 175.53H80.4102L58.8192 175.051L49.943 169.293L41.3066 156.578V121.313V29.6714Z" fill="#6E1702"/>
<path d="M136.307 29.4313L149.981 29.1914H151.9L154.779 31.8303L155.499 35.6687V45.7444L154.779 48.6232L151.9 49.5828L149.741 47.1838L148.782 40.9465L147.342 36.8682L141.585 36.1485L136.307 34.949L135.107 32.7899L136.307 29.4313Z" fill="#767147"/>
<path d="M142.547 168.573L148.304 167.374L149.264 165.695L149.984 157.778L152.383 155.379L155.021 156.339L155.981 169.293L154.302 173.611L149.264 175.291L138.948 174.811L138.229 171.212L139.668 169.293L142.547 168.573Z" fill="#767147"/>
<path d="M66.9766 178.41L68.1761 175.291H80.411L81.8504 179.609V183.208H71.7746L68.1761 181.768L66.9766 178.41Z" fill="#030115"/>
<path d="M43.707 13.3593L45.6262 11.9199H122.874V14.079L123.833 16.9578H58.3409L46.8257 17.6775L43.707 13.3593Z" fill="#030115"/>
<path d="M52.8247 17.6767H47.5469L59.5418 28.952H145.426L137.509 23.9141L133.431 16.957H68.8979L52.8247 17.6767Z" fill="#F2E3E3"/>
<path d="M80.6523 178.409V174.811L97.4452 175.29L98.4048 187.045L96.7255 195.202L95.2861 198.081L90.0083 190.404L85.6901 195.682L81.6119 198.081L81.8518 181.768L80.6523 178.409Z" fill="#F2E3E3"/>
<path d="M103.443 82.6884L107.042 81.9688L112.32 82.9283L117.597 86.7666L120.956 92.0444V98.2818L118.077 104.519L113.039 108.358L107.042 110.037L100.085 107.398L95.7665 103.32L93.6074 97.802L94.3271 92.5242L96.4862 87.2464L100.085 83.8878L103.443 82.6884Z" fill="#F2E3E3"/>
<path d="M103.441 82.6883L107.04 81.9688L112.318 82.9282L117.595 86.7666L120.954 92.0444V98.2818L118.075 104.519L113.037 108.358L107.04 110.037L100.083 107.398L95.7646 103.32L93.6055 97.802L94.3252 92.5242L96.4843 87.2464L100.083 83.8878L103.441 82.6883Z" fill="#767147"/>
<path d="M123.353 12.1598L125.032 10.4805L133.669 11.68L136.068 14.079L136.788 22.9552L133.669 20.3163L130.55 16.7178H124.073L123.113 14.7987L123.353 12.1598Z" fill="#767147"/>
<path d="M50.1624 10.0102L50.5821 10.001C51.6049 9.98871 52.6349 10.0961 53.6612 10.1001C57.2032 10.114 60.7463 10.0875 64.2888 10.0882C76.949 10.0909 89.6092 10.0869 102.269 10.0853C108.373 10.0846 114.477 10.0798 120.58 10.0861C124.52 10.0902 128.62 9.93053 132.533 10.3962C133.625 10.526 134.65 11.0249 135.427 11.8069C137.262 13.6543 137.321 15.8577 137.354 18.2892C137.373 19.6707 137.387 21.0522 137.399 22.4338C138.572 23.5409 139.928 24.5538 141.352 25.3129C142.485 25.9167 143.694 26.3654 144.836 26.951C145.479 27.2811 146.089 27.834 146.784 28.0336C148.144 28.4244 149.781 28.2999 151.184 28.4335C152.507 28.5591 154.232 29.3428 155.071 30.4061C155.808 31.3395 156.493 32.8005 156.624 34.0023C156.722 34.8965 156.65 35.861 156.637 36.7649C156.603 39.3037 156.366 41.8377 156.385 44.3754C156.442 52.1335 156.511 59.8879 156.523 67.6465C156.526 69.822 156.534 71.9979 156.536 74.1734C156.537 75.4879 156.604 76.8356 156.437 78.141C157.165 77.9038 157.78 77.7653 158.551 77.8501C159.371 77.9403 160.182 78.2902 160.692 78.9595C161.087 79.4786 161.428 80.2923 161.501 80.9369C161.676 82.465 161.583 84.1032 161.58 85.6436C161.574 89.4014 161.447 93.1608 161.36 96.9174C161.322 98.5712 161.54 100.493 161.257 102.1C161.106 102.956 160.746 103.372 160.048 103.84C159.17 104.428 157.95 105.084 156.868 104.847L156.737 104.815L156.483 105.017C156.779 106.624 156.551 108.573 156.55 110.224C156.549 114.079 156.549 117.933 156.551 121.788C156.553 134.552 156.278 147.357 156.465 160.117C156.491 161.88 156.742 163.647 156.776 165.424C156.834 168.49 157.208 171.695 154.88 174.062C154.181 174.772 152.918 175.766 151.945 176.034C149.603 176.679 146.972 176.59 144.567 176.603C141.937 176.617 139.307 176.619 136.676 176.62C129.117 176.624 121.558 176.623 113.999 176.621L98.1843 176.555C99.1354 178.979 99.2513 181.503 99.334 184.069C99.4145 186.563 99.4027 189.033 99.2084 191.524C99.0592 193.438 98.0925 198.299 96.5563 199.511C96.3121 199.704 96.0534 199.71 95.7496 199.651C95.2692 199.558 94.4716 199.05 94.1667 198.698C93.462 197.884 93.1104 196.55 92.5082 195.619C91.6982 194.366 90.5104 193.397 89.7584 192.154C89.0945 193.711 87.6925 195.371 86.4961 196.581C85.0565 198.037 82.8854 199.986 80.7207 200C80.3504 199.732 80.2494 199.232 80.1185 198.814C80.0219 198.506 79.9414 198.201 79.9542 197.874C79.9789 197.22 80.1475 196.559 80.2248 195.906C80.4196 194.267 80.6182 192.625 80.7985 190.984C81.0363 188.82 81.0293 186.592 81.1512 184.416C79.8104 184.415 78.4492 184.296 77.1041 184.267C73.765 184.194 70.1538 184.261 67.0804 182.813C66.7535 180.743 66.3971 178.709 66.4347 176.606C63.0199 176.649 58.6975 177.104 55.6933 175.255C51.2249 172.505 42.3544 162.754 41.0462 157.686C40.8359 156.87 40.8579 156.019 40.8067 155.182C40.7037 153.502 40.6605 151.844 40.6682 150.162C40.6742 148.863 40.7483 147.512 40.6012 146.221C40.5226 145.532 40.123 144.755 39.8747 144.102C39.272 142.514 38.8039 140.407 39.0824 138.707C39.0983 138.61 39.1255 138.522 39.1604 138.431L39.2174 138.296C39.5266 137.537 40.089 137.007 40.6452 136.423C40.7279 135.121 40.6764 133.781 40.6722 132.475C40.669 131.48 40.73 130.386 40.477 129.418C40.0854 127.923 39.1362 126.325 39.0348 124.8C38.9084 122.901 39.4194 121.825 40.6548 120.427C40.8446 112.56 40.6811 104.652 40.681 96.7817C40.6807 81.9551 40.6867 67.1286 40.6751 52.3021C40.6739 50.8196 40.6729 49.3365 40.6699 47.8541C40.6682 46.9915 40.7349 45.9974 40.5581 45.1537C40.2629 43.7442 38.973 42.3315 39.1102 40.8093C39.2058 39.7497 39.9037 38.9688 40.6443 38.2785C40.7116 37.0719 40.6809 35.8401 40.6749 34.6319C40.6715 33.9454 40.7346 33.1177 40.597 32.4457C40.2728 30.8634 38.9472 29.6015 39.0777 27.849C39.1721 26.5807 39.814 25.8754 40.7082 25.0634L40.4382 18.6354C40.3456 16.5983 40.5059 13.6423 41.9912 12.0723C44.0298 9.91749 47.4461 10.0732 50.1624 10.0102ZM42.4722 14.6247C42.0544 18.1316 42.4745 21.7381 42.4997 25.2619C42.5034 25.7831 42.302 26.3246 42.465 26.8356C42.8359 27.9977 43.7514 29.0374 44.4964 29.9831C48.2942 34.8068 53.3359 38.6129 58.34 42.0916C58.2482 40.5108 58.0818 38.2377 58.427 36.6978C58.829 36.504 59.0829 36.5378 59.5193 36.5942L59.8069 36.8508C59.9105 41.3524 60.0136 45.8418 59.9545 50.3456C59.939 51.513 59.479 52.5978 59.5321 53.7405C59.5665 54.4818 59.5327 55.2343 59.6218 55.9723C59.7028 56.6465 59.9207 57.297 59.9674 57.9781C60.0678 59.4429 59.9755 60.9598 59.9755 62.431C59.9755 64.7433 60.3008 67.6573 59.6508 69.8606C59.5284 70.2761 59.3877 70.8407 59.1167 71.1821C59.0367 71.2825 58.9476 71.3463 58.8483 71.429H58.5799C58.2708 71.0297 58.3202 70.3598 58.2541 69.8714C58.0781 68.574 58.1339 67.2236 58.1302 65.9139C58.1242 63.8614 58.1291 61.8094 58.1339 59.7569C55.8425 58.9115 53.8555 57.0485 51.9377 55.5827C50.0107 54.1104 48.0532 52.7374 46.2532 51.0976C44.8748 49.8416 43.6155 48.4386 42.3573 47.0645L42.3804 47.2615C42.6324 49.5314 42.455 51.9306 42.4444 54.2188C42.425 58.3651 42.4221 62.5115 42.4169 66.6579C42.3999 80.4259 42.4144 94.1945 42.4171 107.963C42.4177 110.87 42.4184 113.778 42.4192 116.685C42.4197 118.553 42.1655 120.875 42.6866 122.662C43.0905 124.048 43.9331 125.416 44.6669 126.655C46.9037 130.432 49.5659 133.836 52.4954 137.1C53.7788 138.53 54.9902 139.932 56.4877 141.149C57.1017 141.648 57.7228 141.978 58.4415 142.297C58.2252 140.54 58.0609 138.736 58.4576 136.987C58.574 136.473 58.8204 135.975 58.9932 135.478L59.2997 135.344C59.7747 135.836 59.8681 136.565 59.9288 137.221C60.0753 138.819 59.961 140.514 59.9626 142.12C59.9658 145.079 59.9878 148.035 59.9551 150.994C59.8918 156.613 60.0131 162.233 59.9154 167.854C59.9062 168.381 60.0061 169.562 59.6116 169.964C59.5117 170.065 59.435 170.101 59.318 170.169C58.8859 169.935 58.5875 169.18 58.4441 168.709C58.3175 168.293 58.332 167.76 58.3014 167.325C58.2155 166.087 58.2391 164.84 58.1436 163.606C56.8844 162.667 55.5119 161.863 54.3107 160.849C52.3462 159.192 50.6084 157.193 48.8535 155.32C46.656 152.975 44.3736 150.612 42.3914 148.078C42.4156 150.009 42.2354 152.156 42.4525 154.063C42.6258 155.585 42.9317 157.106 43.5267 158.52C43.9813 159.6 44.6974 160.609 45.3497 161.578C46.9873 164.01 48.8263 166.199 50.9251 168.248C53.015 170.287 55.4502 172.451 58.2643 173.378C60.0887 173.98 61.8911 174.069 63.7923 174.046L67.0782 173.976L137.482 174.02C137.505 173.865 137.557 173.781 137.475 173.645C137.12 173.053 137.183 171.577 137.359 170.903C137.76 169.367 138.989 168.41 140.326 167.701C140.952 167.37 141.633 167.138 142.331 167.015C143.662 166.78 148.133 166.759 148.51 165.258C148.649 164.704 148.551 163.941 148.545 163.368C148.527 161.879 148.249 159.806 148.638 158.378C148.974 157.141 150.095 155.892 151.152 155.192C152.084 154.577 153.145 154.464 154.224 154.714L154.657 154.832L154.82 154.599L154.799 154.5C154.596 153.442 154.716 152.197 154.714 151.117C154.711 148.958 154.71 146.8 154.71 144.641C154.708 136.548 154.696 128.456 154.699 120.363C154.705 104.904 154.707 89.4454 154.709 73.9871C154.711 68.8939 154.711 63.8008 154.724 58.7076C154.732 55.7485 154.634 52.7443 154.835 49.7917C154.016 50.4079 153.438 50.6258 152.392 50.4755C150.719 50.2345 149.693 49.4895 148.701 48.1503C148.488 47.8621 148.372 47.5889 148.257 47.2502L148.193 47.0731C147.621 45.37 147.702 43.0824 147.617 41.2961C147.573 40.3766 147.626 38.906 147.009 38.191C146.313 37.928 145.506 37.4229 144.8 37.2684C143.812 37.0531 142.655 37.1417 141.641 37.0842C139.835 36.9828 138.19 36.4482 136.515 35.81C135.466 35.4107 134.89 35.5121 134.37 34.342C133.757 32.9663 134.126 31.5032 134.626 30.1516L60.8756 30.3379C60.6695 30.8392 60.4365 31.3631 60.2906 31.8859C60.0077 32.903 60.1778 34.0758 59.1167 34.6217C58.8574 34.6131 58.6943 34.6727 58.5064 34.4703C57.9171 33.8375 58.0915 32.1344 58.0888 31.3014C56.8248 30.7657 55.71 30.127 54.6139 29.3036C53.9666 28.8173 53.4674 28.2215 52.877 27.6762C52.2721 27.118 51.5861 26.6456 50.9765 26.0869C49.5562 24.7863 48.2201 23.3755 46.873 21.9993C45.44 20.5354 43.8458 18.8347 43.064 16.9111C42.8415 16.3637 42.7926 14.9784 42.4722 14.6247ZM128.814 17.943L50.1672 18.2563C51.1136 19.154 51.9103 20.1762 52.8437 21.0788C55.4572 23.6062 58.4941 25.8695 61.7478 27.4679C62.1445 27.6627 62.6018 28.003 63.0081 28.1206C63.3785 28.2279 63.8717 28.1941 64.2598 28.2043L64.3634 28.2059L142.538 28.2151C141.332 27.5624 140.105 26.9886 138.956 26.2296C137.219 25.0821 135.736 23.6748 134.279 22.1984C132.927 20.8286 131.691 19.5645 130.821 17.8199L128.814 17.943ZM81.4738 176.559C82.1216 177.387 82.3481 178.288 82.646 179.277C83.7947 183.095 84.0067 187.201 83.5579 191.165L82.5424 196.687C83.26 196.444 83.5982 195.81 84.1162 195.271C85.3238 194.015 86.5256 192.773 87.612 191.407C88.0757 190.823 88.5942 189.808 89.1707 189.372C89.4638 189.151 89.825 189.167 90.1481 189.32C91.0192 189.73 91.8823 190.291 92.5645 190.97C92.8356 191.24 93.1351 191.683 93.4437 191.887C93.8296 192.653 94.3229 193.353 94.7158 194.117C95.0475 194.761 95.3422 195.746 95.7839 196.286C96.7061 193.937 96.8719 191.236 97.1312 188.75C97.2702 187.417 97.4956 186.1 97.4597 184.754C97.4264 183.483 97.2315 182.152 97.0185 180.9C96.8011 179.624 96.1419 177.985 96.6717 176.736C96.0453 176.362 93.5978 176.616 92.7712 176.616C89.0167 176.618 85.2235 176.732 81.4738 176.559ZM45.7411 13.6492L45.6023 13.972C46.0235 14.7109 46.4238 15.3463 46.9841 15.9853C47.4849 16.1837 47.9865 16.3841 48.5312 16.4057C49.4447 16.4419 50.4324 16.1601 51.3867 16.1527C55.3053 16.1221 59.2251 16.1506 63.1439 16.1598C79.2055 16.1976 95.2665 15.993 111.328 16.073C114.889 16.0907 118.457 15.9965 122.017 16.0631L122.453 16.0405L122.539 15.7835L122.484 15.6831C122.156 15.0128 122.255 14.2463 122.233 13.5197L45.7411 13.6492ZM147.042 30.1404C144.947 30.1527 142.853 30.1677 140.758 30.1806C139.907 30.1855 138.713 30.0609 137.902 30.2585C137.514 30.3529 137.12 30.5558 136.839 30.843C136.225 31.4699 136.28 32.8252 136.236 33.648C138.697 35.4966 141.893 35.532 144.837 35.4611C145.297 35.0242 145.729 34.4832 146.411 34.4971C146.853 34.5068 147.441 34.7644 147.743 35.0843C148.131 35.4966 148.298 36.255 148.533 36.7713C149.178 38.1846 149.642 40.2988 149.675 41.8624C149.817 43.654 150.085 45.7913 150.811 47.4225L150.85 47.5095C151.377 47.8149 151.876 48.1112 152.459 48.2974C153.308 47.933 154.2 47.6173 154.6 46.7086C155 45.8015 154.866 44.1832 154.88 43.1806C154.922 40.3659 155.106 37.3086 154.822 34.5132C154.762 33.9293 154.661 33.3066 154.419 32.7667C153.934 31.6835 153.152 30.9433 152.045 30.5129C150.551 29.9316 148.625 30.1312 147.042 30.1404ZM151.824 156.758C150.282 158.282 150.807 160.86 150.69 162.847C150.651 163.515 150.439 164.151 150.362 164.813C150.231 165.946 150.323 167.004 149.36 167.804C148.599 168.436 147.73 168.812 146.764 169.007C144.582 169.446 139.023 168.862 138.975 172.085C138.967 172.582 139.22 173.246 139.56 173.616C140.041 174.14 141.686 174.022 142.384 174.028C144.585 174.033 146.76 173.981 148.956 173.825C149.805 173.764 150.72 173.784 151.542 173.551C152.237 173.354 152.882 173.019 153.401 172.51C155.088 170.855 154.945 168.211 154.927 166.028C154.918 164.8 154.758 163.589 154.741 162.373C154.721 161.001 154.905 159.428 154.707 158.083C154.67 157.828 154.554 157.555 154.364 157.376C153.674 156.728 152.705 156.712 151.824 156.758ZM42.4274 132.383L42.5708 139.105C42.6078 140.048 43.7015 141.333 44.2253 142.1C45.0519 143.308 45.8605 144.556 46.7715 145.704C49.7793 149.493 53.2951 152.774 56.9697 155.903C57.3401 156.219 57.7925 156.627 58.2606 156.78L58.1489 149.495C54.9939 147.248 52.4503 144.635 49.8876 141.756C48.6958 140.416 47.4784 139.111 46.402 137.674C45.6566 136.679 43.3611 132.754 42.4274 132.383ZM42.4264 34.59C42.4243 35.8379 42.4235 37.0853 42.4293 38.3333C42.4323 38.9892 42.3623 39.7739 42.5446 40.4067C42.6976 40.9381 43.1862 41.4517 43.5243 41.8838C44.3859 42.9852 45.2275 44.0437 46.2151 45.0383C47.766 46.6002 49.4958 47.905 51.2302 49.2496C53.0032 50.6242 54.8163 52.0498 56.7631 53.1657L57.9965 52.469C58.4887 51.4234 58.2289 49.1154 58.1296 47.9458C56.9171 47.1091 55.9209 46.0608 54.7556 45.1784C52.2673 43.2949 49.7143 41.6874 47.3961 39.5619C46.2569 38.5174 45.1632 37.416 44.0886 36.3049C43.5402 35.7381 43.0487 35.0715 42.4264 34.59ZM68.6751 176.53C68.4351 177.835 69.0626 179.754 69.244 181.101C69.7067 181.643 70.2601 181.718 70.9487 181.771L80.9789 181.97C80.7819 180.215 80.0831 178.348 80.1008 176.616C77.7155 176.617 75.3302 176.617 72.9443 176.614C71.5305 176.612 70.0819 176.679 68.6751 176.53ZM130.923 12.2876L124.502 12.474C124.005 13.3806 123.723 13.9626 123.929 15.0246C124.365 15.6198 125.175 15.9055 125.887 16.0116C126.811 16.1491 127.954 16.1254 128.887 16.0671C129.58 16.0237 130.146 15.8628 130.831 16.081C131.43 16.2721 131.883 16.6841 132.356 17.0805C133.553 18.1235 134.578 19.5891 135.643 20.779C135.602 18.4085 135.92 14.7955 134.002 13.0312C133.204 12.2974 131.958 12.2119 130.923 12.2876Z" fill="#767147"/>
<path d="M79.6964 21.5397C80.4489 21.4647 81.4505 21.3514 82.1794 21.5433C82.5229 21.6336 82.5186 21.7257 82.664 22.0229C82.4993 22.4676 82.4966 22.4318 82.0967 22.6219C81.5202 22.664 80.9363 22.7142 80.3598 22.6555C79.844 22.6029 79.596 22.644 79.252 22.2242L79.3003 21.8216L79.6964 21.5397Z" fill="#767147"/>
<path d="M96.987 25.1603C97.9993 25.1089 100.716 24.8571 101.488 25.4263C101.721 25.5981 101.667 25.6518 101.706 25.9153C101.218 26.3672 100.785 26.3828 100.144 26.5347C99.0981 26.7279 97.2753 27.0548 96.2866 26.5943C95.9796 26.1654 95.9935 26.1123 96.0043 25.5798C96.3451 25.2717 96.5469 25.2637 96.987 25.1603Z" fill="#767147"/>
<path d="M63.5969 21.0066C66.0879 20.9758 68.579 20.9591 71.0706 20.9492C71.8966 20.9458 73.0941 20.7879 73.8777 20.9713C74.0817 21.0191 74.2465 21.1031 74.4145 21.2241C74.4848 21.6064 74.4875 21.8454 74.3962 22.2246C73.9872 22.555 73.8203 22.5126 73.3072 22.5538C70.8714 22.5501 68.433 22.5562 65.9978 22.4967C65.0536 22.4736 63.9152 22.5562 63.0081 22.3398C62.693 22.2646 62.4692 22.1078 62.2363 21.8909L62.2647 21.5537C62.6812 21.1937 63.0768 21.118 63.5969 21.0066Z" fill="#767147"/>
<path d="M107.432 25.0386C110.125 25.0163 112.812 25.0141 115.504 25.0977C116.363 25.1244 117.476 25.0452 118.293 25.2647C118.634 25.3565 118.751 25.4805 118.91 25.7805L118.78 26.0677C118.098 26.5196 116.844 26.4074 116.03 26.4412C113.498 26.5234 110.962 26.4928 108.429 26.5035C107.477 26.5078 105.665 26.7321 104.801 26.3489C104.479 26.2061 104.47 26.014 104.354 25.7134L104.606 25.3414C105.452 25.0046 106.528 25.0742 107.432 25.0386Z" fill="#767147"/>
<path d="M113.265 19.9297C115.008 19.8232 124.389 19.5705 125.277 20.3105C125.496 20.4931 125.455 20.6834 125.488 20.9508C125.289 21.3555 125.219 21.3307 124.82 21.501C122.05 21.6565 119.226 21.584 116.452 21.5779C115.581 21.576 113.845 21.7488 113.058 21.4432C112.934 21.3952 112.769 21.2393 112.655 21.1594L112.611 20.6153C112.807 20.19 112.883 20.1683 113.265 19.9297Z" fill="#767147"/>
<path d="M124.907 86.9707L125.605 86.9895C126.052 87.2686 126.032 87.3303 126.197 87.8408C126.149 88.3115 125.961 88.5364 125.674 88.9019L125.068 88.8117C124.67 88.6953 124.549 88.6046 124.373 88.2433C124.434 87.6255 124.559 87.4613 124.907 86.9707Z" fill="#767147"/>
<path d="M88.6445 86.9219C88.9719 86.9492 89.3766 86.9857 89.6514 87.1752C89.9075 87.3513 90.0679 87.5139 90.0824 87.8424C90.1066 88.3947 89.8672 88.5106 89.4888 88.8552L88.9735 88.844C88.5994 88.7795 88.4867 88.5906 88.2672 88.3179C88.2135 87.7184 88.3976 87.4629 88.6445 86.9219Z" fill="#767147"/>
<path d="M58.3946 74.0391L58.8873 74.1786C59.343 74.3192 59.5668 74.4792 59.788 74.9043C59.7515 75.367 59.7016 75.7244 59.4992 76.1453C58.9759 76.1748 58.5841 76.3251 58.1777 75.9687C58.2668 75.295 58.035 74.6531 58.3946 74.0391Z" fill="#767147"/>
<path d="M114.991 76.0781L115.742 76.2628C116.101 76.6439 116.108 76.7195 116.194 77.2413C116.004 77.7066 115.91 77.719 115.499 77.9771C114.951 77.8805 114.669 77.8768 114.235 77.5096C114.213 77.2472 114.149 76.8929 114.243 76.6439C114.357 76.3411 114.724 76.2263 114.991 76.0781Z" fill="#767147"/>
<path d="M98.8754 76.082C99.2334 76.1196 99.8008 76.1609 100.08 76.3939C100.258 76.5426 100.284 76.746 100.276 76.973C100.257 77.5248 100.042 77.6128 99.6414 77.9435C99.3182 77.9188 98.8008 77.9349 98.5126 77.7894C98.2673 77.6654 98.278 77.484 98.2109 77.2414C98.3022 76.6939 98.482 76.4647 98.8754 76.082Z" fill="#767147"/>
<path d="M99.5359 112.607C99.8134 112.659 100.126 112.69 100.313 112.927C100.527 113.199 100.576 113.613 100.474 113.941C100.296 114.51 100.06 114.643 99.5708 114.889C99.1843 114.79 98.9873 114.715 98.7023 114.43C98.551 114.022 98.4898 113.624 98.6556 113.203C98.8113 112.81 99.1806 112.749 99.5359 112.607Z" fill="#767147"/>
<path d="M92.6119 80.2289C92.9426 80.2155 93.2254 80.2611 93.5491 80.3261C93.7509 80.5129 94.008 80.7297 94.0665 81.011C94.1996 81.6481 93.9028 82.0072 93.5791 82.4956C93.1922 82.4076 92.7493 82.3018 92.4176 82.0775C92.2249 81.9476 92.1401 81.7801 92.1273 81.5456C92.0929 80.9256 92.2663 80.7007 92.6119 80.2289Z" fill="#767147"/>
<path d="M120.91 80.1973C121.4 80.2161 121.695 80.2778 122.117 80.5317C122.327 80.858 122.34 81.1425 122.282 81.5354C122.218 81.9734 121.807 82.1703 121.483 82.4124L120.909 82.3856C120.519 82.1301 120.458 82.1274 120.291 81.6696C120.317 81.0249 120.55 80.6986 120.91 80.1973Z" fill="#767147"/>
<path d="M106.908 114.662L107.625 114.862C108.081 115.215 108.147 115.755 108.288 116.289C108.083 116.712 108.061 116.702 107.623 116.886C107.101 116.888 106.735 116.956 106.265 116.692L106.176 116.222C106.35 115.603 106.49 115.167 106.908 114.662Z" fill="#767147"/>
<path d="M114.507 112.57C115.004 112.658 115.361 112.708 115.772 113.028C115.83 113.228 115.908 113.465 115.903 113.674C115.889 114.273 115.607 114.467 115.202 114.837C114.807 114.862 114.663 114.831 114.315 114.644C114.035 114.322 113.861 114.05 113.887 113.607C113.914 113.145 114.192 112.874 114.507 112.57Z" fill="#767147"/>
<path d="M93.0761 108.98C93.3075 108.975 93.5775 108.956 93.8029 109.009C94.2731 109.118 94.3917 109.402 94.6134 109.781C94.659 110.419 94.4776 110.707 94.1394 111.21L93.132 111.101C92.7766 110.824 92.731 110.775 92.636 110.307C92.5249 109.763 92.7788 109.412 93.0761 108.98Z" fill="#767147"/>
<path d="M120.467 108.949C120.955 108.969 121.243 109.043 121.665 109.293C121.748 109.492 121.829 109.697 121.845 109.915C121.889 110.519 121.54 110.863 121.156 111.258L120.307 111.103C119.936 110.722 119.891 110.634 119.766 110.116C119.854 109.572 120.107 109.335 120.467 108.949Z" fill="#767147"/>
<path d="M89.3316 102.25C89.6348 102.329 90.0186 102.46 90.2585 102.663C90.5527 102.912 90.6316 103.148 90.5994 103.541C90.5634 103.978 90.0916 104.285 89.7808 104.55C89.3692 104.52 89.0772 104.457 88.7057 104.275C88.4309 103.904 88.403 103.74 88.4551 103.272C88.5093 102.782 88.965 102.514 89.3316 102.25Z" fill="#767147"/>
<path d="M87.3729 94.4655C87.7373 94.4601 87.9649 94.4854 88.3009 94.6308C88.5542 94.9212 88.704 95.1439 88.7212 95.5406C88.7443 96.0725 88.5145 96.372 88.1807 96.759L87.0932 96.598C86.74 96.2856 86.74 96.2233 86.6348 95.7574C86.7298 95.166 86.9864 94.8885 87.3729 94.4655Z" fill="#767147"/>
<path d="M124.868 102.242C125.105 102.34 125.456 102.453 125.651 102.617C126.051 102.951 125.997 103.266 126.016 103.742C125.777 104.206 125.553 104.321 125.131 104.607C124.744 104.508 124.306 104.378 124.047 104.053C123.857 103.814 123.824 103.505 123.886 103.206C123.992 102.695 124.472 102.501 124.868 102.242Z" fill="#767147"/>
<path d="M126.256 94.4316C126.517 94.452 126.785 94.4767 127.029 94.5809C127.482 94.773 127.614 95.0666 127.77 95.4901C127.715 96.014 127.657 96.3108 127.308 96.7155L126.21 96.6318C125.89 96.402 125.739 96.2974 125.668 95.8927C125.565 95.3124 125.935 94.8659 126.256 94.4316Z" fill="#767147"/>
<path d="M106.794 74.5742C107.178 74.5839 107.597 74.5914 107.901 74.8635C108.21 75.1405 108.335 75.4164 108.3 75.8318C108.259 76.317 107.967 76.4899 107.636 76.7947C107.201 76.7867 106.888 76.7609 106.484 76.5956C106.292 76.3514 106.187 76.273 106.162 75.9553C106.112 75.3208 106.398 75.0407 106.794 74.5742Z" fill="#767147"/>
<path d="M65.5388 34.4928C65.7578 34.4853 65.9634 34.4821 66.1797 34.525C66.6413 34.6173 66.9612 34.8664 67.1882 35.2791C67.4024 35.6688 67.4748 36.1256 67.3476 36.5528C67.1104 37.351 66.6966 37.6435 66.0117 38.0235L65.3907 37.9462C64.9859 37.8663 64.5302 37.6924 64.3161 37.308C64.0552 36.8379 64.1127 35.9426 64.3097 35.4418C64.5297 34.8836 65.0423 34.7472 65.5388 34.4928Z" fill="#767147"/>
<path d="M65.9232 166.008L66.1803 166.034C66.7643 166.113 67.309 166.278 67.6499 166.799C67.8114 167.046 68.0127 167.607 67.9628 167.884C67.8136 168.707 67.5431 169.075 66.8619 169.55C66.1143 169.54 65.5271 169.258 64.8534 168.965C64.7557 168.421 64.548 167.693 64.6962 167.152C64.8835 166.465 65.3429 166.314 65.9232 166.008Z" fill="#767147"/>
<path d="M91.9713 39.5241C99.0655 39.3502 106.2 39.4672 113.298 39.4806C115.44 39.4849 117.582 39.4897 119.724 39.4978C121.094 39.5032 122.55 39.4334 123.905 39.6551C124.355 39.7291 124.649 39.7629 124.919 40.1371C124.86 40.3807 124.81 40.6153 124.638 40.8085C124.118 41.3947 123.216 41.3222 122.504 41.3388C113.755 41.3034 104.999 41.429 96.2481 41.2449C94.4747 41.2079 92.682 41.4478 90.9112 41.3174C90.5752 41.2927 90.2505 41.2304 89.9805 41.0103C89.6161 40.7141 89.5914 40.502 89.5195 40.07C89.9972 39.537 91.3041 39.5826 91.9713 39.5241Z" fill="#767147"/>
<path d="M102.068 162.167C105.231 162.005 108.487 162.042 111.652 162.131C112.527 162.155 113.391 162.263 114.27 162.265C116.51 162.27 118.733 162.181 120.976 162.239C121.741 162.258 122.661 162.189 123.393 162.395C123.861 162.527 124.153 162.766 124.382 163.187C124.409 163.627 124.468 163.982 124.236 164.377C124.017 164.564 123.802 164.716 123.519 164.788C122.269 165.106 120.763 164.98 119.472 164.985C117.22 164.994 114.968 164.995 112.715 164.996L91.8461 164.921C91.1081 164.857 90.5644 164.773 90.069 164.193C90.0271 163.629 90.0373 163.294 90.3229 162.784C90.6041 162.571 90.8816 162.409 91.2267 162.323C91.8419 162.169 92.7071 162.241 93.3506 162.227C96.2083 162.165 99.2473 162.525 102.068 162.167Z" fill="#767147"/>
<path d="M58.5686 78.8496C58.8005 78.899 59.0238 78.979 59.2497 79.0514C59.4902 79.2586 59.648 79.4545 59.765 79.754C59.897 80.0906 59.9459 80.4164 59.955 80.7755C60.0366 83.9396 59.9658 87.1246 59.9695 90.2903C59.9786 96.9685 59.9733 103.646 59.9663 110.324C59.9615 114.565 59.9641 118.804 59.962 123.045C59.9609 125.224 60.064 127.46 59.9266 129.633C59.8525 130.811 59.5288 131.834 59.0833 132.916C58.9438 133.053 58.8279 133.106 58.6459 133.177L58.3936 132.927C58.0775 131.705 58.1537 130.438 58.1499 129.185C58.1451 127.436 58.1419 125.687 58.1403 123.938C58.1333 117.446 58.1628 110.955 58.1677 104.463C58.1714 99.0495 58.1247 93.6348 58.1236 88.2212C58.1236 85.64 58.0141 83.0035 58.1687 80.4303C58.2025 79.8721 58.3759 79.3681 58.5686 78.8496Z" fill="#767147"/>
<path d="M73.697 152.167C73.866 152.165 74.0442 152.163 74.2106 152.196C75.0109 152.358 75.3603 152.971 75.7935 153.589C76.027 153.365 76.268 153.138 76.5498 152.975C77.0656 152.677 77.9866 152.333 78.5717 152.531C79.0832 152.705 79.3714 152.949 79.5738 153.46C79.9216 154.34 79.5636 155.324 79.2764 156.167C80.0177 156.233 80.7632 156.372 81.2586 156.986C81.4519 157.226 81.5061 157.591 81.4599 157.897C81.3987 158.305 81.1255 158.614 80.7874 158.831C79.1809 159.859 77.0323 159.485 75.3061 159.063L73.3878 161.407L73.8467 161.317C75.2611 161.074 77.5095 161.416 78.6307 162.415C78.9673 162.714 79.0612 163.083 79.0295 163.524C78.971 164.355 78.7129 164.789 78.0849 165.268C77.0184 165.46 76.2621 165.033 75.3083 164.613C73.866 164.055 72.6771 164.198 71.1598 164.294C70.5125 164.334 69.7138 164.445 69.0906 164.21C67.9865 163.795 68.8985 161.771 68.8432 160.931C68.7675 159.777 68.4916 158.467 67.826 157.513C67.5485 157.115 67.1777 156.706 66.9903 156.257C66.7767 155.744 66.7085 155.24 66.9485 154.724C67.1734 154.239 67.5587 154.098 68.0311 153.934C68.3789 153.813 68.6569 153.856 68.987 154.037C70.0997 154.649 70.6901 156.585 71.0717 157.718C71.3525 158.551 71.3498 159.44 71.3981 160.314L73.7437 157.584C73.1602 156.365 72.6911 154.681 72.8876 153.326C72.9708 152.75 73.2429 152.5 73.697 152.167Z" fill="#767147"/>
<path d="M76.5986 38.6778L76.7027 38.6746C77.3291 38.6633 77.7156 38.7803 78.1718 39.2161C78.3248 39.6756 78.5803 40.3299 78.481 40.8097C78.3811 41.2939 78.1535 41.4994 77.7682 41.7619C76.7081 42.4849 74.9835 43.0066 73.7141 42.7361C73.4699 42.684 73.3293 42.6486 73.0727 42.691C73.1038 43.1516 74.3904 44.4607 74.7329 44.896C75.9014 44.6485 77.0618 44.4542 78.2609 44.5643C79.0279 44.6346 80.2656 44.9706 80.7509 45.6072C81.0289 45.9722 80.9312 46.3591 80.8705 46.781C80.2297 47.5985 79.8813 47.7241 78.8926 47.869C79.2077 49.1867 79.3161 49.9951 78.6409 51.2092C78.2614 51.4609 78.1729 51.535 77.7027 51.5452C76.6877 51.5683 75.9491 51.0814 75.253 50.4062C74.8413 51.0084 74.4334 51.5736 73.7436 51.8662C73.3298 51.8747 72.9933 51.8103 72.6701 51.5285C72.332 51.2339 72.346 50.7878 72.3057 50.3702C72.332 48.9876 72.6723 47.6205 73.26 46.3715L70.8533 43.7752C70.7513 45.7328 70.3552 47.4477 69.2699 49.1239L69.1593 49.293L68.9929 49.5415C68.7084 49.9124 68.2291 50.1453 67.7723 50.1888C67.2941 50.0074 66.6114 49.8265 66.3918 49.3306C65.8282 48.0563 67.0671 46.9936 67.599 45.9614C67.891 45.3941 68.0455 44.7022 68.1615 44.0785C68.2479 43.6126 68.3483 43.0936 68.3016 42.6212C68.2468 42.0684 68.0461 41.5784 68.0348 41.0056C68.0294 40.7496 68.0235 40.4904 68.1448 40.2563C68.6966 39.1963 72.435 39.9885 73.5869 39.784C74.5997 39.6047 75.6153 39.0186 76.5986 38.6778Z" fill="#767147"/>
<path d="M138.961 152.172C139.256 152.164 139.503 152.176 139.772 152.309C140.095 152.467 140.373 152.725 140.473 153.079C140.838 154.381 140.157 156.4 139.577 157.578L142.045 160.281C142.081 159.471 142.02 158.565 142.286 157.793C142.658 156.712 143.227 154.792 144.199 154.116C144.416 153.965 144.81 153.813 145.07 153.879C145.572 154.007 146.178 154.184 146.436 154.684C146.549 154.905 146.603 155.158 146.589 155.406C146.519 156.672 145.253 157.618 144.945 158.866C144.777 159.548 144.52 160.425 144.521 161.121C144.525 162.148 145.06 162.751 144.676 163.859C144.575 163.957 144.442 164.125 144.326 164.195C143.597 164.635 140.198 164.072 139.041 164.29L138.853 164.326C137.982 164.624 136.943 165.295 136.047 165.342C135.47 165.374 135.087 165.244 134.68 164.843C134.518 164.368 134.324 163.832 134.358 163.323C134.382 162.975 134.551 162.528 134.837 162.316C136.362 161.188 138.225 161.141 140.014 161.394L138.069 159.13C136.343 159.476 134.52 159.782 132.861 158.973L132.716 158.899C132.315 158.698 132.137 158.562 131.93 158.157C131.893 157.768 131.861 157.415 132.094 157.078C132.403 156.631 132.838 156.381 133.36 156.274L133.782 156.182L133.957 156.144C133.951 155.988 133.94 155.847 133.892 155.697L133.685 154.963C133.537 154.265 133.68 153.503 134.118 152.923C134.305 152.676 134.657 152.525 134.957 152.487C135.919 152.364 136.933 153.005 137.637 153.583C138.034 152.984 138.308 152.522 138.961 152.172Z" fill="#767147"/>
<path d="M134.849 38.6804C136.384 38.5967 137.594 39.6793 139.083 39.8484C140.116 39.9654 141.281 39.7796 142.321 39.7185C142.771 39.6922 143.34 39.6369 143.754 39.8419C144.92 40.4189 143.894 42.187 143.992 43.1343C144.099 44.1649 144.302 45.4788 144.902 46.3408C145.26 46.8561 145.75 47.3864 145.949 47.9924C146.092 48.4272 146.064 48.9693 145.839 49.3751C145.609 49.791 144.896 50.0873 144.458 50.1834C144.066 50.0948 143.731 49.9671 143.419 49.7052C143.077 49.4185 142.853 48.8818 142.655 48.4867C141.821 46.825 141.582 45.6178 141.465 43.7725L139.053 46.4117C139.503 47.2989 139.708 48.2581 139.959 49.214L139.994 50.324C139.966 50.9853 139.814 51.2719 139.328 51.7249C139.057 51.8301 138.821 51.9004 138.528 51.8398C137.79 51.6873 137.462 51.0304 137.104 50.4405C136.791 50.7003 136.472 50.9214 136.109 51.1093C135.5 51.4249 134.702 51.7126 134.023 51.4598C133.399 51.2274 133.258 50.5876 133.025 50.0218L133.455 47.8786C132.681 47.7272 132.02 47.6532 131.5 47.0144C131.365 46.8481 131.35 46.322 131.385 46.11C131.456 45.6785 131.774 45.3221 132.142 45.1133C133.817 44.1595 135.791 44.5213 137.552 44.9587L139.457 42.5825C138.32 42.7908 137.23 42.8992 136.12 42.5015L135.937 42.4349C135.112 42.1435 134.338 41.8322 133.857 41.0979C133.792 40.7415 133.802 40.4425 133.881 40.0915C134.05 39.3358 134.177 39.1007 134.849 38.6804Z" fill="#767147"/>
<path d="M144.762 58.4316L145.331 58.5551C145.692 58.9051 145.798 59.1541 145.849 59.6629C145.971 60.8722 145.91 62.1427 145.915 63.3595C145.923 65.4839 145.924 67.6084 145.926 69.7323C145.93 76.5849 145.93 83.4376 145.93 90.2902C145.93 102.575 145.93 114.859 145.922 127.143C145.918 133.437 146.041 139.763 145.892 146.053C145.878 146.653 145.775 146.994 145.405 147.468L144.93 147.353C144.682 147.262 144.495 147.152 144.393 146.898C144.232 146.5 144.282 145.88 144.28 145.449C144.275 144.495 144.274 143.541 144.272 142.588C144.266 138.953 144.266 135.319 144.265 131.685C144.258 116.796 144.252 101.907 144.253 87.0187C144.253 81.2976 144.254 75.5769 144.258 69.8557C144.26 66.726 144.175 63.5656 144.295 60.4385C144.322 59.7161 144.487 59.0977 144.762 58.4316Z" fill="#767147"/>
<path d="M68.9963 58.4492C69.4821 58.5126 69.5374 58.5362 69.9056 58.8593C70.3355 60.3906 70.2099 62.0443 70.2115 63.6229C70.2137 65.611 70.2163 67.5997 70.2179 69.5878C70.2239 75.9654 70.226 82.343 70.2271 88.7201C70.2287 101.4 70.2233 114.079 70.2163 126.758C70.2131 133.114 70.4278 139.561 70.1868 145.91C70.1659 146.466 70.0065 146.872 69.7542 147.362L68.9115 147.34L68.6243 146.886C68.3592 142.531 68.5503 138.056 68.5465 133.685C68.5395 125.428 68.5347 117.17 68.532 108.912C68.5288 98.1979 68.5336 87.4839 68.5395 76.77C68.5422 71.249 68.3758 65.6695 68.5734 60.1577C68.5959 59.5318 68.721 59.0101 68.9963 58.4492Z" fill="#767147"/>
<path d="M105.478 81.3584C106.888 81.1164 108.088 81.1824 109.498 81.4067L110.372 81.5844C114.17 82.3965 117.553 84.4125 119.67 87.7226C121.807 91.0649 122.475 94.9027 121.603 98.7801C120.947 101.699 119.476 103.79 117.543 106.013C117.082 106.542 116.628 107.203 116.012 107.563C115.463 107.882 114.842 108.101 114.274 108.392C111.088 110.017 108.064 111.151 104.476 110.134C102.776 109.652 101.497 108.965 99.9093 108.234C99.1563 107.888 98.1322 107.669 97.7103 106.898C97.3196 106.185 96.6459 105.672 96.1639 105.014C94.4206 102.631 93.272 100.086 92.7975 97.1538C92.6311 96.1238 92.7948 95.221 92.9821 94.2167C93.5398 91.2238 94.4474 88.8401 96.2879 86.3802C97.9696 84.1329 99.9002 83.046 102.526 82.185C103.506 81.8635 104.451 81.5071 105.478 81.3584ZM105.727 82.7314C104.565 82.9531 103.311 83.1737 102.227 83.6616C101.281 84.0867 100.406 84.7533 99.576 85.3711C98.8144 85.9369 98.086 86.4666 97.5412 87.2567C94.8843 91.1095 94.0814 94.7631 94.9579 99.3163C95.5435 102.356 98.2084 105.239 100.734 106.838C103.04 108.297 105.979 109.235 108.73 108.845C109.612 108.676 110.586 108.54 111.424 108.219C113.727 107.335 116.409 105.335 117.772 103.273C119.496 100.665 120.654 97.1028 119.989 93.9483C119.605 92.1288 118.731 90.4155 117.833 88.8009C117.458 88.1263 117.074 87.334 116.547 86.7688C115.613 85.7673 114.322 84.8763 113.164 84.1468C111.017 82.7931 108.198 82.5522 105.727 82.7314Z" fill="#767147"/>
<path d="M105.479 81.3584C106.888 81.1164 108.089 81.1824 109.499 81.4067L109.231 81.666C109.078 81.7009 108.958 81.7148 108.8 81.71C107.754 81.6789 106.377 81.9499 105.479 81.3584Z" fill="#767147"/>
</svg>
