<svg width="200" height="200" viewBox="0 0 200 200" fill="none" xmlns="http://www.w3.org/2000/svg">
<path d="M83.8191 51.7441H115.637L120.94 52.8047L122.531 55.7214L121.736 59.4335L118.289 61.8199V76.6684L120.41 80.3805L134.728 88.335L140.827 92.8426L145.334 97.8805V110.077L137.38 127.577L126.508 145.343L114.046 160.721L103.971 168.676L98.6676 169.206L92.0388 166.29L81.1676 155.684L67.91 137.388L56.5085 115.115L53.5918 104.774L54.9176 98.676L60.2206 90.9866L68.4403 86.479L79.0463 80.3805L81.1676 76.4032V61.8199L78.2509 59.4335L77.4554 56.5169L77.7206 53.8654L79.3115 52.5396L83.8191 51.7441Z" fill="#F2E3E3"/>
<path d="M69.2372 124.66L65.5251 116.705L62.0781 106.629V101.857L64.9948 95.7583L73.2145 91.2507L82.7599 86.7431L88.063 81.7053V61.0234H111.927V80.1143L113.783 84.6219L119.881 88.334L133.934 95.228L138.177 101.857L137.116 111.667L123.593 136.326L109.275 156.213L100.79 161.516L92.8357 158.599L86.7372 150.91L69.2372 124.66Z" fill="#D8CECE"/>
<path d="M66.0547 118.827L67.1153 112.199L71.888 105.305L77.9865 104.244L88.3274 107.691L98.4032 116.706L111.661 128.373L121.471 131.82L128.63 129.168L119.085 142.691L105.562 159.131L99.7289 162.047L93.6304 157.805L86.7365 151.706L77.9865 139.774L66.0547 118.827Z" fill="#FDD571"/>
<path d="M106.623 118.825H102.381L108.479 125.719L114.578 130.227L120.146 131.553L127.305 130.227L129.161 127.31L127.305 121.742L123.328 118.825L116.699 117.234L106.623 118.825Z" fill="#EDB066"/>
<path d="M119.616 95.4928L116.169 93.6367L114.313 94.167L113.518 96.2882L114.313 99.7352L120.677 107.159L122.798 107.955V103.182L121.737 98.4094L119.616 95.4928Z" fill="#F2E3E3"/>
<path d="M84.8809 35.5696L85.6763 33.7135L90.7142 31.5923L99.9945 30.7969L111.661 32.3878L114.048 34.7741L111.661 48.8272V51.7438H88.0627L84.8809 35.5696Z" fill="#767147"/>
<path d="M96.8455 30.0772L97.3351 30.0477C100.003 29.8976 102.393 30.1223 105.015 30.4355C108.189 30.8146 112.054 31.1987 114.529 33.4111C114.746 34.0844 115.012 34.8426 114.994 35.5561C114.949 37.2583 114.408 39.1823 114.103 40.8633C113.522 44.0615 112.984 47.254 112.447 50.459L112.538 50.455C115.064 50.1069 118.299 50.5139 120.675 51.4399C121.77 51.8666 122.58 52.845 123.035 53.8967C123.495 54.963 123.506 56.5654 123.272 57.7047C122.82 59.8999 121.243 61.0881 119.51 62.2623C119.407 65.0438 119.482 67.8486 119.49 70.6333C119.495 72.5036 119.289 74.771 119.719 76.5999C120.064 78.0632 120.91 78.8607 122.016 79.7958C124.302 81.727 126.63 82.6072 129.273 83.9139C131.611 85.0704 133.923 86.2281 136.157 87.5783C140.912 90.4538 145.318 94.5093 146.653 100.133C147.279 102.772 146.73 106.007 146.167 108.605C145.091 113.573 143.432 118.299 141.201 122.874C140.351 124.62 139.351 126.279 138.415 127.978C137.804 129.088 137.305 130.254 136.661 131.348C135.283 133.686 133.739 135.938 132.322 138.255C130.214 141.705 127.775 144.901 125.354 148.131C124.007 149.928 122.603 151.676 121.248 153.465C120.508 154.441 119.852 155.473 119.063 156.412C116.638 159.297 113.936 161.898 111.182 164.465C109.615 165.926 108.047 167.467 106.171 168.536C105.252 169.06 104.149 169.364 103.129 169.61C101.949 169.895 100.848 170.006 99.6329 170C97.8938 169.99 95.6688 169.531 94.1092 168.746C92.2591 167.814 90.6945 166.355 89.1833 164.965C87.4964 163.412 85.8432 161.831 84.2302 160.201C82.9839 158.942 81.7224 157.628 80.6192 156.24C79.6623 155.035 78.8218 153.741 77.8633 152.537C73.4564 147.003 69.4743 141.362 65.7202 135.377C64.8155 133.934 63.8418 132.525 62.9888 131.052C62.4312 130.089 61.9938 129.054 61.4585 128.076C60.426 126.19 59.3255 124.34 58.3936 122.4C56.6066 118.678 55.1688 114.745 54.1635 110.749C53.4786 108.027 52.9744 105.461 53.001 102.642C53.0897 93.3087 62.225 87.9319 69.5722 84.3094C72.8286 82.7035 76.0213 81.64 78.6684 79.0038C79.1863 78.4875 79.752 77.7836 79.9778 77.0786C80.6012 75.1284 80.3564 72.6037 80.3575 70.5686C80.3591 67.7811 80.3559 64.9943 80.3591 62.2068C79.0791 61.4686 77.7958 60.6125 77.112 59.2473C76.463 57.9518 76.1606 55.6569 76.6785 54.2555C77.0598 53.2245 77.6359 52.3621 78.5422 51.7124C80.228 50.5034 85.3878 50.0988 87.3664 50.4364C86.8963 48.0914 86.6352 45.6795 86.1979 43.32C85.9133 41.7865 85.6299 40.2479 85.3198 38.7192C85.1126 37.6985 84.7933 36.5038 84.7998 35.4688C84.8047 34.7385 85.0957 34.0264 85.3634 33.3589C88.0284 30.6564 93.3068 30.6579 96.8455 30.0772ZM81.9819 52.3498C80.6311 52.6872 79.3761 52.9527 78.6374 54.2443C78.126 55.1383 78.033 56.4161 78.323 57.3933C78.6635 58.5403 79.412 59.6754 80.5011 60.2268C81.093 60.5262 81.8742 60.5623 82.132 61.2407C82.4965 62.2003 82.3442 63.9503 82.3523 64.9894C82.3714 67.4868 82.3692 69.9849 82.3861 72.4829C82.3931 73.5317 82.5689 74.7715 82.4552 75.7926C82.3377 76.8501 81.9819 78.0094 81.4553 78.9282C80.8471 79.9901 79.8864 80.8376 78.9567 81.6177C76.7584 83.4597 74.2033 84.6624 71.6514 85.9316C66.5781 88.4563 59.9054 91.3705 56.921 96.4389C55.838 98.2787 55.3598 100.489 55.2989 102.602C55.2526 104.226 55.2755 105.958 55.6862 107.537C56.2563 109.73 56.8063 112.016 57.582 114.144C59.0007 118.036 60.8748 121.733 62.8125 125.388C65.1332 129.766 67.6976 133.993 70.3806 138.156C70.929 139.006 71.3663 139.909 71.9375 140.752C75.2238 145.602 78.8452 150.194 82.5438 154.732C83.22 155.562 83.8217 156.459 84.5196 157.268C86.3828 159.43 88.5729 161.542 90.6673 163.482C91.6726 164.412 92.6361 165.412 93.8187 166.119C96.4141 167.671 99.8756 168.117 102.798 167.362C106.401 166.431 109.014 163.832 111.486 161.182C112.699 159.962 113.996 158.767 115.13 157.477C116.031 156.452 116.822 155.29 117.687 154.227C121.337 149.742 124.864 145.199 128.117 140.416C129.722 138.056 131.198 135.49 132.67 133.04C137.03 125.784 141.23 118.272 143.426 110.054C144.089 107.571 144.582 105.527 144.575 102.924C144.566 99.3678 143.249 96.2115 140.722 93.708C138.414 91.4211 135.631 89.7483 132.778 88.2316C128.683 86.0551 124.118 84.3578 120.576 81.3152C119.642 80.5128 118.773 79.705 118.17 78.6132C117.647 77.6683 117.41 76.4421 117.403 75.3704C117.382 72.5368 117.438 69.6966 117.458 66.8618C117.47 65.1683 117.321 63.2377 117.611 61.5807C117.662 61.2949 117.767 60.9761 117.974 60.7687C118.261 60.483 118.789 60.4951 119.157 60.3491C120.534 59.8023 121.567 57.8914 121.657 56.4653C121.712 55.5798 121.526 54.4482 120.916 53.7558C120.619 53.4196 120.309 53.1866 119.905 52.9931L119.778 52.9293C119.152 52.6256 118.234 52.3745 117.536 52.3269C115.248 52.171 112.773 52.388 110.469 52.4119C105.932 52.4589 101.394 52.4484 96.8558 52.4469C93.8535 52.4459 90.8474 52.4726 87.8456 52.4135C85.9661 52.3764 83.832 52.1303 81.9819 52.3498ZM95.1145 31.8425C93.3155 32.1314 87.696 32.7548 86.5999 34.2558C86.2071 34.7935 86.3077 35.7292 86.4231 36.3517C86.5835 37.2143 86.9083 38.0677 87.1047 38.9319C87.7118 41.6079 88.2689 44.3175 88.6687 47.0309C88.8395 48.1878 89.0729 49.1932 89.0402 50.3859C90.8779 50.1156 92.8803 50.2603 94.7408 50.2595C98.0744 50.2581 101.407 50.261 104.741 50.265L110.774 50.3372C110.799 49.0898 111.013 47.9459 111.203 46.7191C111.569 44.3414 112.033 41.9383 112.583 39.5946C112.875 38.3469 113.277 37.0749 113.462 35.8088C113.535 35.306 113.596 34.7067 113.309 34.2617C110.338 31.5008 100.169 31.6294 96.1073 31.7814L95.1145 31.8425Z" fill="#767147"/>
<path d="M88.5559 60.0022L109.209 59.9345C110.189 59.952 111.683 59.7928 112.322 60.6953C112.535 60.9965 112.53 61.5101 112.561 61.8659C112.66 62.986 112.716 64.0854 112.729 65.2099C112.761 68.136 112.769 71.0622 112.757 73.9884C112.749 75.6492 112.63 77.4253 112.801 79.0758C112.893 79.9593 113.145 80.9232 113.498 81.7387C113.982 82.8544 114.802 83.9212 115.758 84.6735C117.644 86.1586 119.995 87.0481 122.181 87.9838C124.558 89.0016 126.878 90.0852 129.176 91.2706C131.581 92.5109 133.973 93.848 135.861 95.8119C138.087 98.1293 139.808 100.887 139.725 104.2C139.661 106.758 138.729 109.375 137.9 111.776C137.124 114.025 136.42 116.425 135.425 118.586C134.741 120.07 133.892 121.473 133.098 122.9C131.642 125.518 130.184 128.084 128.616 130.64C126.495 134.099 124.366 137.582 122.074 140.931C121.104 142.347 120.038 143.684 119.037 145.076C115.507 149.986 111.888 154.667 107.512 158.863C106.583 159.691 105.656 160.487 104.581 161.121C102.527 162.333 100.167 162.812 97.8392 162.194C91.7497 160.576 84.6331 150.391 81.0074 145.369C76.9601 139.762 73.0939 134.015 69.6145 128.029C67.8987 125.077 66.0486 122.05 64.5847 118.967C63.7426 117.191 63.1801 115.311 62.5403 113.459C61.5138 110.488 60.2343 107.402 60.1516 104.222C60.1321 103.469 60.1152 102.629 60.3197 101.903C62.3951 94.5329 70.0393 91.2233 76.4688 88.4391C78.3549 87.6225 80.2975 86.8914 82.0981 85.8905C83.9303 84.8721 85.3876 83.7422 86.2929 81.7855C87.475 79.2319 87.0566 75.8782 87.055 73.1267C87.0534 70.559 87.0604 67.9903 87.0887 65.4226C87.104 64.0164 86.9984 62.3115 87.4157 60.9673C87.6137 60.3291 88.0032 60.271 88.5559 60.0022ZM89.0634 61.6758C89.0629 65.8953 89.058 70.1151 89.0542 74.3343C89.0531 75.8118 89.0515 77.2899 89.0411 78.7674C89.0346 79.7498 89.089 80.7334 88.8301 81.6897C88.0592 84.5359 85.0607 86.967 82.598 88.3858C80.7985 89.4232 78.6459 90.0934 76.7256 90.8963C74.1046 91.9919 71.5571 93.2442 69.0721 94.6189C67.8982 95.2679 66.7095 95.8429 65.7826 96.8351C64.5809 98.1222 63.7431 100.016 63.2682 101.7C62.0698 105.948 64.131 110.212 65.51 114.152C65.677 113.158 65.8359 112.145 66.1737 111.192C66.925 109.073 68.7756 106.359 70.6067 105.049C73.9322 102.671 78.1781 102.396 82.1313 103.067C84.1958 103.417 87.0588 104.655 88.7615 105.846C89.7728 106.553 90.4125 107.522 91.2944 108.35C93.0847 110.031 95.0197 111.576 96.7441 113.325C97.8348 114.432 98.9712 115.971 100.337 116.718C101.97 117.613 104.959 117.744 106.74 117.383C111.971 116.498 117.104 115.972 122.282 117.385C123.53 117.725 124.926 118.152 125.996 118.903C127.701 120.101 128.948 121.996 129.614 123.953C131.545 119.648 133.819 115.599 135.393 111.123C136.639 107.577 137.618 104.35 136.218 100.647C135.739 99.3778 135.089 97.9753 134.175 96.9624C133.134 95.8075 131.77 95.1389 130.425 94.4051C128.407 93.3057 126.357 92.2987 124.258 91.3642C121.952 90.3376 119.438 89.5804 117.226 88.3743C115.781 87.5877 114.201 86.3131 113.087 85.1289C112.417 84.4151 111.683 83.5698 111.315 82.6591C111.075 82.0689 110.91 81.4988 110.851 80.8601C110.653 78.7228 110.814 76.4385 110.811 74.2848C110.807 70.0977 110.767 65.9067 110.821 61.7206C106.443 61.9678 101.979 61.8081 97.5906 61.8078C94.8418 61.8077 91.7676 62.0678 89.0634 61.6758ZM75.9395 105.293C73.2924 105.986 70.8336 107.376 69.442 109.817C68.2354 111.933 67.8084 114.335 67.8541 116.745C67.8655 117.356 67.8383 118.101 67.9885 118.691C68.1375 119.277 68.4536 119.866 68.6766 120.43C69.5514 122.646 70.7122 124.688 71.8976 126.752C74.8406 131.878 77.9746 137.009 81.3784 141.843C83.469 144.812 85.7124 147.601 87.9319 150.468C88.718 151.482 89.4159 152.634 90.2613 153.59C91.9798 155.532 93.9164 157.529 96.2203 158.759C97.8724 159.642 99.6159 160.169 101.445 159.595C104.906 158.51 107.486 155.92 109.822 153.258C111.472 150.975 113.263 148.831 114.967 146.593C117.432 143.356 119.713 140.04 121.885 136.601C122.755 135.222 123.685 133.887 124.472 132.457C121.742 133.629 118.383 132.796 115.727 131.716C113.041 130.623 110.544 128.958 108.21 127.263C107.403 126.677 106.519 126.149 105.777 125.485C103.117 123.104 100.845 120.403 98.3429 117.884C96.168 115.694 93.8114 113.637 91.4935 111.6C89.9338 110.228 88.1762 108.395 86.3674 107.401C83.0327 105.567 79.6947 104.989 75.9395 105.293ZM112.252 118.893C110.446 119.012 108.771 119.227 107.003 119.614C106.181 119.795 105.075 120.303 104.263 120.127C104.268 120.434 104.488 120.559 104.702 120.767C105.965 121.992 107.34 123.076 108.661 124.236C111.267 126.523 113.897 129.097 117.39 129.953C118.291 130.173 119.257 130.231 120.183 130.305C121.666 130.454 124.522 130.483 125.736 129.509C126.658 128.768 127.569 127.272 127.687 126.077C127.807 124.85 127.105 123.399 126.317 122.479C124.139 119.936 120.263 119.062 117.05 118.864L112.252 118.893Z" fill="#767147"/>
<path d="M115.201 93.0298C115.573 93.0026 115.948 92.9809 116.319 93.026C118.232 93.2616 119.728 94.4024 120.875 95.9098C123.21 98.9823 123.83 102.686 123.859 106.46C123.866 107.313 123.942 108.262 123.803 109.104C123.715 109.638 123.548 110.046 123.103 110.375C122.576 110.449 122.296 110.288 121.852 110.047C121.095 108.999 120.573 107.8 119.737 106.798C119.228 106.189 118.543 105.746 118 105.168C117.473 104.606 117.086 103.923 116.535 103.382C115.205 102.075 113.651 101.059 113.066 99.1792C112.604 97.6952 112.452 95.9299 113.219 94.5161C113.693 93.6429 114.267 93.3013 115.201 93.0298ZM115.499 94.639C114.839 95.0943 114.671 95.5045 114.533 96.3063C114.315 97.5695 114.677 98.787 115.413 99.8195L121.685 106.52L121.879 106.916L122.038 106.857C122.194 106.143 122.044 105.348 121.976 104.624C121.721 101.929 121.348 99.7683 119.833 97.4433C118.938 96.0702 117.785 95.0285 116.145 94.6945C115.93 94.6504 115.719 94.6319 115.499 94.639Z" fill="#767147"/>
</svg>
