<svg width="200" height="200" viewBox="0 0 200 200" fill="none" xmlns="http://www.w3.org/2000/svg">
<g clip-path="url(#clip0_327_71)">
<path fill-rule="evenodd" clip-rule="evenodd" d="M47.3066 136.373C47.3425 136.52 47.385 136.519 47.4182 136.372C47.4478 136.242 47.4467 136.11 47.4156 136.08C47.3089 135.975 47.2486 136.138 47.3066 136.373ZM47.3182 137.641C47.3541 137.787 47.3966 137.787 47.4298 137.64C47.4594 137.509 47.4583 137.377 47.4272 137.347C47.3206 137.242 47.2602 137.405 47.3182 137.641ZM49.7224 137.238C49.7583 137.385 49.8008 137.384 49.834 137.237C49.8636 137.107 49.8625 136.975 49.8314 136.945C49.7247 136.84 49.6644 137.002 49.7224 137.238ZM61.9035 125.276C61.6578 126.531 61.8423 127.367 62.6605 128.703C63.8222 130.601 66.4969 135.935 66.7647 136.889C67.0607 137.943 66.9844 138.876 66.4718 140.478C66.2461 141.184 66.0903 142.064 66.1256 142.434C66.1608 142.804 65.9755 143.739 65.7136 144.512C65.2654 145.835 65.0843 147.897 65.3893 148.205C65.4689 148.286 65.413 148.32 65.2573 148.287C65.0916 148.251 65.1827 148.406 65.493 148.686C65.7711 148.938 65.986 149.217 65.9705 149.306C65.9549 149.395 66.3186 149.601 66.7788 149.762C67.2387 149.923 67.6521 150.113 67.6972 150.182C67.7426 150.252 67.8011 150.215 67.8271 150.099C67.8534 149.983 67.9279 149.941 67.9928 150.004C68.707 150.706 73.9179 147.017 75.6322 144.597C76.0661 143.984 76.6034 143.29 76.8262 143.054C77.049 142.817 77.2445 142.501 77.2606 142.35C77.2769 142.199 77.3862 142.052 77.5036 142.023C77.6211 141.995 77.6501 141.905 77.5681 141.825C77.4861 141.744 77.5345 141.626 77.6753 141.561C77.8163 141.497 77.9096 141.355 77.8828 141.245C77.8559 141.136 77.9195 141.025 78.0244 140.999C78.1291 140.974 78.1477 140.887 78.0657 140.806C77.9837 140.726 78.0322 140.607 78.1735 140.543C78.3147 140.478 78.4288 140.255 78.4269 140.047C78.4251 139.839 78.4558 139.64 78.4952 139.604C78.818 139.317 78.8982 139.136 78.9104 138.669C78.9182 138.374 78.9717 138.176 79.0294 138.228C79.087 138.28 79.1054 138.129 79.0704 137.892C79.0352 137.654 79.0624 137.512 79.1309 137.574C79.1991 137.637 79.2263 137.494 79.1913 137.257C79.1561 137.02 79.1818 136.878 79.2484 136.943C79.3149 137.007 79.3418 136.743 79.308 136.356C79.2743 135.968 79.2925 135.777 79.3483 135.931C79.4042 136.085 79.4566 135.754 79.465 135.195C79.4734 134.636 79.4086 134.162 79.3214 134.143C79.234 134.123 79.0583 133.659 78.931 133.111C78.6147 131.752 77.4433 129.646 76.4734 128.694C76.042 128.271 75.597 127.724 75.4845 127.479C74.8399 126.078 67.7644 122.406 66.4197 122.774C66.225 122.827 66.1179 122.814 66.1816 122.745C66.2453 122.676 65.6513 122.759 64.8617 122.931C63.1897 123.293 62.1269 124.136 61.9035 125.276ZM67.3161 127.478C69.4493 127.531 72.2525 129.767 73.1199 132.108C74.2135 135.059 73.2941 138.3 70.2826 142.11C68.8151 143.966 68.4737 144.15 69.4766 142.545C70.419 141.037 70.4451 140.859 69.8154 140.24C69.2819 139.717 69.3141 138.72 69.8958 137.744C70.808 136.213 69.5774 132.829 67.0144 129.819C65.7127 128.29 65.8221 127.44 67.3161 127.478ZM159.815 44.1706C159.907 44.1697 159.983 44.0929 159.982 44.0001C159.981 43.9072 159.905 43.9079 159.813 44.0016C159.721 44.0953 159.722 44.1714 159.815 44.1706ZM79.3203 134.252C79.3432 134.275 79.346 134.588 79.3267 134.949L79.2914 135.605L79.2441 134.95C79.2 134.337 79.2199 134.153 79.3203 134.252ZM86.1725 146.631C86.2855 146.656 86.4062 146.649 86.4408 146.613C86.4753 146.578 86.4111 146.529 86.2981 146.503C86.185 146.477 86.0643 146.485 86.0298 146.52C85.9953 146.556 86.0595 146.605 86.1725 146.631ZM90.481 146.591C90.594 146.617 90.7147 146.609 90.7492 146.574C90.7838 146.539 90.7196 146.489 90.6065 146.464C90.4935 146.438 90.3728 146.446 90.3383 146.481C90.3038 146.516 90.368 146.566 90.481 146.591ZM146.579 93.4633C146.672 93.4623 146.748 93.3856 146.747 93.2927C146.746 93.1998 146.67 93.2005 146.578 93.2943C146.486 93.388 146.486 93.464 146.579 93.4633Z" fill="#F30000"/>
<path fill-rule="evenodd" clip-rule="evenodd" d="M10.5214 129.687C10.2935 131.053 11.6626 131.152 13.5464 129.905C14.2453 129.442 15.2847 128.759 15.8563 128.388L16.8952 127.713L20.1171 130.876L23.3388 134.039L22.9461 135.929C22.381 138.65 22.7588 139.582 24.2115 139.053L24.8453 138.822L25.4019 136.775C25.7079 135.649 26.0294 134.345 26.1161 133.878C26.2028 133.41 26.5295 131.979 26.842 130.698C29.7116 118.928 28.6589 117.451 20.8731 122.326C19.4555 123.213 17.7709 124.241 17.1296 124.61C16.4883 124.979 15.8061 125.439 15.6136 125.633C15.4211 125.827 14.2726 126.651 13.0614 127.465C10.4857 129.196 10.6233 129.075 10.5214 129.687ZM20.9944 125.038C23.662 123.371 25.6785 122.272 25.8185 122.409C26.0671 122.653 24.3949 130.763 24.0166 131.148C23.9108 131.256 23.1857 130.624 21.3771 128.848C20.0055 127.502 18.9074 126.375 18.9365 126.346C18.9658 126.316 19.8918 125.728 20.9944 125.038ZM34.4257 128.097C32.3448 131.431 28.5398 140.574 28.7535 141.725C29.1101 143.646 30.4757 143.014 31.3692 140.515C32.4953 137.365 33.0324 136.227 33.3901 136.232C33.8009 136.239 40.1467 137.231 40.2167 137.299C40.2454 137.328 40.543 138.637 40.8779 140.209C41.5176 143.212 41.5595 143.311 42.3071 143.583C44.3618 144.33 44.0458 140.186 41.4848 132.798C38.9424 125.464 36.9129 124.112 34.4257 128.097ZM37.0441 128.82C37.4083 128.903 39.614 134.483 39.363 134.687C39.1823 134.834 34.2372 133.952 34.2457 133.775C34.2508 133.668 34.7466 132.651 35.3474 131.514C35.9482 130.377 36.4775 129.371 36.5235 129.278C36.6777 128.966 36.8847 128.784 37.0441 128.82ZM128.656 46.9958C128.606 47.116 128.997 48.0403 129.525 49.0495C134.392 58.3553 141.986 63.7461 151.239 64.4637L152.955 64.5968L153.004 65.4799C153.597 76.2657 151.385 83.3268 144.861 91.4762C143.022 93.7733 138.688 97.8091 137.21 98.6015C137.083 98.6696 136.922 98.0194 136.795 96.9238C135.945 89.5851 131.648 80.5011 129.139 80.7403C125.816 81.0573 123.255 94.8318 124.988 103.068C125.177 103.966 125.266 104.767 125.187 104.848C124.597 105.449 111.01 110.14 107.894 110.819C107.146 110.982 105.895 111.336 105.114 111.606C104.334 111.875 103.674 112.098 103.648 112.101C103.622 112.104 102.994 111.635 102.251 111.06C97.1212 107.083 90.7476 104.623 89.3252 106.072C88.1501 107.269 89.6744 112.049 92.446 115.858L92.8929 116.472L92.13 116.786C88.1423 118.423 80.3297 123.226 77.1672 125.984C76.4966 126.569 75.8066 127.094 75.634 127.151C75.2344 127.283 75.4606 127.691 76.5054 128.721C77.8807 130.078 79.0267 132.611 79.2225 134.726L79.3027 135.593L79.3385 134.789C79.4122 133.135 78.8417 131.379 77.6005 129.441L77.3204 129.004L78.2472 128.228C85.7006 121.989 97.8696 116.271 113.352 111.734C115.487 111.108 122.43 108.723 124.448 107.921C126.091 107.269 125.936 107.198 126.503 108.864C129.442 117.499 131.854 119.431 134.035 114.897C135.72 111.395 136.616 107.672 137.058 102.334C137.105 101.764 137.119 101.748 138.472 100.811C150.447 92.5185 157.457 77.7425 155.525 64.8692C155.342 63.6455 155.48 63.4953 157.431 62.7961L158.976 62.2421L159.699 63.108C162.236 66.1494 163.271 67.8563 164.16 70.4678C172.161 93.9773 146.08 132.591 117.382 139.725C114.111 140.539 105.294 142.412 105.189 142.315C105.142 142.272 105.385 141.696 105.73 141.037C109.195 134.403 107.624 124.888 102.497 121.449C100.472 120.091 99.651 121.958 101.517 123.679C105.922 127.742 106.449 134.439 102.887 141.121L101.945 142.889L101.236 143.016C96.9913 143.776 86.2358 144.274 82.3315 143.891C80.2794 143.691 77.1569 143.179 76.9909 143.016C76.9187 142.945 76.5777 143.294 76.1148 143.913C75.2188 145.113 75.1465 144.988 77.0302 145.486C87.6466 148.29 113.567 145.062 126.446 139.331C157.085 125.697 178.085 82.5832 163.367 63.5318C162.176 61.9904 162.221 62.1458 162.903 61.9217C165.108 61.1975 168.89 57.8891 170.51 55.2669C174.801 48.3197 177.322 39.0897 175.434 37.2363C174.207 36.0321 169.542 36.9579 166.005 39.1073C162.12 41.4684 158.375 45.2357 155.494 49.6809C155.001 50.4407 154.232 51.5163 153.784 52.0714C152.826 53.2589 153.036 53.3073 150.864 51.3987C145.221 46.4416 140.039 44.9117 132.013 45.8341C129.438 46.1301 128.942 46.3015 128.656 46.9958ZM47.747 132.512C47.1511 134.199 47.3582 145.065 47.9983 145.693C49.1541 146.828 49.9509 145.768 49.8678 143.208C49.832 142.108 49.9069 141.103 50.0338 140.974C50.2794 140.724 52.463 139.454 54.2332 138.532L55.3005 137.977L56.0758 138.881C56.5022 139.379 57.174 140.305 57.5686 140.939L58.2861 142.091L58.9401 142.036C61.9927 141.778 59.162 137.408 52.6389 132.309C50.3273 130.502 48.4291 130.581 47.747 132.512ZM50.8458 134.072C52.7123 135.558 53.4146 136.275 53.1293 136.403C52.9797 136.47 52.2182 136.901 51.4373 137.36C49.4975 138.502 49.6874 138.724 49.8203 135.469C49.9071 133.339 49.9141 133.33 50.8458 134.072ZM61.4855 124.426C61.1977 125.215 61.2681 126.134 61.6688 126.822L61.9027 127.223L61.8212 126.616C61.583 124.847 62.6884 123.383 64.5505 123.001C65.1624 122.875 65.7635 122.748 65.8865 122.718C66.0094 122.687 65.7045 122.619 65.209 122.567C63.1176 122.344 62.0511 122.876 61.4855 124.426ZM66.1101 128.373C66.1277 128.624 66.4887 129.201 67.0143 129.819C69.5774 132.828 70.8079 136.213 69.8958 137.743C69.314 138.719 69.2819 139.716 69.8154 140.24C70.4451 140.858 70.419 141.037 69.4766 142.545C68.4736 144.15 68.815 143.965 70.2825 142.109C74.2955 137.033 74.6632 132.815 71.3731 129.6C69.0867 127.366 65.9881 126.644 66.1101 128.373ZM85.953 126.364C85.0384 127.943 84.9946 130.543 85.8636 131.657C86.1854 132.07 86.7022 132.739 87.0119 133.144C90.4561 137.643 97.5041 131.684 94.8528 126.515C93.0595 123.018 87.9413 122.931 85.953 126.364ZM79.2491 136.223C79.2959 136.581 79.3048 136.581 79.3449 136.222C79.3692 136.004 79.3673 135.805 79.3409 135.779C79.2356 135.675 79.2002 135.847 79.2491 136.223ZM90.7441 126.309C93.5555 126.423 93.6687 131.183 90.8842 132.204C90.1887 132.459 88.7581 132.21 89.4192 131.948C91.7097 131.044 92.0639 127.516 89.9208 126.953C89.6463 126.881 89.3751 126.78 89.3179 126.729C89.1641 126.591 90.1973 126.287 90.7441 126.309ZM78.071 140.727C78.1639 140.726 78.2392 140.65 78.2385 140.557C78.2375 140.464 78.1615 140.464 78.0695 140.558C77.9774 140.652 77.9781 140.728 78.071 140.727ZM77.5734 141.746C77.6663 141.745 77.7416 141.668 77.7409 141.575C77.7399 141.482 77.6639 141.483 77.5719 141.577C77.4798 141.67 77.4805 141.746 77.5734 141.746ZM77.3246 142.255C77.4175 142.254 77.4928 142.177 77.4921 142.084C77.4911 141.991 77.4151 141.992 77.3231 142.086C77.231 142.18 77.2317 142.256 77.3246 142.255Z" fill="white"/>
</g>
<defs>
<clipPath id="clip0_327_71">
<rect width="200" height="200" fill="white"/>
</clipPath>
</defs>
</svg>
